<?xml version="1.0" standalone="no"?>
<!DOCTYPE svg PUBLIC "-//W3C//DTD SVG 1.1//EN" "http://www.w3.org/Graphics/SVG/1.1/DTD/svg11.dtd" >
<svg xmlns="http://www.w3.org/2000/svg">
<metadata></metadata>
<defs>
<font id="zxxcamo" horiz-adv-x="1331" >
<font-face units-per-em="2048" ascent="1577" descent="-471" />
<missing-glyph horiz-adv-x="500" />
<glyph horiz-adv-x="0" />
<glyph horiz-adv-x="682" />
<glyph unicode=" " />
<glyph unicode="!" d="M141 496q10 51 52 74.5t81 4.5h37q0 1 5 20.5t7.5 26.5t9.5 26t14.5 30.5t20 27t27.5 27.5q78 53 187 17v632h166v-348q2 2 6 6.5t6 6.5q61 52 112 10q1 -1 9.5 -8.5t13 -13.5t8.5 -13v51q0 78 55 121q23 19 47 25.5t40 3t26 -12.5q6 -3 12 -7.5t11 -10.5t8.5 -10.5 t8 -13t6.5 -12t6 -12.5t5 -11q1 -1 7 -9q38 0 55 -59q9 -32 -3 -61t-40 -43q-54 -30 -103 34q9 -18 9 -41q0 -74 -68 -129q-36 -24 -72 -24q-25 0 -41 16q-40 26 -51 78h-4q-14 -11 -34.5 -9t-34.5 19v-495h-166v108q-21 0 -31 2h-33q-15 -74 -33 -104q-21 -33 -55 -51 q-53 -35 -98 -35q-69 0 -109 24q-51 19 -74 58t-8 84zM524 0v283h119q-4 67 41 100q71 32 137 -27q3 63 62 86q42 12 82 -8.5t90 -64.5q26 -26 37 -29q53 -17 73 -51q14 -14 14.5 -39t-8.5 -39q-7 -13 -36 -27q-16 -10 -32 -12t-34 4.5t-30 13t-33 19.5q0 -95 -74 -107 q-33 -15 -84 15q4 -13 -10 -41q-12 -12 -33 -19v-57h-281z" />
<glyph unicode="&#x22;" d="M252 1182l74 411h262l-74 -411h-262zM743 1182l74 411h264l-73 -411h-265z" />
<glyph unicode="#" d="M145 330l21 166h129l43 366h-166l21 166h165l41 332h166l-41 -332h387l41 332h166l-41 -332h129l-20 -166h-129l-43 -366h166l-21 -166h-166l-41 -330h-166l41 330h-387l-41 -330h-166l41 330h-129zM461 496h387l43 366h-387z" />
<glyph unicode="$" d="M172 383v82h166v-82v-10q4 -88 73 -143t171 -74v426q-92 8 -167.5 40t-125 79t-79 104t-36.5 119q-2 6 -2 18v10v9q0 91 45 171t140 138.5t225 70.5v154h166v-158q112 -14 202.5 -62t148.5 -135t58 -198v-82h-166v82v10q-6 103 -92 160q-63 45 -151 57v-426 q180 -16 287 -114.5t120 -229.5q2 -4 2 -16v-8v-10q0 -141 -108.5 -252t-300.5 -129v-158h-166v162q-135 15 -246 88q-80 56 -122 134.5t-42 172.5zM338 952q3 -73 66 -131t178 -71v421q-104 -19 -174 -75.5t-70 -143.5zM748 156l2 2q102 16 171.5 72.5t69.5 142.5 q-3 73 -65.5 131t-177.5 71v-419z" />
<glyph unicode="%" d="M160 184l829 992h185l-830 -992h-184zM160 1071q0 120 85.5 204.5t205.5 84.5t205 -84.5t85 -204.5t-85 -206.5t-205 -86.5t-205.5 86.5t-85.5 206.5zM301 1071q0 -62 44.5 -106.5t105.5 -44.5q62 0 106.5 44t44.5 107q0 61 -44.5 105.5t-106.5 44.5q-60 0 -105 -44.5 t-45 -105.5zM590 291q0 121 86 206t207 85q120 0 205.5 -85t85.5 -206q0 -119 -85.5 -205t-205.5 -86t-206.5 86t-86.5 205zM731 291q0 -59 46.5 -104.5t105.5 -45.5q61 0 105 45t44 105q0 64 -43.5 107.5t-105.5 43.5q-60 0 -106 -44t-46 -107z" />
<glyph unicode="&#x26;" d="M156 471q0 134 64 238t175 157q-53 86 -53 224q0 57 15 106.5t46 91.5t85 66t126 24h13q68 -2 119.5 -27t81.5 -66.5t44.5 -90.5t14.5 -104q0 -126 -47 -211.5t-135 -116.5l258 -387q12 43 12 96v268h166v-268v-12q-3 -139 -72 -248l57 -84l48 -68l-66 -47l-2 -2h-2 l-64 -47l-49 68l-39 57q-133 -92 -305 -92q-195 0 -336 119q-155 131 -155 356zM322 471q0 -77 27.5 -137.5t74.5 -97t103.5 -55.5t119.5 -19q128 0 213 65l-336 506q-38 -9 -71 -27t-64 -48t-49 -78t-18 -109zM506 1042.5q0 -5.5 0.5 -22t2.5 -24t5.5 -21.5t8.5 -21.5 t13.5 -17.5t19 -15t25.5 -8.5t33 -3.5q26 2 46 10t31 22t18.5 26.5t9.5 33.5t3 32t0 32t-1 25q0 38 -11 64.5t-29.5 38t-34 15.5t-32.5 4t-32 -4t-33.5 -15.5t-29.5 -38t-11 -64.5v-7q0 -2 -1 -18.5t-1 -22z" />
<glyph unicode="(" d="M377 354v617q-1 119 42.5 222t114 170.5t158 105.5t176.5 38h84v-166h-84q-129 0 -227 -111t-98 -290v-557q0 -179 98 -290t227 -111h84v-166h-84q-95 1 -185 44.5t-157 115t-107.5 171t-41.5 207.5z" />
<glyph unicode=")" d="M377 -18h84q129 0 227 111t98 290v557q0 179 -98 290t-227 111h-84v166h84q89 0 176.5 -38t158 -105.5t114 -170.5t42.5 -222v-617q-1 -108 -41.5 -207.5t-107.5 -171t-157 -115t-185 -44.5h-84v166z" />
<glyph unicode="*" d="M178 858v166h289l-203 203l117 116l203 -202v286h166v-286l202 202l115 -116l-203 -203h289v-166h-289l203 -203l-115 -116l-202 202v-286h-166v286l-203 -202l-117 116l203 203h-289z" />
<glyph unicode="+" d="M197 616v166h387v422h166v-422h385v-166h-385v-421h-166v421h-387z" />
<glyph unicode="," d="M287 -164h92h12q99 2 137 35.5t47 128.5h-59v313h313v-313h-69q-6 -87 -24 -146t-59 -107.5t-114.5 -71.5t-183.5 -23h-92v184z" />
<glyph unicode="-" d="M418 573v166h497v-166h-497z" />
<glyph unicode="." d="M508 0v313h313v-313h-313z" />
<glyph unicode="/" d="M188 0l752 1360h203l-752 -1360h-203z" />
<glyph unicode="0" d="M52 798q5 59 40 107q48 34 90 64q29 184 130 287.5t251 103.5h205h10q101 -3 178 -53q28 72 84 88q33 5 62 -11.5t39 -52.5q6 -31 -1.5 -56t-31.5 -34q-10 -20 -16 -74l-2 -10q69 -135 69 -334v-284q0 -51 -6 -97q46 -25 82 -90q13 -24 22 -30q44 -18 52 -60 q6 -36 -7 -65t-38 -37q-26 -11 -51.5 1.5t-39 29.5t-31.5 45q-3 5 -5 8q-14 19 -21 24l-20 -55q-17 -60 -35.5 -92.5t-50.5 -44.5q-12 -7 -33 -4q-84 -69 -209 -72h-205q-125 2 -214.5 76t-132.5 193t-44 270v32q-6 7 -41.5 45t-52.5 60q-31 63 -26 122zM311 414 q10 0 18 2.5t12 5t5 2.5q36 -258 217 -258h205h10q9 0 15 2q-5 15 -5 16q0 15 -3 36t-3 32q0 86 54 108q29 17 55 -0.5t63 -62.5q39 98 39 270v226v14q0 125 -24 211q-47 10 -68 53q-14 44 2 70q-50 53 -135 53h-205h-10q-64 -3 -104 -35q31 -13 43.5 -40t3.5 -58 q10 -9 23 -16.5t31 -15.5t23 -11q40 -18 65 -32t51.5 -39.5t35.5 -53.5q5 -9 8 -16.5t3.5 -16.5t1.5 -13.5t-1.5 -14.5t-3 -13t-4.5 -14.5t-4 -13.5q-12 -33 -57 -62t-117 -24q-7 2 -31 8t-34.5 9.5t-27 10.5t-28.5 15l-25 7.5l-35 10.5t-32 10v-67l4 -4q52 -46 78.5 -86.5 t21.5 -90.5q-1 -2 -7 -15t-13 -22.5t-20.5 -24t-36.5 -27.5t-54 -25zM551.5 511q-0.5 17 5.5 44.5t23 56.5q5 20 18 33q19 25 42.5 41t41 22.5t42 7t33.5 -0.5t29 -4q27 21 68 18q26 -8 40.5 -35t8.5 -59q-24 -65 -88 -80q-31 -3 -57 4q-34 9 -42.5 7t-25.5 -23q3 -3 3 -6.5 t-1 -6.5l-2 -2l6 -2q25 -35 34.5 -64.5t0.5 -83.5t-49 -122q-20 -25 -47 -31.5t-47 8.5q-27 21 -32.5 50.5t15.5 56.5q29 48 29 74l-8 8q-12 16 -16.5 22.5t-14 28t-10 38.5z" />
<glyph unicode="1" d="M174 0v166h363q11 31 34 61q0 3 -4 7t-4 10q-18 16 -37 16l-32 -16q-46 -27 -75 -31q-12 -2 -24 -2q-85 0 -119 76q-21 32 -14.5 65.5t37.5 53.5q69 30 104 -17q23 14 39 22t48 17t59.5 6t64.5 -20.5t72 -51.5l8 -8v289q-6 2 -20 2q-64 22 -102.5 68.5t-49.5 105.5 q12 77 20.5 106.5t18.5 44.5t43 48q-57 15 -96 94q-4 16 -4 29l-230 -64v166l420 117h166v-96q73 17 119 -7q15 -4 27 -11t21 -19t13.5 -19.5t12.5 -23.5q6 -12 7.5 -31.5t-2.5 -44.5t-21.5 -53.5t-47.5 -53.5q-71 -46 -117 -55q-8 -4 -12 -8v-84q61 3 104.5 -7.5 t71.5 -47.5q1 -5 7.5 -20.5t10.5 -28.5t4 -33t-9 -39q-4 -8 -7 -19t-6.5 -18.5t-9.5 -15.5q-53 -45 -117 -25q-15 6 -49 35v-469h299v-166h-397q-9 -18 -14 -23q-30 -34 -72 -34l-10 2q-8 1 -21.5 8t-17.5 8q-16 14 -41 39h-412z" />
<glyph unicode="2" d="M106 225.5q9 34.5 37 50.5q20 10 40.5 11t41.5 -7t36 -15.5t38 -22.5l66 63q18 65 71 86q12 4 21 4l65 66q-27 16 -65 69q-15 25 -19 29q-16 5 -28 21.5t-13 37.5q0 29 18.5 46.5t47.5 17.5q17 1 32.5 -7t24 -15.5t24.5 -25t21 -22.5l4 -2q23 40 38.5 63t43 49t56.5 34 q49 15 104 -13l178 177q-9 120 -94 196q-2 2 -7 6t-7 6q-17 -33 -60.5 -57.5t-109.5 -19.5q-7 2 -26 6.5t-27.5 7t-22.5 7.5t-25 10t-20 12q-7 2 -60.5 19t-74.5 17q-9 -6 -17 -14q4 -9 14.5 -20.5t26.5 -25.5t21 -19q52 -44 79 -85.5t23 -91.5q-2 -4 -9.5 -20t-14 -27.5 t-21.5 -25.5t-35 -21q-8 -3 -17.5 -9t-16.5 -8.5t-17 -2.5h-8q-28 3 -54 19t-40 44q-3 31 -31 76v-14v-82h-166v82v12q3 112 43 193q-15 90 37 161q87 64 111 74t86 10q-27 44 0 135q24 40 66.5 52t86.5 -13q32 -13 46.5 -41t6.5 -61q10 -9 23.5 -16.5t31 -15.5t23.5 -11 q12 -6 27 -12q165 -28 278 -145.5t119 -305.5q3 -21 -2 -37q2 -4 5 -14t5 -14q8 -10 16 -30t11 -24q10 -38 0.5 -64t-29.5 -36q-10 -14 -39.5 -13.5t-56.5 21.5l-27 27v2t-1.5 3t-4.5 1v-12q-1 -4 -5 -23t-6.5 -27.5t-8 -25.5t-11.5 -26.5t-15 -21.5t-21 -19t-27 -11 q-35 -10 -78 4l-264 -258q1 -2 4 -6t4 -6q17 -30 25 -35q36 -19 45 -53q6 -19 2 -37l233 2q0 38 -6 53q-57 24 -57 68q0 30 23 48.5t59 18.5q30 0 61 -16v125h166v-440q4 -12 4 -19q0 -26 -22 -45.5t-56 -19.5h-6h-10q-81 3 -117 59h-778v72q-3 11 0 20v27l2 2q-36 3 -65 43 q-12 27 -3 61.5z" />
<glyph unicode="3" d="M48.5 1114.5q9.5 34.5 37.5 50.5q20 13 47 10t44.5 -10t43.5 -22q61 104 183 160.5t262 56.5h16h4q112 0 204 -32.5t149.5 -87t88.5 -121.5t31 -140v-8v-10q0 -13 -2 -19q-13 -105 -80 -184q3 0 9.5 -1t9.5 -1q3 -1 21.5 -9t29.5 -14.5t26 -22t23 -36.5q3 -8 9.5 -20 t9 -20.5t2.5 -19.5v-8q-3 -28 -21 -56t-45 -42q-2 -1 -7 -2t-7 -2q14 -39 20 -86q2 -6 2 -19v-8v-10q0 -72 -31 -139t-88.5 -121.5t-149.5 -87.5t-204 -33h-4h-14q-194 0 -330 94q-79 54 -121.5 132.5t-42.5 172.5v84h166v-84q0 -76 50 -130.5t122.5 -78.5t155.5 -24 q82 0 154 23.5t121.5 76t49.5 123.5q0 4 -1 11.5t-1 11.5q-9 -8 -26 -24t-25 -23q-133 -62 -246 18q-68 91 -79 117.5t-11 93.5q-48 -30 -143 -2q-42 24 -55 70t12 94q15 35 44.5 49.5t65.5 5.5q10 11 17.5 25t15 34.5t10.5 26.5q21 42 36 67.5t42 54t56 40.5q9 4 17.5 6.5 t18 3.5t15.5 1t16 -1.5t14.5 -2.5t16 -3.5t14.5 -3.5q35 -15 65.5 -63.5t22.5 -125.5q-2 -9 -6 -28.5t-6 -28.5q93 61 100 158q-6 99 -92 159q-92 64 -235 64q-65 0 -117 -14l6 -12t9 -14.5t9 -8.5q36 -19 45 -53q11 -35 -8 -62q-16 -32 -49 -37q-60 -13 -106 43 q-25 -84 -80 -102q-20 -10 -35 -10v-47h-166v84v12v10q-7 6 -24 15t-21 12q-46 -3 -78 43q-12 27 -2.5 61.5z" />
<glyph unicode="4" d="M84 370.5q5 58.5 39 106.5q85 62 110 73t78 11l6 6q-23 52 5 129q22 39 64.5 51.5t84.5 -12.5l29 33q-40 0 -58 18q-21 14 -31.5 42t-12 48.5t-1.5 59.5v43q-19 28 0 68q14 19 39 25t49 -7q9 -6 15.5 -13.5t10.5 -17.5t6.5 -16.5t3.5 -20.5t1 -19v-21.5v-20.5v-33l13 6 q76 37 114 23l393 428h119v-369q2 0 6 -4q9 -5 16.5 -11t14 -16t9.5 -15.5t9.5 -19t8.5 -16.5l4 -6q41 0 55 -61q10 -32 -1.5 -60.5t-39.5 -42.5q-42 -22 -82 13v-752h-166v299h-297q-51 -28 -116 -23q-13 4 -39.5 11.5t-40.5 11.5h-156q5 -4 14 -12t13 -11 q52 -45 78.5 -85.5t21.5 -90.5l-11 -26q-11 -25 -26 -42t-41 -26q-7 -3 -17.5 -9t-18 -8.5t-17.5 -2.5q-28 0 -56 16t-44 47q-3 26 -21 57.5t-35 52.5t-44 51t-33 38q-30 64 -25 122.5zM573 604q9 -3 31 -14q61 -27 99.5 -55.5t52.5 -69.5h239v115q-20 8 -26 14 q-40 29 -51 78h-5q4 0 -1 -2q-2 0 -7 -2q-21 -9 -42 0.5t-34 36.5q-12 32 -4 66t31 54q62 51 113 9q21 -17 26 -29v260z" />
<glyph unicode="5" d="M122 742q-1 45 34 79q6 9 16 19v520h985v-166h-186q1 -10 1 -21.5t-0.5 -25.5t-0.5 -23v-41q4 0 8 2.5t6 4.5l2 2q34 17 58 25.5t60 7t62 -24.5q19 -16 27 -38t9.5 -37t-7.5 -45t-12 -37t-17 -38q-16 -32 -16 -41q0 -23 -10 -43q15 -12 22 -33q12 -35 2 -66t-37 -52 q1 -4 4.5 -12.5t4.5 -12.5q22 -75 26 -92q3 -8 14 -40.5t16 -48.5t10 -42.5t5 -48.5q7 -80 -28 -128t-80 -63q-13 -6 -47 -14q-5 -5 -14.5 -15t-17.5 -18t-15 -14q-128 -121 -322 -121h-4h-2h-4q-15 -13 -43 -25q-10 -10 -35 -10h-10q-50 6 -74 53l-2 5q-100 27 -182 96 q-156 132 -156 356v84l100 -2q0 20 13 74q-58 -16 -129 35q-33 31 -34 76zM338 987h63q43 36 88 39q11 2 20.5 3t20 -2t15.5 -3.5t17 -7.5t13 -7.5t15 -9.5q4 -2 14 -12h98h11q57 -3 121 -20q-25 41 -25 157v58l-6 12h-465v-207zM348 385q41 -152 201 -203v4q-18 58 -37 105 q-8 31 -10 49q-87 -9 -154 45zM549 692q13 11 37 23q27 17 60.5 24.5t82 -8t90.5 -61.5q16 -16 34 -40t28.5 -42t30 -52t26.5 -47q5 -9 45 -77v2q8 36 8 80v4q-34 104 -45 164v14q-81 145 -262 145h-53l-4 -12q-35 -72 -72 -104q0 -1 -6 -13zM672 412q1 -2 8.5 -27t11.5 -39 q37 -129 37 -176l6 2q86 16 148 64q-51 68 -99 163q-6 12 -12 27q-8 -4 -12 -4q-6 -2 -17.5 -1.5t-15.5 1.5t-15 3t-16 3q-4 2 -7 -0.5t-4 -5.5l-1 -4zM956 907q5 -4 15.5 -12t15.5 -12q4 20 8 30q-36 -6 -39 -6z" />
<glyph unicode="6" d="M170 512q0 33 2 47v354l2 7q6 105 50 190.5t113 139t153.5 82t175.5 28.5q94 0 181 -31t156.5 -88.5t111.5 -150t42 -205.5v-82h-20q-10 -40 -41 -53q59 -100 59 -238v-20q2 -4 2 -17q0 -24 -4 -74q32 -25 43 -69q6 -32 2 -119q-6 -76 8 -98q27 -5 44.5 -23.5t13.5 -44.5 q-6 -22 -22 -38.5t-38 -22.5q-15 -4 -22 0q-16 2 -26 3.5t-27.5 8t-29 15.5t-22 27t-14.5 42q-10 45 -10 88q-21 -27 -62 -59q-127 -111 -309 -111h-27q-189 3 -327 119q-147 122 -156 327v48q-2 8 -2 18zM336 492q2 -4 2 -17q0 -102 49 -174t121 -103.5t158 -31.5 q38 0 69 8q0 34 6 64q-3 15 2 47q-39 19 -32 63q11 29 35.5 43.5t52.5 7.5q94 -7 90 -108q15 30 24.5 46.5t28 37.5t39.5 33q8 39 8 86q0 79 -26 147q-21 -21 -31 -29q-38 -24 -70 -24q-19 0 -43 16q-37 26 -49 78h-6h4q-2 -1 -12 -4q-19 -9 -40 0.5t-34 36.5 q-10 27 -6.5 55t18.5 49q-10 2 -30 2q-112 0 -195 -51q83 27 131 -14q19 -16 27 -38t9.5 -37t-7.5 -45t-12 -37t-17 -38q-16 -32 -16 -41q0 -40 -25 -65t-57 -25h-13q-22 2 -45 25q-40 43 -16 114q-59 -12 -88 -4q-4 -24 -4 -39v-34zM344 958l12 -6q24 -18 33 -39 q124 74 293 74h10q107 0 185 -37q13 20 30 31q36 28 62 31q-23 59 -74 104q-90 78 -229 78q-115 0 -206 -60.5t-116 -175.5z" />
<glyph unicode="7" d="M172 1194v166h82h2h901v-64q2 -6 2 -18v-363q2 -10 -2 -30v-2q-2 -2 -2 -4q0 -1 -1 -3.5t-1 -3.5v-2q-1 -1 -2 -3t-2 -3l-12 -18l-301 -354q116 41 217 -58q35 -34 51.5 -68.5t18.5 -58t-8 -49.5t-17.5 -36.5t-20.5 -26.5q0 -13 27 -27q27 -27 31.5 -59.5t-19.5 -61.5 q-35 -35 -74 -35q-10 0 -26.5 9t-22.5 10q-41 35 -64 68.5t-30 59.5t-1 53.5t15 45t25 39.5l-6 16q-19 17 -37 17q-19 -7 -35 -17q-20 -12 -28 -16.5t-27.5 -10t-40.5 -5.5q-56 0 -86 26l-262 -309h-219l323 381q-37 -12 -67 18q-16 16 -16.5 43.5t16.5 51.5q-9 30 -72 98 q-41 62 -84 143q-46 102 27 180q12 18 33 31.5t58 14.5t77 -23q10 -5 22 -12.5t20 -13t22.5 -17.5t19.5 -17t22 -20t20 -18q7 -6 24 -21.5t27 -24.5t23 -18t21 -10q0 18 -60 94q-49 60 -71 105q-20 38 -15 71t14 50t19 26q25 19 50 18t42 -22q37 -40 6 -94q33 -33 56 -74 q3 -3 20 -25t23.5 -31t17 -27t16.5 -34q13 -27 17 -59l145 172v260h-737h-2h-82zM462.5 726.5q9.5 -27.5 26.5 -52.5q49 -62 74 -119q26 -63 12 -113l154 181q-43 0 -84 20q-56 40 -106 90q-62 44 -74 32.5t-2.5 -39z" />
<glyph unicode="8" d="M172 381v8v10q0 13 2 19q8 77 50 145t116 117q-74 49 -116 117t-50 145q-2 6 -2 19v8v10q0 73 31 140t88.5 121.5t149.5 87t204 32.5h4h15h16h4q112 0 204 -32.5t149.5 -87t88.5 -121.5t31 -140v-8v-10q0 -13 -2 -19q-8 -77 -50 -145t-116 -117q74 -49 116 -117t50 -145 q2 -6 2 -19v-8v-10q0 -72 -31 -139t-88.5 -121.5t-149.5 -87.5t-204 -33h-4h-14h-11h-6h-4h-14q-109 2 -198 35.5t-145 87.5t-86 120.5t-30 137.5zM338 389q0 -21 6 -39q7 -5 51 -55h6q-3 0 -3.5 0.5t6.5 4.5l4 3q32 55 61.5 90t69.5 47q64 21 159 -45q4 -5 29 -20 q6 12 6 39q1 4 5 22.5t5.5 24t6 21t9 22.5t11 18t15.5 18t20 13q5 3 18 6.5t21 7.5v4q-73 27 -160 27h-39h-14q-137 -4 -212.5 -65.5t-80.5 -143.5zM338 971q5 -83 84.5 -145t222.5 -62h39q143 0 222.5 62t84.5 145q-3 60 -37 106l-6 -24q-9 -22 -40 -43t-81 -17 q-59 16 -82 31q-8 2 -22 7t-26 9.5t-24.5 8t-21 3.5t-10.5 -5q0 -11 43 -54q37 -32 55.5 -61t14.5 -66q-1 -3 -6 -14t-9.5 -19.5t-14.5 -18t-24 -13.5q-5 -2 -12 -7t-12 -6.5t-12 -1.5q-19 0 -38.5 11.5t-29.5 31.5q-8 18 -8 45l-6 11v2q-1 2 -7 6q-40 44 -69 80 q-44 84 8 164q54 43 76 51q-106 -15 -179 -71.5t-73 -145.5zM494 197q79 -31 172 -31q75 0 142 20t117.5 66t61.5 110q-13 -12 -39 -9.5t-49 22.5q-7 4 -29 26l-6 7q3 0 4 -2t0 -5t-4 -6l-1 -1q0 -2 -1 -7q-1 -3 -4 -18t-4.5 -20t-5 -19t-6.5 -20t-8.5 -17.5t-11.5 -17.5 l-13.5 -13.5t-17.5 -12t-21 -7.5q-38 -12 -72 2t-73 45q-8 3 -26.5 13.5t-25.5 10.5q-25 -15 -61 -84q-3 -5 -9 -16t-9 -16z" />
<glyph unicode="9" d="M174 848v2v16v15v4q0 203 131 334q131 141 342 141h4h17q91 0 175.5 -29t153 -83.5t112.5 -141t50 -191.5v-12v-237q21 -18 39 -50q9 -15 14 -20q35 -15 37 -43q3 -27 -5 -46.5t-25 -23.5q-33 -13 -60 17v-45q0 -211 -139 -332q-145 -123 -391 -123h-82v166h82h10 q52 1 97.5 7.5t92.5 25t81 47.5t57 77t26 111l-8 8q-8 -26 -29 -53q-8 -6 -22 -6h-10q-20 3 -33 25q-4 4 -4 10q-102 -45 -219 -45h-11h-6h-4h-12h-2q-16 -75 -76 -170q-30 -34 -70.5 -43t-70.5 14q-40 25 -47.5 66.5t22.5 76.5q45 69 45 101q-49 24 -100 65l-6 6 q-156 135 -156 359zM340 866q0 -112 51 -192l12 18q10 28 27 45q35 42 76.5 66t84.5 27.5t66.5 2t55.5 -7.5q52 32 100 27q39 -11 60 -48.5t14 -82.5q-38 -90 -131 -109q-49 -4 -86 6q-39 9 -51.5 9.5t-22 -5t-27.5 -28.5q4 -4 4 -8t-2 -6l-2 -2l9 -7q-8 6 -1 -1l5 -5 q2 -2 14 -20q38 -6 72 -6q63 0 119.5 19t103.5 55.5t74.5 97t27.5 137.5v37q0 147 -96 231q-94 78 -229 78q-145 0 -238 -84q-90 -93 -90 -244z" />
<glyph unicode=":" d="M494 84v344h344v-344h-344zM494 952v344h344v-344h-344z" />
<glyph unicode=";" d="M281 -66h92h12q95 2 133.5 33t48.5 117h-73v344h344v-344h-84q-6 -66 -18.5 -114.5t-39 -92t-68 -70t-105.5 -42t-150 -15.5h-92v184zM494 952v344h344v-344h-344z" />
<glyph unicode="=" d="M197 479v166h938v-166h-938zM197 811v166h938v-166h-938z" />
<glyph unicode="?" d="M100 996q8 34 31 53q61 50 113 10q25 -25 30 -35v51q0 77 56 119q23 20 41 25q34 81 107 131.5t188 50.5h14q99 -3 166 -45q40 54 90 59q33 0 58.5 -21t29.5 -57q0 -75 -47 -86q-10 -14 -16 -28q32 -74 32 -164q0 -19 -2 -27q18 0 60 -6q46 31 100 25q39 -11 60 -48.5 t14 -82.5q-39 -90 -131 -109q-51 -4 -88 6q-39 9 -65 3.5t-31 -20t3 -30.5q27 -36 40.5 -64.5t19.5 -73t-14 -102t-66 -129.5q-28 -34 -69.5 -43t-69.5 13q-49 -17 -105 -17h-12q-28 0 -49 6q18 -26 26 -41q7 -16 21 -30l12 -6h2q60 0 101 -41.5t41 -100.5 q0 -58 -41.5 -99.5t-100.5 -41.5q-57 0 -98 42t-41 99q0 33 12 60q-1 2 -3 5t-3 5q-4 3 -10 12.5t-10 12.5q-9 -28 -23 -56q-17 -60 -35 -92.5t-49 -44.5q-21 -10 -44 -2t-38 29q-7 -32 -39 -76q-14 -8 -32 -8q-44 0 -62 32q-10 19 -10 47.5t10 45.5q0 5 -3 22t-3 19 q0 15 -4 35.5t-4 31.5q0 88 53 109q12 7 23.5 8t23 -4t20.5 -11t21 -19.5t19 -22.5t20 -25q6 -8 14 -18v10q2 4 10 25t11 27.5t11.5 25t13.5 26l14 21t16.5 20.5t17.5 13.5t21 9.5q-92 77 -92 229q0 71 24.5 125t66 85t91.5 46.5t107 15.5q18 0 40.5 5t52 18t49 43t19.5 72 h-4q-29 0 -51.5 20t-28.5 47q-8 52 23 80q-41 35 -100 35q-53 0 -94 -29t-58 -80q32 -7 47 -61q9 -31 -3 -60t-40 -42q-21 -14 -40.5 -10t-33 14t-28.5 30q8 -16 8 -43q0 -70 -68 -129q-37 -22 -71 -22q-25 0 -41 16q-40 26 -51 78h-5q-20 -15 -45 -6.5t-39 39.5 q-12 32 -4 66zM543 643q0 -38 11 -64.5t29.5 -38t34 -16t31.5 -4.5h6q16 1 31.5 6t32.5 16.5t27 35t10 55.5q-1 2 -9.5 13.5t-12.5 17t-11.5 17.5t-11.5 21.5t-8 23t-5 26.5q-10 -2 -32 -2q-38 0 -64.5 -11t-38 -29.5t-16 -34.5t-4.5 -32zM889 172q-10 58 33 86q12 27 24 51 q47 146 135 158q32 0 58 -21.5t30 -58.5q0 -75 -47 -84q-11 -12 -30 -70q-49 -120 -115 -129h-8q-28 0 -51 21t-29 47z" />
<glyph unicode="@" d="M129 686q0 128 37.5 247t106.5 212.5t177.5 150t239.5 56.5h6q111 -1 207.5 -50.5t160 -127t100 -172t36.5 -187.5q0 -98 -33 -200t-94 -185v-199h-166v60q-80 -41 -180 -41q-143 0 -245.5 102t-102.5 244t102.5 244t245.5 102q97 0 178.5 -50.5t126.5 -133.5q4 40 4 57 q0 142 -104.5 256.5t-239.5 114.5q-176 0 -287.5 -143t-111.5 -357q0 -167 49 -304t150 -222.5t239 -85.5h84v-166h-84q-140 0 -255.5 63.5t-190.5 171.5t-115.5 247.5t-40.5 295.5zM547 596q0 -72 54.5 -126t125.5 -54q72 0 126 53.5t54 126.5q0 74 -53.5 127t-126.5 53 q-72 0 -126 -53t-54 -127z" />
<glyph unicode="A" d="M100 984q5 58 39 108q88 63 112.5 72.5t86.5 9.5q-15 24 -15 58t15 77q22 39 65 52q15 5 30 5l56 -16q33 -12 48 -42q9 -18 9 -39q0 -12 -3 -24q1 -1 8 -6.5t12 -7.5l23 69l20 60h117l20 -60l152 -448q45 41 123 55h6q26 0 46.5 -25t25.5 -61q1 -7 1 -14q0 -29 -14 -55 q-17 -32 -45 -41q-15 -3 -27.5 -8t-19 -8t-8.5 -3v-18q0 -39 -6 -62l151 -446h2l56 -166h-166l-35 102l-41 121l-274 -2q0 -18 -2 -26q-12 -101 -99 -129h-30q-62 0 -115 69q-22 52 -29 88h-10l-41 -121l-35 -102h-168l33 92q0 8 4 12l4 15l164 481q-60 8 -88 62 q-10 23 -10 63l-12 10q-18 23 -58.5 67t-52.5 58q-26 57 -26 107q0 9 1 17zM324 965q0 -3 1.5 -7t4.5 -8.5t6 -8t8 -9t8.5 -9t9.5 -9t9.5 -8.5t9.5 -8t8 -7q7 -7 21.5 -20.5t21.5 -20.5l29 86q-7 2 -30 10.5t-36 12.5t-30.5 8.5t-27.5 4t-13 -6.5zM459 432q14 -10 39 -35 q8 75 88 105q31 5 58.5 -13.5t39.5 -54.5q5 -16 -6 -45h209l-31 88h-2q-27 -5 -48 -6.5t-40 6.5t-33.5 17t-27 24t-21 28t-15.5 29.5t-11 27.5t-7 22l-8 4q-38 18 -47 73q-2 13 -2 25q0 29 10 53q14 32 47 41q15 5 28 5q42 0 73 -50l-47 131q-37 -16 -75 -16h-12zM798 1302 q12 35 46 54q18 10 35 11h3q16 0 36 -9q22 -10 38 -19.5t50 -33.5q5 -4 8.5 -6t7.5 -5q13 -8 42.5 -24t37.5 -21q49 -13 72 -61q3 -12 3 -25q1 -23 -9 -45q-14 -34 -48 -47h-35q-33 0 -67.5 18.5t-93.5 63.5q-43 22 -54 35q-52 15 -63 43q-13 23 -13 45q0 13 4 26z" />
<glyph unicode="B" d="M86 678q6 30 30.5 45.5t51.5 9.5v627h362q33 20 71.5 20t82.5 -20h14h9q160 -6 272 -78l80 -16q25 5 49 -1t35 -24q13 -18 13 -38v-11q-4 -26 -30 -39q-3 -1 -9 -2t-9 -2q45 -77 45 -170q0 -87 -43 -166t-125 -133q82 -54 125 -133t43 -166q0 -96 -53 -182q14 -16 35 -80 q0 -21 4 -25q12 -19 6 -39q-5 -16 -19.5 -27.5t-33.5 -11.5h-5q-19 5 -31 17.5t-15.5 23.5t-10.5 37v8q-4 0 -9 -2l-5 -2q-5 -3 -19.5 -10.5t-21.5 -11.5q-115 -70 -268 -76h-9h-530v584q-21 4 -27 8q-35 10 -51 34q-9 14 -9 29q0 11 5 23zM334 166h280q-2 4 -2 14 q12 39 47 39q3 3 9.5 6.5t15 8t12.5 6.5q55 27 84 36t51 3q33 -13 60 -60q96 63 96 162q0 53 -31 100.5t-92 77.5q-6 -49 -47 -70q-17 -9 -33 -9q-36 0 -67 46q6 -18 6 -43q0 -76 -68 -129q-41 -24 -69 -24q-19 0 -43 16q-37 24 -49 78h-7h3q-1 -1 -11 -4q-19 -9 -39.5 0.5 t-33.5 36.5q-8 20 -8 41q0 12 3 26q7 34 29 54q17 14 35 20h-131v-432zM334 844q26 0 65 -13q26 -5 43.5 -24.5t14.5 -42.5h223h14q141 4 217 68t76 147q0 84 -69 141q-7 -2 -15 -3.5t-15.5 -2.5t-10.5 -2q-35 0 -70.5 13t-54 24t-60.5 39l-10 6h-2h-59q13 -22 41 -59 q20 -30 29.5 -45t23.5 -42t18 -45t4 -40.5t-10 -42.5q-9 -39 -90 -76h-35l-47 6l-37 27q-6 15 -6 27q0 38 59 59v6q0 31 -59 116q-56 62 -66 109h-112v-350zM524 598q10 -4 19 -12q23 -15 30 -35v47h-49z" />
<glyph unicode="C" d="M80 418q10 29 35.5 44t52.5 9v434v13q6 105 50 191t112.5 139.5t153 82.5t175.5 29q103 0 191 -33q19 13 45 16q33 0 58.5 -20.5t29.5 -58.5v-11q157 -123 168 -331q14 -17 14 -43q1 -8 1 -16q0 -35 -22 -62q-28 -33 -73 -33q-75 -8 -106 -29v-20q-3 -18 -4 -24.5 t-7.5 -28t-13.5 -33t-21.5 -30t-32.5 -29t-46 -21t-62 -14.5q-25 -11 -53 -11q-45 0 -84.5 13t-63 28t-48.5 43t-33 40.5t-23 37.5q-54 14 -84 58q-8 19 -8 39q-1 19 7 39q14 40 54 63q29 9 57 9q58 0 111 -40q31 -28 52 -70q3 -6 8.5 -17.5t7.5 -15t6 -11.5t6 -9.5t6.5 -5 t8.5 -3.5t10 -1t12.5 0.5t15.5 3.5q13 0 13 19q7 31 14.5 53t23.5 47.5t39 44t60.5 35.5t87.5 28q-19 92 -78 148q-48 -114 -112 -123h-9q-28 0 -51 21t-29 47q-2 11 -2 21q0 42 35 65q15 33 23 47q-50 12 -99 12q-63 0 -119.5 -19t-103.5 -55.5t-74.5 -97t-27.5 -137.5 v-410v-8q40 32 96 32q9 0 19 -1h5q27 0 60 -20q36 -22 51 -77q4 -14 5 -30.5t0.5 -26.5t-2 -31.5t-1.5 -29.5q-2 -20 -2 -36q0 -46 13 -63q18 -3 34 -16q14 -2 47 -2q86 0 158 31.5t121 103.5t49 174h166q0 -113 -42 -205.5t-112 -150t-157.5 -88.5t-182.5 -31h-10 q-187 3 -325 119q-5 4 -15.5 13t-15.5 13q-28 -18 -59 -18q-14 0 -29 4q-82 6 -101 88q0 54 7 88q-3 25 4 47q-20 9 -29 27q-7 14 -7 28q0 4 1 9zM383 299q24 -32 39 -45v2v20q2 35 2 56.5t-2 29.5q-18 -10 -39 -63z" />
<glyph unicode="D" d="M72 535q0 73 75 120q3 2 9.5 6.5t9.5 6.5v692h532q9 0 15 -2q15 0 43 -4q16 -4 26 -6t23 -9q106 -37 178 -120v2q21 62 55 82t60 12q27 0 45 -20.5t18 -47.5q-10 -50 -63 -67q-3 -8 -5.5 -26.5t-6 -42.5t-5.5 -36q0 -2 -1 -6t-1 -6q74 -175 74 -383q0 -266 -109 -451 q-60 -103 -145 -161.5t-186 -65.5q-4 -2 -15 -2h-532v319q-20 20 -25.5 48.5t6.5 54.5v10h-8q-1 1 -14 11.5t-19 17t-15.5 19t-14 26t-4.5 29.5zM330 166h350q103 0 180 86h-6q-22 6 -80 41q-25 21 -53 33q-19 -35 -54 -35q-9 0 -18 2q-31 12 -43 42q-7 17 -6 35q0 15 4 31 q15 62 60 82q22 14 50 14q17 0 36 -5q-5 17 -5 32q0 22 11 41q14 32 40 42t52 -7q13 -6 23 -26.5t10 -41.5q8 -12 20 -24q3 -3 18.5 -15t24.5 -21.5t14 -20.5q29 116 29 229q0 62 -10 137q-24 -12 -55 -12h-13h4q-1 1 -10 2q-17 3 -31 8t-33 17.5t-34 36.5t-23 59 q-12 45 -12 157q0 62 -4 91q-26 13 -53 16q-10 -17 -39 -78q-23 -56 -45 -80q-30 -52 -73 -52q-13 0 -28 5q-27 9 -40 32t-5 48q10 42 56 53q16 29 24 54q3 10 10 20h-243v-320q31 6 61 -12q49 -27 49 -79q0 -11 -2 -23l19 -10q92 -45 102 -121q3 -13 3 -26q0 -59 -58 -114 q-60 -63 -121 -63q-19 0 -39 6h-10v-12q-1 -3 -2 -10.5t-2 -10.5v-233zM891 1063q0 -67 8 -94q3 -20 7.5 -24.5t15.5 -4.5q14 0 18 18l2 5q-22 58 -51 100z" />
<glyph unicode="E" d="M82 788q0 31 17.5 49.5t47.5 18.5q11 0 23 -4v508h242q20 33 69 33q51 0 86 -33h590v-68q12 -24 14 -39q0 -76 -49 -84q-7 -8 -12.5 -21t-10 -28.5t-7.5 -21.5q-50 -118 -115 -129h-6q-29 0 -51.5 21t-30.5 48q-2 11 -2 20q0 41 35 66q16 36 24 52l6 18h-329q3 -12 6 -44 t6 -38q36 -6 63 -33q0 17 13 37q13 23 42.5 28t49.5 -9q29 -19 29 -53q0 -10 -3 -21q12 -27 19 -53q8 -12 18 -32l11 -22q8 -36 -1.5 -61.5t-27.5 -36.5q-16 -16 -41 -16.5t-55 22.5q-5 3 -29 27q0 6 -6 6v-12q-1 -3 -2 -9.5t-2 -9.5q64 -14 114 -69q6 -5 27 -31h4v-4 q15 -19 29.5 -43t32 -56t26.5 -47q6 -10 21 -36.5t24.5 -42t22.5 -33t22 -23.5q2 6 2 14q0 37 -39 130q-35 106 -45 163q-1 9 -1 18q0 63 32 101q36 43 70 53q21 7 40 7q17 1 32 -5q32 -12 44 -47q7 -19 7 -38q0 -13 -4 -27q-10 -32 -37 -53q32 -107 34 -117q3 -10 14 -41 t16.5 -47.5t10.5 -43t5 -48.5q1 -13 1 -26q0 -62 -29 -102q-35 -48 -81 -63q-37 -15 -73 -15q-75 0 -144 68q-46 61 -98 164q-5 11 -19 36.5t-20 37.5h-92q4 -19 18 -62t20 -65q37 -130 37 -182q1 -14 1 -28q0 -58 -21 -95h440v-166h-987v664q-18 22 -29 38q-3 4 -9.5 14.5 t-8.5 12.5q-17 6 -29 23t-12 36zM336 166h178v2v6q0 55 53 88q0 36 -47 154q-31 136 -39 182h-145v-432zM336 895q24 24 55 33q17 7 36.5 6.5t34.5 -4.5t34 -13.5t29 -16t26 -17.5q5 -7 29 -21q6 12 6 39q14 63 20 78q-89 10 -119 86q-8 22 -14.5 65t-9.5 58v6h-127v-299z M393 764h101q-15 10 -17 12q-6 3 -25 15t-26 12q-17 -14 -33 -39z" />
<glyph unicode="F" d="M172 0v1360h985v-166h-819v-354h287q2 7 5.5 13t6 10t8.5 10.5t8.5 9.5t12.5 12.5t14 13.5q-56 12 -96 95q-4 15 -4 30q0 28 15 54q23 40 69 51q20 8 38 8q14 -1 26 -5q30 -10 46 -38q13 1 27.5 5t33 11.5t23.5 9.5q33 11 53 17t48.5 11t52 3t43.5 -12q20 -7 35 -20 t21 -23t17 -31q10 -20 10 -47q0 -26 -17 -64q-17 -39 -56 -71q-67 -44 -104 -53h47v-97q71 -10 106 -53q1 -6 7 -21t10 -28.5t3 -34t-10 -39.5q-2 -6 -4.5 -15t-4 -13.5t-5 -10.5t-8.5 -12q-20 -20 -51 -28q-15 -4 -30 -4q-17 0 -34 5q-21 9 -53 37q-3 4 -7 4t-7 -2l-2 -2 q-26 3 -83.5 5.5t-84.5 5.5q-109 37 -142 137h-270v-105q2 -1 7 -3t7 -3q14 -9 23.5 -22.5t14 -24t7 -30.5t3 -29t0 -33.5t-0.5 -30.5v-41q4 0 8.5 2t6.5 4l2 2q33 16 57.5 24.5t60.5 7.5t62 -23q19 -16 27 -38t9.5 -37t-7.5 -45t-12 -37t-17 -38q-16 -32 -16 -41 q0 -39 -25 -67q-23 -23 -57 -23q-35 0 -58 23q-25 28 -25 66q0 22 9 48q-39 -6 -64 -6q-14 0 -22 2v-176h-166zM752 201q0 41 53 67q31 17 70 17h12q-10 16 -10 33q0 21 16 42q11 20 37 26q9 2 17 2q17 0 34 -9q20 -6 29.5 -21t3.5 -34q12 0 12 -5q70 -29 74 -67q3 -8 3 -16 q0 -31 -42 -60q-44 -34 -87 -34q-13 0 -26 3h-8q0 -9 -5.5 -22.5t-6.5 -20.5q-6 -14 -24 -24t-38 -10q-3 0 -10.5 3t-15.5 3q-25 7 -35 26.5t0 38.5v6h-6q-1 1 -10 6.5t-13 9.5t-11 10.5t-10 14t-3 15.5z" />
<glyph unicode="G" d="M172 446v11v448v13q8 150 96 262q-74 45 -82 102q0 32 21.5 58t58.5 32q75 0 84 -49q13 -11 60 -27q116 64 254 64q191 0 329 -111q0 11 11 33q13 22 42.5 27t49.5 -9q29 -18 29 -55q0 -9 -1 -18q7 -26 19 -53q8 -12 16 -31t10 -23q4 -17 4 -32q0 -16 -5 -30 q-9 -25 -25 -36q16 -69 16 -137h-166q0 36 -6 71q-25 -51 -69 -61q-15 -5 -31 -5q-53 0 -115 52q-5 2 -25 14.5t-28 12.5q-13 -10 -32 -37.5t-28 -48.5q-3 -4 -12 -18.5t-12 -19t-11 -15.5t-13 -15.5t-12.5 -11.5t-15 -10t-16.5 -5q-8 -4 -20 -4q-55 0 -113 84 q-2 2 -8.5 13.5t-9.5 13.5q-17 6 -29 23t-12 36q0 31 18 49.5t49 18.5q13 0 24 -3.5t23.5 -14t17 -14.5t19 -21.5t15.5 -18.5h6q50 82 78 108q29 27 59 36q17 7 37 6.5t34 -4t34.5 -14t29 -16t27.5 -17.5q2 -4 6 -7.5t11 -7.5t9 -6q7 14 7 39q2 9 6 26.5t6 26.5 q-89 74 -227 74q-54 0 -113 -16v-7v-10q-4 -26 -24.5 -45.5t-45.5 -25.5q-11 -2 -21 -2q-23 0 -42 12q-80 -83 -80 -215v-373q22 11 42 11q29 0 56 -23q5 -8 51 -66q-22 81 -22 127q0 102 70 148q22 11 43 11q36 0 69 -30h53q-2 17 -2 33q0 35 12 61q19 37 38 41 q20 17 43.5 8.5t35.5 -36.5q11 -22 6 -47.5t-22 -40.5q4 -12 4 -19h344v-233v-13q-5 -85 -34.5 -158t-77.5 -125t-110 -89t-131 -54.5t-142 -17.5h-11q-185 3 -323 119q-146 119 -158 327zM330 375q17 -8 24 -6q31 -99 117.5 -151t192.5 -52q64 0 121.5 19t104.5 55.5t75 97 t28 137.5v49h-129q1 -4 2 -12t2 -12q2 -15 2 -28q0 -67 -51 -118l-2 -2q-12 -9 -28.5 -14t-45 4.5t-55.5 40.5q-5 4 -10 9.5t-10 13.5t-8.5 14t-8.5 17t-7.5 16t-8 18t-6.5 16q-28 56 -47 78q0 -19 18 -88q21 -88 21 -131v-10q-4 -53 -39 -86q-29 -23 -58 -23h-8 q-26 3 -51 31q-25 15 -59 74q-3 1 -12 10t-25 18t-39 15z" />
<glyph unicode="H" d="M59 315q0 87 54 109q26 15 57 -2v739q-39 7 -59 56q-15 25 -11 51t27 41q25 11 43 8v43h166v-33q43 -14 80 -51q51 -51 51 -102q0 -41 -33 -82q0 -7 21 -21q19 -19 22 -41q61 25 158 25q16 10 16 20l2 6q-28 40 -26 49q-11 11 -15 13q-25 4 -54.5 15t-61.5 31.5t-46 54.5 q-7 17 -8 36q0 18 7 39q13 43 57 63q31 14 69 14q18 0 37 -3q39 -6 67.5 -26t39.5 -48l6 -2q29 -9 56.5 -22t63 -36.5t58.5 -61t27 -83.5q32 -16 51 -10q4 2 10 14v242h166v-105q3 -4 9.5 -11t9.5 -11q4 -3 10.5 -13t9.5 -12q13 3 26 -10t17 -37q2 -26 -6.5 -50t-22.5 -28 q-26 -16 -53 11v-346q64 -28 80 -74q3 -7 9 -19.5t8.5 -21t2.5 -19.5v-8q-3 -28 -20.5 -56t-44.5 -42q-8 -2 -35 -8v-500h-166v373q-2 -1 -5 -4t-5 -4q-29 -12 -45 -17q5 -19 5 -44q0 -39 -13 -93q0 -5 -3 -23.5t-3 -23.5q4 -17 4 -34q0 -29 -13 -54q-4 -20 -24 -32.5 t-39 -12.5q-14 0 -41 16q-21 14 -31.5 36t-12 39.5t-1.5 51.5q-33 -21 -61.5 -21t-42.5 9t-23 22q-31 20 -31 80q-12 -12 -31 -12q-13 -23 -34 -29q-11 -5 -22 -5.5t-19.5 1t-18.5 8.5t-16 12t-15.5 16.5t-13 16t-12 18t-10.5 15.5q-9 15 -21 27q-7 -22 -20 -58 q-14 -50 -37 -92v-182h-166v90l-2 -2q-16 -6 -35 -6q-44 0 -59 33q-10 19 -10 46t10 46q0 4 -4 21t-4 20q0 14 -3.5 34.5t-3.5 32.5zM336 492q8 8 31 16q13 5 26 5q58 0 119 -97q0 -1 6 -13q14 17 47 29q14 10 25 33q37 42 59 57q-4 18 -4 72l-10 -6q-22 -10 -52 -10 q-35 0 -81 14q-48 25 -58 82h-108v-182zM336 907l4 4q2 1 7 4.5t7 4.5q1 0 11 2q17 30 22 36q-7 6 -14 9q-22 18 -37 37v-97zM870 580q18 0 76 67q4 4 12.5 13.5t12.5 13.5h-90q-17 -53 -17 -76q0 -15 6 -18zM934 975q13 -36 13 -79q0 -13 -1 -26l-6 -30h51v133 q-29 -9 -57 2z" />
<glyph unicode="I" d="M92 836q-4 16 -4 32q0 31 16 62q16 34 46 49q19 9 39 9q12 0 26 -3q8 8 15 19.5t10.5 20.5t9 24t8.5 22q2 3 13 24.5t15.5 29t14 23t18 26.5t17.5 20h-166v166h987v-166h-412v-264h37q20 -10 31 -19q-2 20 2 50q6 6 6 26q-8 14 -7.5 30.5t7.5 35.5q12 20 35 24t45 -8 q16 -7 25.5 -25.5t9.5 -37.5q27 14 48 14q16 0 30 -8q14 -6 22.5 -18.5t11.5 -22.5t7 -29q22 17 44 17l36 -11q9 -6 15.5 -14.5t10 -15.5t5 -20.5t2 -20t0 -23t-0.5 -20.5q-6 -12 -6 -29q13 -26 6 -45q-16 -41 -57 -41h-8l-8 6q-34 13 -45 61q-21 -15 -48 -15q-15 0 -32 5 q-33 18 -33 76q-30 -19 -47 -21q14 -24 14 -45v-8q-3 -26 -21 -54t-44 -42q-18 -6 -33 -6q55 -44 76 -58q8 -6 32.5 -25.5t34.5 -28t30.5 -27t32 -32t26 -34t24.5 -41.5q19 -38 24 -74q2 -13 2 -25q0 -22 -6 -41q-9 -30 -19 -49t-26 -42q-24 -29 -24 -33h49q22 4 44.5 4 t43.5 -4h8v-2q42 -11 60 -41q7 -12 7 -26q0 -13 -6 -27q-12 -28 -42 -41h-19v-29h-987v156q-5 -1 -10 -1q-32 0 -54 42q-7 20 -7 41q1 13 3 25q8 33 29 54q36 28 66 28q25 0 47 -19q22 -14 32 -35v51q0 81 56 121q23 20 46 26.5t38.5 2.5t25.5 -13l10 -6t9.5 -7.5l7.5 -7.5 t7 -9l6 -9t5 -10.5t4.5 -9.5t4.5 -10t4 -9l6 -6q41 0 55 -61q9 -32 -3 -60.5t-40 -42.5q-17 -10 -33 -10q-35 0 -67 45q6 -16 6 -43q0 -30 -12 -57h168v354q-35 -9 -67 -9q-72 0 -132 46q-69 91 -79.5 117t-10.5 92q-26 -16 -62.5 -16t-81.5 16q-42 24 -55 70zM516 752 q14 0 35 24q-14 52 -19 88q-22 -66 -22 -94q0 -14 6 -18zM745 166h103l2 10q4 29 37 84q17 28 23 39q6 12 6 35q0 22 -13 47q-16 36 -46.5 65t-82.5 64q-6 4 -29 22v-366z" />
<glyph unicode="J" d="M94 270q0 59 58 72q2 3 28 29q-10 55 -10 104v84h166v-78q20 -1 41.5 -12t31.5 -18t34.5 -30t25.5 -24q2 -9 12 -20.5t13 -16.5q18 29 28 52q60 115 131 129q18 8 37 8q44 0 94 -41q0 85 52 110q21 6 35.5 7.5t35.5 -6.5t36 -15.5t36 -21.5q0 -4 6 -4v40q0 11 4 27v57 q-59 12 -101.5 36t-66.5 52t-37.5 66.5t-17.5 72t-4 77.5v18h-21q-22 9 -31.5 9t-17.5 -9q-10 -29 -20 -41q-3 -24 -14 -54t-31 -62t-54 -46q-17 -7 -36 -7t-39 7q-43 10 -64 55q-14 32 -14 73q0 16 2 34q17 89 76 107l2 6q19 59 43 98h-74v166h686v-885q0 -113 -42 -205.5 t-112 -150t-157 -88.5t-182 -31h-11q-187 3 -325 119q-58 49 -95 110q-29 -26 -69 -26q-30 0 -49 18.5t-19 48.5zM158 707q6 16 24 22v4q-14 33 -6 58q14 48 64 57q20 8 37.5 8t31.5 -8q29 -17 45 -66v-10q18 5 35.5 -6t20.5 -33q3 -17 -9 -32t-34 -19q-13 -2 -24 -2 q-45 0 -67 35v-8q-8 -47 -61 -62q-2 0 -6.5 -3t-7.5 -3q-13 0 -25.5 10.5t-17.5 24.5q-4 9 -4 17t4 16zM465 221q85 -55 197 -55q122 0 213.5 66t109.5 192q-21 6 -59 29q0 -107 -70 -134q-12 -4 -25 -4q-48 0 -106 62q-20 5 -35 35q-7 -6 -16 -18.5t-20 -30.5t-13 -21 q-2 -4 -10 -16.5t-11 -17t-11 -16t-12 -16.5t-12 -14.5t-13.5 -14t-13.5 -11t-15.5 -9.5t-16.5 -6t-18 -4q-20 -3 -43 4zM913 1194q41 -64 41 -170v-29q8 0 35 -12v211h-76z" />
<glyph unicode="K" d="M105 1073q0 44 36 80q14 17 27 25v182h166v-94q78 86 139 90q10 2 20 2q32 0 67 -21q2 -1 7 -4l6 -4q17 -11 31 -35q13 -24 19 -64q1 -10 1 -20q0 -33 -14 -71q-35 -71 -71 -105q-5 -9 -30 -47t-36 -62t-4 -32q9 -2 24 5t35.5 20.5t28.5 17.5l8 6l342 391l6 6l19 21h31 h14h178l-147 -168h-2l-209 -240q24 -27 26 -63q1 -9 4.5 -21.5t4 -17t-0.5 -19.5q-8 -26 -32 -49t-56 -30q-6 -2 -17 -1.5t-15 1.5t-15 3t-16 3h-1q-10 0 -95 -47l-25 -31l215 -246q4 8 17 38t20 43.5t20 35t27 33t31 16.5q12 4 25 5q59 0 120 -99q10 -20 23 -33 q43 -14 51 -57q2 -12 2 -23q0 -23 -9 -43q-13 -28 -38 -37q-9 -4 -18 -5t-16 -0.5t-15.5 4.5t-14 7t-13 11t-11.5 12t-11.5 14t-10 13.5t-9.5 14.5t-8 13q-16 21 -21 25q-8 -25 -20 -57q-2 -5 -7.5 -23.5t-8.5 -26.5l129 -147l147 -168h-223l-62 70l-147 170 q-14 -35 -33 -62q-14 -6 -33 -6q-25 0 -38.5 7t-22.5 26q-10 19 -10 46t10 46q0 4 -4 21t-4 20q0 15 -3 34t-3 27l-174 199h-74v-598h-166v977q-25 15 -29 18q-34 32 -34 78z" />
<glyph unicode="L" d="M76 918q18 52 67 75l9 13q-1 0 -11 6l-5.5 27.5t-6 37.5t-1 36.5t8.5 41t23 35.5l6 6v164h166v-109q5 -1 13.5 -2t12.5 -2q94 -6 152 -76q31 111 139 144q24 13 51 13q24 0 50 -11q54 -23 75 -78q13 -32 13 -60q0 -57 -52 -98l11 -28q15 -33 25 -68q8 -29 8 -66v-16 q-2 -47 -25 -82q-50 -87 -191 -102h-10q-168 0 -227 98l-10 6q-9 -11 -35 -28v-230q44 25 83 25q22 0 42 -8q28 -16 39 -46q5 -14 5 -30q0 -18 -7 -39q-16 -28 -38 -42t-44 -7q-18 -6 -64 -45q-3 -2 -8 -6.5t-8 -6.5v-194h293q1 2 4 5t4 5q43 64 43 98q-6 11 -14 15 q-40 51 -51 84q-8 25 -8 51q0 59 42 125q8 23 27 47q28 34 63.5 55.5t61 30t63.5 8.5t51 -1t43 -5q44 27 91 27h10q38 -11 59 -49q16 -28 16 -60q0 -11 -2 -22q-38 -89 -131 -109q-13 -1 -26 -1q-30 0 -60 5q-51 12 -63 9.5t-37 -31.5q4 -4 4 -8.5t-2 -7.5l-2 -3l8 -4 q29 -39 43 -70q15 -32 16 -84q0 -50 -24 -110h299v-166h-987v332q-28 26 -28 64q0 12 3 26q12 24 25 37v286q-27 10 -45 25q-5 5 -14.5 22t-20.5 27q-17 29 -17 60q0 19 7 39z" />
<glyph unicode="M" d="M122 1192q10 34 36 51q8 4 14 4v113h166l35 -119q16 93 80 115q13 4 25 6q4 0 7 1l17 -3q12 -4 21 -5.5t20.5 -11t17.5 -14t17.5 -18t14.5 -17.5t15 -19.5t13 -17.5q3 -4 6.5 -10t6 -10t6 -8t7.5 -6q35 -21 45 -54q9 -36 -8 -61q-13 -31 -49 -37q-12 -3 -24 -3 q-47 0 -85 46q-8 -26 -14.5 -42.5t-23 -35.5t-39.5 -26l-5 -2l74 -246q39 -3 80 -19q42 -9 66 -49q15 -25 16 -50q0 -16 -6 -32q-15 -78 -82 -92l55 -186q10 30 37 49q8 4 12 4l105 342q-4 -2 -8 -10q-14 -8 -33 -8q-47 0 -62 34q-10 17 -10 45.5t10 47.5q0 4 -3 21t-3 18 q0 15 -4 36t-4 33q0 82 53 109q11 6 22 7.5t23.5 -5t19.5 -11t21.5 -20t19 -20.5t21.5 -25q6 -10 8 -12l119 391h166v-344l2 -2q45 -13 51 -60q2 -12 2 -23q0 -23 -8 -42q-12 -29 -37 -35l-10 -4v-551q6 -6 8 -10q14 -14 14.5 -39t-8.5 -39l-6 -8q-1 -1 -4 -3t-4 -3v-197 h-166v143q-19 -36 -59 -41q-11 -5 -24 -5q-26 0 -60 20q4 -13 -10 -41q-24 -24 -58 -24q-8 0 -16 1l-16 -53h-166l-117 389q-16 -16 -35 -24q-53 -35 -92 -35v-330h-166v383q-37 33 -37 76q0 18 6 37q5 31 31 57v537q-27 9 -49 40q-6 14 -6 31q1 15 5 31zM338 659l4 9 q6 14 27 39l-31 100v-148zM881 442h2q13 3 26 3q38 0 82 -25v387z" />
<glyph unicode="N" d="M172 0v1360h166l268 -430q4 2 12.5 6t12.5 6q21 13 51 19q11 2 23 2q23 0 54 -7q47 -11 85 -49q11 -11 20.5 -24t19.5 -29.5t15.5 -27t17 -32.5t15.5 -30q20 -53 59 -96v692h166v-1360h-166l-69 111q-34 -4 -60 -9q-59 0 -71 -6q-21 -57 -66 -57q-32 0 -51 22t-19 60 q0 10 3 23t11 33t27.5 38t48.5 29q21 10 86 14l-120 193q-25 -100 -115 -127q-37 -18 -72 -18q-60 0 -112 54q-4 9 -18 33.5t-23 43t-15 36.5q-8 10 -18 31v-504h-166zM338 721q22 7 42 7q72 0 116 -89q-1 28 -1 51q0 59 7 94l-164 265v-328zM543 1149q0 29 19.5 49.5 t43.5 30.5q35 21 77 21q11 0 22 -1q-13 22 -13 43q0 25 19 49q15 25 45 33q10 2 20 2q20 0 41 -10q42 -14 43 -53q0 -7 -2 -15l14 -6q79 -29 89 -82q2 -7 2 -14q0 -38 -50 -80q-54 -41 -105 -41q-16 0 -32 4h-8q0 -11 -16 -51q-6 -17 -27.5 -29t-46.5 -12q-2 0 -12 3t-21 3 q-29 9 -40 33t1 49v4h-8q-1 1 -11.5 8t-15.5 11.5t-13 13t-11.5 18t-3.5 19.5zM887 481l88 -143l4 4l12 6v103q-9 -1 -18 -1q-48 0 -86 31z" />
<glyph unicode="O" d="M95 662q-5 17 -5 33q0 30 16 61q20 47 68 57q9 98 32 179t53.5 136.5t71 98t81 67.5t87 40.5t85 20.5t78.5 5q72 0 139 -19q12 18 35 31q15 5 30 5q17 0 33 -6q31 -11 47 -44q10 -25 10 -47q0 -9 -2 -18q199 -165 199 -582q0 -198 -47 -344q25 -14 33 -55q9 -32 -3 -62 t-40 -43q-18 -9 -34 -9q-18 0 -34 11q-5 -6 -14.5 -18.5t-14.5 -18.5q-13 -60 -65 -100q-42 -25 -70 -25h-8q-14 4 -27 13q-74 -29 -167 -29h-7q-41 0 -80 6.5t-86.5 23t-88 43.5t-81 72.5t-70.5 105t-51.5 145.5t-27.5 190l-18 6q-43 24 -57 70zM367 406q24 -85 67 -140 q78 -100 228 -100h16q-2 12 -2 23q0 45 33 75q35 27 65 27q25 0 47 -19q24 -16 31 -34v51q0 80 55 121q31 25 56 28q24 102 24 242q0 249 -76 377q-13 -44 -49 -64l-8 -2l-10 -2q-25 -6 -49 5.5t-39 31.5q-14 24 -14 47q0 24 16 47q1 9 2 28.5t2 27.5v4q-43 14 -100 14h-13 q-138 -3 -215 -98q-7 -6 -20 -29q10 2 19.5 3t20 -0.5t17 -2.5t18.5 -4t17 -4q36 -15 66 -63q24 -38 24 -95q0 -15 -2 -31q-1 -2 -4 -17t-3.5 -18.5t-3.5 -16t-5 -17.5t-5 -15t-6 -16t-7 -13.5t-9 -13.5q-3 -11 -10.5 -33t-13.5 -41.5t-11.5 -39t-4.5 -33t7 -16.5 q24 0 76 67q35 39 57.5 59.5t58.5 37.5q28 13 57 13q8 0 17 -1q3 -2 21.5 -9.5t30 -14t26.5 -22t23 -36.5q3 -8 9.5 -19.5t9.5 -20.5t3 -20v-8q-3 -27 -21.5 -55t-45.5 -43q-19 -6 -68 -10q-5 0 -8 -3t-4 -7v-3q-22 -18 -67 -61t-64 -59q-59 -26 -112 -26q-10 0 -20 1 q-62 6 -114 43z" />
<glyph unicode="P" d="M84 475q0 26 22 47t56 21h6h2v112q-2 2 -7 5.5t-7 5.5q-34 32 -34 78q0 43 34 77q6 9 14 17v522h530h11q131 -7 227.5 -70.5t151.5 -165.5h9q38 0 68 -24q19 -16 27 -38q10 -27 10 -41.5t-8 -40.5q-9 -30 -12 -37t-17 -38q-2 -4 -6.5 -12t-5.5 -12v-15q0 -91 -29 -175.5 t-82.5 -154t-140 -113.5t-192.5 -50h-11h-110q-29 -16 -58 -29q-27 -6 -52 -6q-61 0 -113 35h-31v-97q0 -8 4 -16q55 -20 55 -65q0 -58 -59 -68v-127h-166v352q-4 48 -8 56q-31 7 -54.5 25t-23.5 42zM336 920q29 33 47.5 51t47.5 35.5t58 19.5q11 2 20.5 3t20 -2t15.5 -3.5 t17 -7.5t13 -7.5t15 -9.5q16 -11 30 -34t20 -65q2 -11 1 -21q0 -33 -14 -70q-35 -72 -72 -104q-5 -8 -30 -47t-36 -63t-4 -32q2 0 4 -1q8 0 20 6q15 7 35.5 20.5t28.5 17.5q21 15 37.5 25t38 19.5t40 13.5t40 3t41.5 -10q1 -1 19 -15t31 -30t18 -37q69 39 107 110.5 t44 156.5q-6 22 0 47q-2 8 -2 22q-26 -9 -60.5 -6t-60.5 25q-27 18 -40 54t-15 63t-2 77v45q-58 25 -127 25h-346v-274z" />
<glyph unicode="Q" d="M134 916q10 22 36 32v2q-12 31 -12 55q0 14 4 25q2 10 10 25v119q0 76 53 129t129 53h621q75 0 128.5 -53t53.5 -129v-721q0 -47 -35 -68l-108 -78l129 -180l47 -68l-66 -47l-2 -2h-2l-63 -47l-49 68l-129 180l-279 -201q-16 -10 -41 -14h-4h-10h-191q-76 0 -129 53.5 t-53 128.5v649q-27 10 -37 41q-5 13 -5 25t4 23zM338 178l2 -8q4 -8 14 -8h82v20q0 5 -3 8.5t-6 3.5l-3 1q-14 18 -45.5 52t-40.5 44v-113zM338 557q81 58 104 67t82 9l-4 10q-9 22 -9 50q0 33 13 73q24 40 68 52q14 5 29 5q29 0 57 -16q33 -13 47.5 -41t5.5 -61 q10 -9 23.5 -16.5t31 -15.5t23.5 -11q40 -18 65 -32t51.5 -39.5t35.5 -53.5q16 -26 12 -56l18 15v424q-1 -1 -2 -4.5t-2 -4.5q-1 -3 -8.5 -18t-7.5 -23q0 -42 -25 -67q-23 -23 -55 -23h-12q-25 3 -45 23q-27 29 -27 66q0 23 10 49q-24 -7 -57 -7h-8q-39 1 -64 23 q-27 19 -40 55.5t-15 63.5t-2 77v58l-2 2h-275l-8 -2q-8 -3 -8 -14v-62l6 -2q41 -27 62 -92v-12q0 12 6 2q58 14 88 14t30 -15q0 -17 -47 -57q5 -22 -12 -42.5t-47 -26.5q-18 -3 -33 -3q-32 0 -53 13v-334zM512 422q0 -4 2 -9t7 -11t9.5 -11t12 -12t12 -11t13 -11t10.5 -9 q65 -61 81 -92l123 88l-4 6q-89 26 -112 41q-11 3 -31.5 9.5t-39 12.5t-37 11t-31 4.5t-15.5 -6.5zM793 1090q4 0 8 2t6 4l2 2q62 32 109 32q40 0 69 -24l4 -4v72l-2 8q-5 8 -14 8h-182v-60v-40z" />
<glyph unicode="R" d="M80 1028q0 28 13 47t34 19q19 0 39 -13v279h532h11q144 -8 254 -88q9 4 17.5 5t17 -2t14.5 -5.5t14.5 -10.5t12.5 -12t13.5 -14.5t12.5 -13.5q0 -7 12 -19q7 0 17.5 -8t15.5 -16q9 -17 9 -34q0 -22 -15 -46q49 -107 49 -230q0 -108 -41 -211q2 -11 2 -21q0 -50 -45 -108 q0 -12 27 -26q27 -28 31 -60q1 -4 1 -8q0 -28 -22 -53q-32 -35 -72 -35l-10 2q-8 2 -21 8t-18 8q-47 41 -65 70q-8 -5 -31 -14l241 -418h-192l-152 262q-6 -54 -20 -90q-33 -106 -129 -106h-10q-102 11 -129 120q-13 49 -13 158v29h-96q-25 -60 -43 -80l-14 -21v-272h-166 v920l-6 8q-4 6 -17.5 20.5t-15.5 18.5q-21 0 -34 17.5t-13 43.5zM332 539h4q52 73 122 73q19 0 40 -6q57 -14 82 -67h100q21 0 53 4q30 34 60 34l20 -4l14 -2q51 25 91 78q-15 13 -33 13q-17 -7 -33 -17q-2 -1 -9 -5t-9 -5.5t-8.5 -5t-10 -5t-9.5 -4t-11 -3.5t-11.5 -2.5 t-13.5 -2t-14 -0.5q-87 0 -121 76q-16 24 -16 50q-1 8 1 16q6 34 37 53q28 12 50 12q34 0 55 -28q24 14 42 23q18 8 48 16q20 6 41 6q11 0 23 -2q34 -4 67 -23q4 36 4 55q0 65 -22 133l-11 -4q-12 -5 -24 -4.5t-20.5 3t-21.5 12t-18 13.5t-18 17q-29 31 -45 31q-4 0 -8 -2 q-11 -4 -45 -59q-18 -27 -26 -38.5t-26 -33t-36 -32t-37 -13.5q-24 -3 -52 8t-44.5 22t-45.5 33q-6 4 -15.5 10.5t-16 11l-13 9t-12 6.5t-8.5 2q-16 0 -57 -57q-20 -28 -33 -41v-354zM332 1065q45 48 84 51q54 0 119 -55q8 -5 21.5 -14.5t22.5 -15t20 -10.5t19 -5q4 0 8.5 2 t9 6.5t8 8.5t8.5 11.5l8 12t8.5 13.5t7.5 13q49 80 86 101q-42 10 -82 10h-348v-129zM608 344q0 -92 6 -117q4 -20 8.5 -24t14.5 -4q14 0 20 18q19 67 19 127q1 5 2 14.5t2 14.5h-72v-29z" />
<glyph unicode="S" d="M74 399q0 60 57 72q19 19 33 35q77 104 145 104q17 0 33.5 -5t32.5 -16t25.5 -18.5t26.5 -23.5t22 -21q2 -6 5 -10.5t5.5 -7.5t7 -8.5t8.5 -10.5q3 5 13.5 24.5t13.5 27.5q16 32 37 59q-55 3 -99 29q-43 15 -65 26q-7 -5 -23.5 -14.5t-25.5 -15.5q-22 -13 -52 -13h-10 q-36 2 -61 23l-8 13q-8 13 -19 20q-13 21 -13 43q-1 14 5 28q14 37 53 54q-12 20 -16 30q-32 14 -45 50q-6 17 -6 33q0 19 8 38v8h-10q-1 1 -11.5 10t-15 13.5t-13.5 15t-13.5 19t-8.5 21.5t-4 26q0 77 76 121q38 30 84 30h8q6 9 12 15q-7 22 -7 44q0 41 24 79q13 34 49 46 q13 4 26 5q22 0 45 -13q34 -18 46 -53q89 29 192 29h4h14q192 0 332 -96q6 3 21 8q13 5 24 6.5t20 -1t16 -5t14.5 -10t10.5 -11t10.5 -13t8.5 -11.5q26 -33 26 -72q0 -28 -14 -59q25 -64 25 -135v-84h-82l-8 -50q43 -14 49 -53q0 -33 -6 -47v-16v-18v-21.5t-1 -20.5 t-3.5 -23.5t-6.5 -20.5t-10 -21q57 -78 66 -168q2 -6 2 -19v-8v-10q0 -96 -53 -182q-4 -18 2 -29q8 -24 8 -43q0 -16 -6 -27q-12 -33 -43 -45l-10 -4q-23 -6 -52 4q-14 5 -28 19q-125 -74 -293 -74h-4h-15h-10q-183 3 -319 94q-137 92 -158 242q-20 -4 -29 -4q-31 0 -50 19 t-19 48zM332 389q4 -73 54.5 -125.5t121 -75t151.5 -22.5q39 0 80 6q-24 32 -55 104q-2 5 -6 16t-8 20.5t-8 15.5q-35 25 -35 76v8q10 31 37 51t59 14l18 -6q-7 6 -36 35q-11 3 -35 35q-6 -6 -14.5 -19t-19 -29.5t-13.5 -21.5q-3 -4 -13.5 -20.5t-14.5 -22t-14 -19 t-16 -19.5l-16 -16t-18.5 -14.5t-19.5 -8.5t-22 -5q-20 -2 -38 2t-34 15t-26 19t-26 24.5t-21 21.5l-12 12v-41v-10zM446 958q34 -11 60 -40q26 83 106 102q19 9 39 9q19 0 40 -8q42 -16 59 -54q9 -22 9 -42q0 -41 -42 -69l10 -22l4 -9q18 -29 21 -65q28 -2 67 -10 q14 5 29 5q47 0 110 -44l9 -4q-3 0 -4.5 1t-1.5 6t1.5 12t4.5 22q0 21 8 34q-6 21 -6 33v25l8 41l-31 73v11q2 31 25 75q-13 28 -35 54q-60 -37 -101 -37q-16 0 -28 6q-30 10 -55 67v25l2 31q-41 8 -95 8q-43 0 -98 -10q6 -10 10 -33q3 -13 3 -25q0 -58 -58 -116 q-35 -35 -70 -52zM770 453q9 -8 16.5 -17.5t14.5 -23t11 -22t11.5 -26.5t10.5 -24q1 -2 16 -37q4 1 7 4t4 5l1 3q21 24 35.5 38t39.5 28.5t50 15.5q-10 87 -86 140q-11 -68 -65 -88q-12 -4 -26 -4q-19 0 -40 8z" />
<glyph unicode="T" d="M145 840q0 21 27 39v481h164q43 48 102 48q22 0 47 -7q41 -13 72 -41h602v-483h-166v43q-8 8 -10 12v-10q-3 -24 -20 -41l2 -7q11 -19 12.5 -39t-1.5 -31.5t-11 -33.5q-10 -32 -55 -62q-36 -24 -90 -23q-13 0 -27 1q-7 2 -22.5 5t-22.5 5v-139q24 10 44 10q33 0 54 -28 q23 14 39 22t48 17t59 6t64 -20.5t72 -51.5q69 -67 69 -133q0 -54 -46 -107q0 -10 29 -24q26 -28 30 -60q0 -4 1 -8q0 -28 -21 -53q-30 -35 -72 -35q-8 0 -16.5 3.5t-18 8.5t-14.5 7q-51 43 -75 83q-23 37 -23 69v5q2 34 12 57.5t31 51.5q0 3 -4 7t-4 9q-19 17 -37 17 l-33 -17q-2 -1 -9 -5.5t-9 -5.5t-8.5 -4.5t-10 -5t-10 -4t-11.5 -3.5t-11.5 -2.5t-13.5 -2t-15 -0.5q-57 0 -90 31v-22q50 0 86 -27q2 -2 7 -9t8.5 -12t7.5 -14.5t5 -19.5v-7q0 -28 -22 -55q-11 -30 -64 -69q-2 -5 -28 -31v-125h-166v190q-11 -4 -41 -8q-21 -3 -40 -3 q-76 0 -116 52q-11 13 -17 29.5t1 45t34 56.5q34 39 74 64l-4 2q-54 -26 -90 -31q-31 -9 -56 -9q-10 0 -18 1q-31 5 -48 15t-21 20q-21 21 -15.5 43.5t31.5 38.5q20 15 45.5 14t44.5 -18q6 3 35 16.5t37 18.5q-14 21 -32.5 43t-39.5 45t-27 30q-26 50 -26 104q0 20 4 40 q-9 0 -21 4h-6q0 -7 -3.5 -16.5t-4.5 -12.5q-3 -10 -15 -17t-26 -7q-1 0 -6.5 2t-11.5 2q-17 4 -23.5 18.5t0.5 26.5v4h-4q-31 15 -31 37zM338 913q6 -2 18 -10q68 50 91.5 58t82.5 8l-4 8q-10 22 -10 59q-45 52 -45 158h-55q-2 -6 -8 -18q-4 -30 -22 -66t-48 -49v-148z M518 760q0 -18 64 -74v72q-30 8 -46 8q-14 0 -18 -6zM520 297q8 1 62 20v31q-55 -44 -62 -51zM748 1034q15 -12 67 -35q37 -18 72 -36l-2 4q-8 20 0 39q14 48 61 57q21 8 47 8v123h-245v-160z" />
<glyph unicode="U" d="M111 553q-4 16 -4 31q1 24 11 48q18 38 56 52v434l-8 4q-38 21 -38 84q0 18 3 39q6 4 6 27q-9 14 -9 30t9 35q11 17 29 23q9 3 17.5 3t17.5 -3h139v-70q19 -13 31 -63q21 17 43 17q18 0 37 -11q9 -6 15.5 -14.5t10 -16t5 -21t2 -20t0 -23t-0.5 -20.5q-6 -10 -6 -28 q13 -26 6 -48q-17 -38 -57 -38h-8l-8 4q-35 14 -48 63q-9 -9 -22 -12v-395q24 9 45 16q82 30 137 30q35 0 60 -12q20 -6 35 -19t21 -22.5t17 -31.5q10 -19 10 -46q0 -26 -17 -65q-17 -40 -56 -72q-71 -46 -117 -55q-12 -7 -50 -26.5t-54 -30.5q3 -4 10.5 -18t13.5 -21 q9 0 25 1t22 1q27 2 52 2q38 1 67 -5q48 -10 78 -50q1 -3 6 -16t9 -27.5t5 -30.5h7q63 0 120.5 19t104.5 55.5t74.5 97t27.5 137.5v551q-39 8 -49.5 4t-34.5 -33q3 -4 3 -8t-2 -6l-1 -2l6 -6q28 -35 42 -65q13 -30 19 -74q1 -10 2 -19q0 -37 -16 -82q-20 -57 -65 -129 q-29 -34 -71 -43q-11 -2 -22 -2q-28 0 -50 17q-39 25 -46 66q-1 8 -1 15q0 32 24 62q43 69 43 100q-6 9 -14 15q-39 49 -50 78q-10 27 -10 55q0 60 43 127q6 19 25 45l10 10q78 87 193 87q11 0 22 -1v123h166v-107q35 -13 55 -49q14 -27 15 -57q0 -11 -2 -23 q-26 -59 -68 -84v-1040h-166v111q-135 -111 -327 -111h-11q-153 3 -274 82q-17 1 -52.5 2t-52.5 2q-64 22 -102 68t-49 106q14 89 22 116.5t29 51.5q0 10 -2 16v11v18q-33 23 -63 80z" />
<glyph unicode="V" d="M166 276q0 88 53 109q9 5 20 5q40 0 100 -71q5 -5 7 -8q6 -8 12 -18v10q41 97 62 127l-227 510q-21 24 -21 51v369h166v-135q32 -42 65 -185q1 -5 2 -7t1.5 -6t1.5 -7q3 -12 11 -46t12.5 -50t13 -45.5t16 -48.5t18.5 -41.5t23 -40.5q13 -18 31.5 -34t30.5 -25t42 -23 t37.5 -17t44.5 -18q81 -40 111 -58l73 164q-2 -4 -6 -11t-6 -11q-30 -34 -70 -43q-11 -3 -22 -3q-27 0 -49 17q-39 25 -47 66q-2 9 -2 17q0 32 24 60q11 26 11 50q0 7 -1 13q-4 30 -12 71t-16 77q-4 19 -4 41q0 19 4 39q6 44 31 84q109 135 254 134q16 0 32 -1v23h80 q17 5 31 5q6 0 12 -1q2 -1 6 -2t6 -2h31v-21q34 -34 34 -79q0 -13 -3 -27q-13 -32 -29 -51v-191q0 -28 -20 -51l-219 -487q20 -38 20 -82.5t-20 -96.5q-18 -31 -17 -34q19 6 45 10q51 19 87 19q42 0 65 -25q17 -22 12.5 -48.5t-29.5 -48.5q-19 -8 -30 -8h-6q-6 -1 -51 -11 q-46 -12 -77 -16q-13 -2 -27 -1q-21 -1 -46 3q-42 6 -66 31l-34 -79q-2 -9 -15 -31l-2 -4q-16 -19 -43 -29h-6q-4 -2 -14 -2h-2h-4h1h-6h3h-5q-33 6 -55 31l-2 6q-9 12 -12 26l-94 207q-2 -5 -13 -34q-18 -60 -36 -92t-50 -44q-19 -11 -41.5 -2.5t-38.5 29.5 q-10 -35 -39 -78q-14 -6 -32 -6q-47 0 -62 33q-10 19 -10 46t10 46q0 4 -4 21t-4 20q0 14 -3 34.5t-3 32.5zM549 537l82 -181q2 -2 5 -6t5 -6q28 -10 41 -29l55 123q-36 34 -125 70q-11 4 -32 14.5t-31 14.5zM899 793l96 213v120q-10 0 -22 4q-37 -15 -42.5 -61t-6.5 -127.5 t-25 -148.5z" />
<glyph unicode="W" d="M86 1137q8 34 31 53q33 26 55 29v59h-2v82h166v-10q30 16 52 16h4q22 -2 36 -14q11 -6 20.5 -16t14 -17.5t12.5 -23t10 -19.5l4 -8q41 0 56 -60q10 -32 -1.5 -61t-39.5 -43q-17 -9 -33 -9q-36 0 -70 44q9 -18 9 -41q0 -74 -68 -129h-2l141 -568l45 170q-30 22 -57 66 q-12 20 -18 29q-18 6 -29.5 22.5t-11.5 36.5q0 31 17 48.5t48 17.5q20 0 38.5 -11.5t26.5 -20.5t27 -32l15 53v76h120q3 1 8.5 3t8.5 3q17 7 37 6.5t33.5 -4t34.5 -14t28.5 -15t26.5 -16.5q7 -12 28 -20q6 10 6 39q1 3 5 22t5.5 24.5t6 21t9 22.5t11 17.5t15.5 17.5t20 12 l6 4v2v12v285h-2v82h166v-64q2 -6 2 -18v-246q3 -17 0 -28q2 -2 2 -11q3 -8 9 -26.5t8 -22.5q8 -11 16.5 -29.5t11.5 -23.5q4 -17 4 -32q0 -17 -6 -31q-10 -26 -26 -37q-16 -16 -38 -16q-15 0 -32 7l-172 -692v-7q0 -47 -39 -73q-23 -10 -33 -10h-10h-10q-14 2 -33 10 q-41 23 -41 71v7l-102 383l-105 -383v-7q0 -48 -41 -71q-20 -10 -33 -10h-10h-10q-16 3 -33 10q-39 26 -39 71v7l-51 207q-14 -10 -35 -31q-74 -60 -129 -60q-19 0 -35 7l-6 2q-25 14 -34.5 43.5t-2.5 56.5q24 55 74 58q9 7 26 19t19 13q58 46 82 58l-121 489q-17 26 -10 58 v28q-20 -13 -44 -4t-38 39q-7 19 -7 39q0 13 3 27zM758 737l90 -338l65 260q-46 2 -108 52q-7 3 -17.5 10t-18.5 11.5t-11 4.5z" />
<glyph unicode="X" d="M122 365q-2 8 -2 17q0 32 23 60q45 69 45 101l-14 14q-39 50 -50 81q-9 26 -9 52q0 60 43 127q5 20 24 45l11 10q79 86 196 86h10l-24 41q-26 8 -94 48q-7 6 -25.5 15.5t-22.5 12.5h-6q-43 0 -73 43q-12 27 -3 62t37 51q11 6 37 10l-73 119h194l64 -103q19 69 71 89 q14 5 29 5q64 0 133 -96q6 -7 8 -10l4 -8t5 -8.5t4.5 -6.5t6 -7t7.5 -5q35 -21 43 -53q11 -33 -6 -59q-18 -34 -51 -37q-12 -4 -25 -4q-43 0 -82 45q-13 -39 -20 -53l34 -58q80 58 104 67t85 9q-14 22 -14 55.5t14 79.5q22 39 66 52q15 5 31 5q28 0 56 -16l5 -2l73 119h189 l-156 -254q5 -1 11.5 -4t8.5 -4q42 -20 65 -33.5t50 -39.5t35 -54q11 -18 12.5 -37.5t-1.5 -31.5t-11 -34q-10 -32 -55 -62q-36 -24 -90 -23q-13 0 -27 1q-92 20 -123 41q-5 1 -19 6t-20 7l-39 -64q47 -42 71 -81q21 -34 22 -74q0 -7 -1 -13q-4 -5 -11 -21.5t-18 -33 t-26 -27.5l322 -524h-189l-323 524l-322 -524h-194l419 680l-39 63q-4 -1 -11 -3t-11 -3q-15 -1 -28 -1q-34 0 -60 7q-24 6 -43 6q-12 -1 -22 -3q-26 -6 -30.5 -20t3.5 -30q27 -36 40.5 -65t19.5 -73q1 -9 1 -20q0 -38 -16 -82q-20 -58 -66 -128q-27 -34 -69 -43 q-12 -3 -23 -3q-28 0 -49 17q-38 25 -46 66zM512 106q0 31 35 46q29 16 55 10q-18 25 2 51q7 13 25 17.5t35 -3.5q31 -12 22 -37q10 0 10 -4q43 -19 47 -45q9 -27 -26 -51q-25 -22 -55 -22q-10 0 -21 2h-4q0 -2 -10 -27q-3 -10 -15 -17.5t-26 -7.5l-6 2l-13 3 q-15 4 -20.5 17.5t0.5 25.5v4h-4l-5 2q-4 3 -5.5 4t-5.5 4t-6 5.5t-4.5 5.5t-3.5 7t-1 8zM1008 475q0 14 9.5 26.5t22.5 16.5q12 4 21 4q26 0 37 -28h4q32 14 55 6q48 -14 57 -64q8 -20 8 -37t-8 -32q-21 -48 -53.5 -72.5t-58.5 -26.5q-5 -1 -10 -1q-12 0 -23 8 q-16 12 -20 34q-2 13 -2 24q0 46 36 66h-10q-43 7 -61 62q0 3 -2 7.5t-2 6.5z" />
<glyph unicode="Y" d="M131 1147q10 46 41 59v154h166v-49q82 -35 82 -142v-16q2 0 6.5 -1.5t14.5 -4.5t22 -6q20 -6 33 -29.5t10 -50.5q-5 -28 -19.5 -47t-33.5 -19h-7q-78 14 -108 62v-113l276 -201q16 68 47 113t74 66t84 28.5t96 7.5q17 11 17 21q8 17 -8 37t-33 31q-19 3 -41.5 10 t-50.5 21.5t-46 34.5t-28 47q-4 12 -4 25q0 18 8 38q10 43 55 63q31 14 73 14q16 0 34 -2q78 -16 102 -65v127h166v-227q50 -58 50 -130q0 -30 -9 -63q-41 -125 -153 -158l-299 -217v-92q35 -35 43 -78q2 -12 2 -23q0 -54 -45 -104v-268h-166v195l-9 2h-8q0 -12 -2.5 -23 t-8 -26.5t-7.5 -24.5q-7 -29 -31.5 -47.5t-54.5 -18.5q-3 0 -15 4.5t-22 4.5q-34 13 -47 50q-6 17 -6 34q0 19 8 38v9h-10q-2 2 -11.5 10t-14.5 13t-14 15t-13.5 19t-8.5 21.5t-4 25.5q0 77 76 121q41 32 86 32q13 0 27 -3q-14 34 -14 65q0 39 22 74q7 17 14 24l-297 215 q-45 19 -45 74v158q-23 4 -34 29q-8 19 -8 43q0 7 1 14z" />
<glyph unicode="Z" d="M150 643q0 26 19 46t46 26q17 23 21 33q16 18 27 29.5t29 26t34 21t36.5 6.5t40.5 -10q52 -33 52 -94q0 -17 -4 -37l6 2q52 72 153 72h13l47 67q-1 4 -4 13.5t-4 13.5q-21 -16 -48 -16q-14 0 -30 4q-35 19 -35 76q-26 -16 -40.5 -19.5t-43.5 6.5q-22 11 -31 34t-8.5 41.5 t4.5 45.5q6 6 6 29q-9 13 -9 29t9 34q12 21 35 25.5t43 -8.5q17 -7 26 -25.5t9 -36.5q28 12 49 12q18 0 31 -8q17 -7 24.5 -19.5t12.5 -35.5q2 6 6 14q16 38 48 52q15 6 31 6q17 0 35 -8q21 -8 39 -33l95 137h-582v-299h-166v465h895h16h74v-74q4 -32 -14 -55l-205 -299 q2 -1 7 -4t7 -4q13 -7 39.5 -19.5t43.5 -21.5t39 -23.5t38 -30.5q42 -36 58 -80q14 -38 14 -67v-8q-2 -31 -15 -56q-46 -116 -192 -116q-85 9 -184 45q-77 23 -101 28l-47 -69q16 -10 57.5 -29.5t63.5 -32.5q109 -59 154 -102q53 -46 71 -100v223h166v-465h-985v74 q-4 32 14 55l224 326q-32 -19 -59.5 -18.5t-41 10t-22.5 22.5q-33 21 -33 78q-10 -10 -39 -10q-31 7 -51 37q-15 23 -15 51q0 9 1 18zM412 166h403q-2 11 2 35q-13 14 -58.5 38.5t-82.5 39.5q-13 8 -54 33t-63 40q-11 -24 -43 -35zM799 731q21 -6 39 -12q17 -3 53.5 -13 t62.5 -16q17 -4 30 -3q6 0 11 1q-15 31 -127 76q-6 3 -17 8t-17 8z" />
<glyph unicode="[" d="M322 -184v1691h686v-166h-521v-1359h521v-166h-686z" />
<glyph unicode="\" d="M188 1360h203l752 -1360h-203z" />
<glyph unicode="]" d="M324 -18h520v1359h-520v166h686v-1691h-686v166z" />
<glyph unicode="_" d="M172 0v166h985v-166h-985z" />
<glyph unicode="a" d="M71 402q-7 20 -7 39q0 20 8 38q29 42 84 60l8 12q8 12 9.5 15t10 15t13 17t14 16t16.5 17t18 15t21.5 15t23.5 12t27 11q112 74 304 80q-18 26 -18 55q0 15 5 31q23 45 64 61h-174q1 -6 1 -12q0 -38 -48 -78q-54 -41 -106 -41q-16 0 -32 4h-8q0 -11 -16 -51 q-6 -19 -27.5 -31t-46.5 -12q-1 0 -12 4t-21 4q-29 7 -40 32t1 50v4h-8q-1 1 -11.5 8t-15.5 11.5t-13 13t-11.5 18t-3.5 19.5q0 29 19.5 49.5t43.5 30.5q35 21 77 21q11 0 22 -1q-13 23 -13 44q0 26 19 49q12 21 37 29q14 5 28 4q12 0 25 -3h399h11q108 -3 182 -41 q66 27 122 27q34 0 64 -10q46 -23 64 -61q8 -17 8 -36q0 -23 -12 -49q-22 -38 -66 -57q47 -103 47 -246v-2v-33q29 -32 42 -64t13.5 -54.5t-9.5 -47t-17 -34.5t-19 -25q0 -12 27 -25q28 -27 32 -59q1 -5 0 -10q0 -27 -20 -51q-3 -3 -8 -8.5t-8 -8.5v-4q1 -2 2 -19t2 -22 q15 -13 22.5 -40.5t2.5 -49.5q-8 -36 -50 -45q-11 -4 -22 -4l-14 2h-142v20q-27 9 -49 31q-111 -51 -276 -51h-11h-10q-178 0 -293 59q-28 -38 -69 -47h-9q-29 0 -51 20.5t-30 49.5q-1 9 -1 18q0 45 35 68v2q-44 68 -53 160q-34 4 -49 10q-39 21 -54 62zM338 358 q29 17 49 19q32 0 58 -21.5t30 -58.5q0 -75 -47 -86l-4 -6q71 -39 221 -39h10h11h16q8 14 25 24q0 1 4.5 14t5.5 21q3 16 10 33q-46 7 -91 24t-78.5 37.5t-66.5 43t-54.5 41t-42.5 31.5t-31 14t-19 -11l-2 -4q-4 -32 -4 -53v-23zM338 381q0 55 15 94.5t39 63t62 37t76.5 18 t90.5 4.5q18 -33 28 -90v-21q21 -17 105 -28l14 -2l-6 6q-21 25 -29 43q-16 27 -16 52q0 20 10 38q-18 2 -61 2h-11zM819 434q30 -23 30 -65q0 -8 -1 -17q44 -10 102 -82l2 4q21 44 21 107q0 51 -12 88l-11 -4q-2 -1 -9 -5t-9 -5.5t-8.5 -5t-10 -5t-9.5 -4t-11 -3.5 t-11.5 -2.5t-13.5 -2t-14 -0.5q-23 0 -35 2zM860 741q63 -15 125 -51v6q-8 52 -31 99q-2 -1 -6 -4.5t-6 -4.5q-62 -37 -82 -45z" />
<glyph unicode="b" d="M172 0v1475h166v-508q102 83 237 104q6 20 25 39q25 19 50 18t42 -22q14 -14 17 -31q88 -7 167.5 -41t142.5 -91.5t100.5 -144.5t37.5 -192v-149v-13q-6 -84 -37 -161q-4 -44 -43 -88q0 -13 27 -27q28 -28 32 -60q1 -5 0 -10q0 -27 -20 -51q-35 -35 -74 -35l-10 2 q-8 2 -21 8.5t-18 8.5q-28 25 -47 47q-128 -78 -282 -78h-11q-182 3 -315 111v-111h-166zM338 475q0 -77 28 -137.5t74.5 -97t103.5 -55.5t120 -19q77 0 145.5 27t114.5 81q2 4 7 11.5t7 11.5l-6 16q-19 17 -37 17q-19 -7 -35 -17q-20 -12 -28 -16.5t-27.5 -10t-40.5 -5.5 q-88 0 -121 75q-15 25 -15 50q0 8 1 16q6 34 37 53q27 13 57.5 10t46.5 -26q73 44 136 44q45 0 85 -22v121q0 101 -53.5 177.5t-144.5 109.5q30 -43 38 -68q17 -34 17 -64v-11q-4 -34 -14.5 -54.5t-26.5 -34.5q-38 -35 -84 -35q-36 0 -78 21q-56 40 -106 90q-49 35 -67 35 q-5 0 -7 -2q-12 -12 -2.5 -39.5t26.5 -52.5q49 -62 74 -119q19 -45 18 -80q0 -49 -36 -80q-4 -10 -23 -16l-10 -2q-7 -1 -13 -1q-25 0 -46 21q-16 16 -16.5 43.5t16.5 51.5q-9 30 -72 98q-8 12 -39 63q-4 -32 -4 -51v-127zM553 895q11 -9 32 -28.5t33 -28.5q7 -6 24 -21.5 t27 -24.5t23 -18t21 -10q0 18 -60 94q-3 4 -17.5 22t-21.5 29q-43 -9 -61 -14z" />
<glyph unicode="c" d="M135 522q7 32 35 51v33v4q1 110 44 201t112.5 148t156 87.5t179.5 30.5q152 0 280 -78q11 14 29.5 20.5t39 6t46.5 -1.5q3 0 8.5 -1t9 -1t4.5 2q25 0 39 -12q13 -8 19 -26t0 -36l-4 -4q-12 -22 -33.5 -27t-57.5 -1q-2 5 -4 2q117 -127 117 -318h-166q0 75 -31 139 q-4 -1 -14.5 -4t-17.5 -4q-4 -1 -18 -1.5t-21 -2.5q-3 -28 6 -59q0 -11 0.5 -26.5t0.5 -22t-1 -15t-2.5 -14t-5.5 -10.5q-7 -21 -26.5 -28t-39.5 3q-24 16 -24 37q0 8 4 18q-1 2 -8 43q-4 38 -4 67q0 53 14 75q23 23 86 37q-93 77 -225 77q-89 0 -166.5 -37.5t-118.5 -109.5 q66 -10 98 -53q26 82 107 102q20 10 41 10q19 0 38 -8q41 -16 58 -55q9 -22 9 -42q0 -41 -40 -69l8 -22q13 -22 21 -47.5t6.5 -58t-18.5 -58.5q-41 -63 -150 -72h-11q-123 0 -171 68l-8 6q-4 -4 -8.5 -7.5t-11 -8t-9.5 -7.5q2 -71 27.5 -123.5t68.5 -82.5t91.5 -45.5 t107.5 -20.5q17 10 37 10q5 5 45 33q87 78 156 78q22 0 42 -8q27 -16 38 -47q5 -15 5 -31q0 -18 -6 -37l-2 -2h209v-166h-455q-246 0 -391 123q-130 115 -139 309l-25 29q-12 21 -12 42q0 10 2 19z" />
<glyph unicode="d" d="M174 487v119v4q1 104 39 190.5t101 143.5t141.5 90.5t165.5 40.5q60 91 149 91q28 0 59 -9q133 -42 154 -182q2 -1 6 -4t6 -4v508h166v-871q13 -10 19 -22q8 -16 8 -31q0 -24 -21 -45q-1 -5 -6 -35v-471h-166v113q-138 -113 -325 -113h-11q-109 3 -196 39q-16 -8 -33 -8 h-10q-24 3 -45 24q-22 22 -25 47q-23 16 -59 56q-37 4 -55 20q-25 18 -37.5 52.5t-14.5 62t-2 74.5v12q-1 6 -2.5 16.5t-2.5 19.5t-1 17q-7 13 -7 28q0 12 5 27zM340 475q0 -67 27 -133q48 24 87 24t68 -24q25 -20 31.5 -49t1 -51t-17.5 -54q64 -22 133 -22q116 0 206.5 62 t112.5 180l-2 8q6 0 1 -6q-2 -3 -7 -4q-4 -4 -14.5 -15.5t-16 -17t-16.5 -16t-19 -16t-20 -12t-22.5 -8.5t-23.5 -2.5t-26 3.5q-41 8 -63 36.5t-39 75.5q-6 6 -16.5 25t-16.5 22q-23 0 -94 -43q-21 -11 -28.5 -15t-25 -11.5t-27 -9.5t-22.5 -2.5t-24 3.5q-8 -2 -21 7 q-51 28 -55 129q0 24 -2 32q-11 12 -13 32.5t7 39.5q15 26 39.5 33t50.5 -8q12 -7 20 -16t13.5 -24t7.5 -21.5t6 -28t4 -23.5l4 -4q-4 4 2 5q2 0 9 1q53 31 97 45q27 9 53 9q16 0 32 -3q22 -4 41 -16.5t33.5 -33t22 -34t18.5 -35.5q1 -7 16 -32q15 12 22 32q7 7 22 23.5 t24 24.5t22 18.5t26 14t27 1.5v31q0 23 -2 33q-54 14 -90.5 39.5t-54.5 60t-25 68.5t-8 78q-32 16 -67 22q-9 -18 -15 -24q-3 -21 -13 -48t-28 -56t-48 -42q-15 -6 -31.5 -6.5t-34.5 6.5q-40 10 -58 50q-14 30 -13 68q0 12 1 26q-76 -34 -122 -104t-46 -171v-127z" />
<glyph unicode="e" d="M131 994q6 34 37 53q27 12 49 12q34 0 55 -29q27 16 43 24q17 7 49 17q21 6 42 6q12 1 23 -1q33 -6 67 -25q79 26 172 26q194 0 327 -112q60 34 152 45q33 0 58.5 -19.5t25.5 -46.5q6 -35 -15 -59.5t-55 -24.5q-42 -5 -63 -12q60 -102 63 -232q15 -14 43 -67l4 -6 q42 0 56 -62q5 -15 5 -29q-1 -16 -7 -31q-12 -28 -39 -42q-18 -10 -35 -10q-23 0 -43 18l-17 2v-18q0 -75 -69 -129q-39 -25 -70 -25q-21 0 -41 16q-39 25 -51 78h-4q-20 -14 -44.5 -5.5t-39.5 38.5q-8 19 -8 43h-455q16 -91 84 -145q28 99 215 120q34 0 59 -19t25 -46 q6 -35 -14.5 -59.5t-55.5 -24.5q-40 -4 -79 -20v-17q51 -10 127 -10h454v-166h-454h-13q-137 3 -241 43l-13 -2q-16 -8 -41 -8q-41 0 -74 12t-57 36t-33 36.5t-24 36.5q-37 10 -64 43q-11 29 0 59t41 47l9 2q-23 77 -23 150v8v8v2v133v4q3 136 68 244q-67 8 -97 74 q-15 25 -15 50q0 8 1 16zM340 553h649l6 12v37v10q-3 47 -14 84q-9 -4 -39 -8q-16 -8 -41 -8h-14q-16 1 -31 4.5t-26.5 7.5t-23.5 11t-20.5 12.5t-18 15t-14.5 15t-13 16t-10.5 14t-9 14t-7.5 11.5q-42 11 -64 43q-5 15 -5 29q0 19 9 38q-6 0 -17.5 -1t-17.5 -1q5 -18 5 -36 q0 -52 -43 -107q0 -14 26 -27q27 -27 31 -59q1 -4 1 -9q0 -28 -22 -53q-31 -34 -71 -34l-10 2q-8 2 -21 8t-18 8q-99 84 -99 161q0 16 4 32q-61 -77 -61 -193v-49z" />
<glyph unicode="f" d="M113 0v166h280v250q-26 23 -53 57q-4 5 -16 20.5t-23 27t-22 18.5q-29 -17 -60 -10.5t-53 34.5q-34 36 -34 81t32 77q57 38 104 38q14 0 27 -3l-2 10q-12 36 -12 60q0 26 22 85h-190v166l276 4q1 224 116 345.5t304 121.5q190 0 305 -122t115 -349h-166v2 q-21 -44 -64 -59l-6 -2q-28 -4 -53.5 12t-38.5 41q-6 19 -6 35q0 33 25 55q3 25 14 56q10 72 37 118q-59 47 -162 47q-254 0 -254 -305h287v-162q12 -20 16 -30q1 -15 0.5 -19.5t-4 -17t-4.5 -21.5q-1 -21 -10.5 -39t-19.5 -27t-23.5 -19t-16.5 -13q-20 -8 -41.5 -9.5 t-40 2.5t-39.5 13.5t-37.5 19.5t-37.5 25q-15 7 -25 15v-103q1 -2 3 -5t3 -5q39 -36 72 -104q14 -37 14 -70q0 -11 -1 -22q-7 -41 -20.5 -64.5t-29.5 -34.5q-31 -18 -41 -22v-199h541v-166h-987zM793 328q0 38 53 67q33 18 65 18q9 0 17 -1q-10 16 -10 33q0 21 16 42 q11 19 37 26q10 3 19 3q16 0 32 -8q36 -13 36 -40q0 -7 -3 -15q12 0 12 -7q70 -29 74 -67q3 -8 3 -16q0 -30 -42 -60q-44 -34 -87 -34q-13 0 -26 3h-8q0 -9 -12 -41q-6 -15 -24 -25.5t-38 -10.5q-2 0 -10 3t-16 3q-26 7 -35.5 27t0.5 40v4h-6q-2 2 -12 9t-16.5 12t-12.5 15 t-6 20z" />
<glyph unicode="g" d="M67 936q0 31 21 55q32 19 66 19h10q70 61 147 61q34 0 70 -12q19 -5 35 -21q3 -2 9 -5t9 -5q107 49 228 49q23 0 69 -4q35 40 75.5 62.5t83.5 25.5q28 2 47 2q10 0 17 -1q22 -1 56 -7q45 28 87 28q7 0 13 -1q39 -11 60 -48q16 -29 16 -61q0 -11 -2 -22q-15 -34 -29 -50 v-800q35 -21 35 -51q0 -38 -35 -56v-100v-4v-6q0 -211 -139 -332q-145 -123 -391 -123h-82v166h82h10q91 0 170 24q-27 7 -53 21t-61 39t-36 26l-8 -6q-28 -11 -55 -11q-6 0 -12 1q-34 3 -99 21l-63 12q-6 -6 -15 -12q-25 -21 -58.5 -25t-57.5 8q-11 7 -37 41 q-20 19 -27.5 41.5t-7.5 49v28.5q13 34 41 58t56.5 35.5t72.5 23.5l6 2q-56 32 -94 73q-17 0 -104 15q-68 25 -97 71q-26 41 -26 70v8q0 2 1.5 11l2 12t2.5 11t3.5 11t4 10t5.5 11t7 9.5t9.5 10t11.5 8.5q20 23 55 35q-2 10 -2 35v129q0 163 84 277q-24 -16 -39 -21 q-26 -10 -49 -10q-41 0 -76 31q-23 26 -23 57zM336 455q36 -4 59 4q5 34 29 53q21 16 51 16h10h12q41 0 71 -24q35 -29 38 -74q-13 -92 -57 -125l10 -4q48 -23 65.5 -41.5t57.5 -93.5q7 1 20 2t19 2l2 6q11 41 90 74h35l43 -4q24 21 49 57q0 52 -6 62q-57 24 -57 67 q0 30 22.5 49t58.5 19q19 0 31 -4v106q0 110 -59 184q3 -17 3 -36q0 -91 -79 -218q-30 -34 -72 -43q-11 -2 -21 -2q-28 0 -50 17q-39 25 -46 66q-1 8 -1 15q0 33 24 62q43 66 43 101q-6 8 -14 14q-10 10 -19 22q-20 8 -82 45q-7 5 -49 29h-7q-29 0 -52 23l-2 -2q0 -3 -1 -9 t-1 -8l-8 -14q26 -26 67 -47q32 -12 43 -42t-6 -61q-9 -26 -39 -35t-61 3q-89 45 -127 92q-37 -69 -37 -156v-129v-12v-6zM647 -31q38 -12 111 -61q9 -5 29.5 -18t37 -22.5t23.5 -12.5q0 30 -60 104q-5 8 -15 24.5t-15 24.5q-44 -8 -90 -8q-11 -19 -21 -31zM907 57 q5 -10 16 -26.5l15 -22.5q42 -54 49 -67v4q2 12 2 39v6v4v117q-45 -36 -82 -54z" />
<glyph unicode="h" d="M80 1220q10 42 39 89q3 12 24 47l11 10l14 14v95h166v-25h18q37 0 76 -6q40 25 83 25q9 0 17 -1q39 -10 60 -48q16 -28 16 -61q0 -11 -2 -22q-37 -85 -131 -108q-15 -1 -28 -1q-34 0 -60 7q-33 8 -49 8v-121q18 -41 18 -87q0 -30 -8 -62q91 73 223 96q-7 16 -7 40 q0 33 13 81q24 40 67 52q14 4 28 4q29 0 59 -17q32 -13 46.5 -41.5t6.5 -61.5q10 -9 23.5 -16.5t31 -15.5t23.5 -11q40 -18 65 -32t51.5 -39.5t35.5 -53.5q1 -3 3 -8t3 -8q139 -132 139 -340v-293q26 -19 31 -47q2 -13 2 -25q0 -48 -33 -71v-166h-166v256q-16 -42 -16 -43 q-17 -60 -35.5 -92.5t-50.5 -44.5q-19 -10 -42.5 -2t-37.5 28q-10 -35 -39 -75q-18 -9 -35 -9q-43 0 -59 33q-10 19 -10 47t10 45q0 5 -4 22t-4 19q0 15 -3.5 36t-3.5 32q0 86 54 108q11 7 22.5 8t23 -4t20 -10.5t21 -19t19.5 -22l21 -25.5q5 -11 12 -19v11q4 8 14.5 33 t15.5 36.5t16 31.5t20 31t22 21t27 14q20 5 22 5v151q0 103 -57 182q-36 -14 -80 -14h-16q-7 2 -26 6.5t-27.5 7t-22.5 7.5t-25 10t-20 12q-11 3 -31.5 9.5t-39 12.5t-37 11t-31 4.5t-15.5 -6.5q0 -9 10 -21t31 -31.5t23 -21.5q52 -46 79 -86q24 -35 24 -77q0 -6 -1 -13 q-2 -4 -9.5 -20t-14 -27.5t-21.5 -25.5t-35 -21q-8 -4 -17.5 -9.5t-16.5 -8.5t-17 -3q-28 0 -57 16.5t-45 47.5q-3 26 -20 57.5t-34.5 52.5t-44 50.5t-33.5 37.5q-28 -61 -28 -139v-231q9 3 18 3q45 0 84 -69q7 -17 15 -20q31 -14 36 -43q3 -26 -6 -46.5t-24 -23.5 q-21 -8 -40.5 2t-27.5 21.5t-22 33.5q-8 12 -15 19q-13 -39 -14 -41t-2 -7t-2 -7v-193h-166v72q-23 0 -41 24q-6 11 -6 31.5t6 30.5q0 4 -1 16t-1 14q0 9 -3 24.5t-3 23.5q0 58 39 75q8 4 10 4v459q-22 3 -39 17q-39 25 -46 66q-1 8 -1 15q0 32 24 62q44 71 44 100 q-7 9 -15 15q-1 2 -4 5q-19 23 -29 40.5t-21 51.5q-6 18 -6 38q1 17 5 36zM836 1348q6 6 6 26q-9 14 -9 30.5t9 35.5q12 20 35 24q6 1 11 1q17 0 32 -9q34 -14 34 -63q27 14 49 14q17 0 31 -8q6 -2 11 -5.5t8.5 -8.5t6 -9t5 -11.5t3.5 -11t3.5 -12.5t3.5 -12q21 17 43 17 q18 0 37 -11q8 -5 14 -11t9.5 -15t6 -15.5t3 -18t0.5 -17.5v-19.5v-17.5q-6 -12 -6 -29q8 -17 8 -31q0 -8 -2 -14q-20 -41 -58 -41h-8l-8 6q-32 11 -47 62q-20 -16 -46 -16q-15 0 -32 5q-35 19 -35 76q-26 -16 -40.5 -19.5t-43.5 7.5q-37 19 -37 81q0 18 3 40z" />
<glyph unicode="i" d="M176 -2v166h248q3 21 20 41q43 64 43 98q-6 10 -14 16q-40 51 -51 84q-8 24 -8 50q0 60 43 127q13 32 26 45l11 10q42 48 92 67v93q-15 0 -23 2h-20q-4 -16 -5.5 -20.5t-7 -19.5t-11 -22.5t-15.5 -17.5t-23 -17q-42 -20 -67 -20h-13q-3 0 -10 1t-10 1q4 -12 6 -16v-11 q18 5 35 -6t20 -33q5 -15 -7.5 -31t-35.5 -20q-13 -2 -24 -2q-45 0 -66 35v-8q-7 -44 -61 -62q-2 0 -7 -2t-8 -2q-13 0 -25 9.5t-15 23.5q-8 17 -1.5 33.5t23.5 23.5v2q-1 2 -3.5 12t-3.5 15t-1 14t4 17q9 47 61 57l13 4q-14 24 -2 47q6 32 35 46.5t57 2.5h22l5 15 q4 14 6.5 20.5t9.5 19.5t16 23h-174v125q-6 2 -18 10l-21 27q-15 28 -5 57t38 43l4 7l-4 6q0 1 -2 8t-2.5 10t-2 10t-2 11.5t-0.5 11.5t1.5 12t3.5 11.5t5.5 12.5t8.5 11q29 37 86 37q13 0 27 -2q57 -6 86 -45q19 66 74 80v121h266v-267h-178q21 -42 21 -77q0 -29 -15 -54 h121v-360q3 0 7.5 -1t6.5 -1q43 27 84 27q8 0 16 -1q39 -11 60 -49q16 -28 16 -60q0 -11 -2 -22q-37 -88 -131 -108q-18 -2 -57 2v-338h116q-4 16 -4 35t4 41q6 6 6 26q-9 14 -9 30.5t9 35.5q12 20 35 24t43 -8q35 -14 35 -63q27 14 49 14q17 0 31 -8q6 -2 11 -5.5t8.5 -8.5 t6 -9t5 -11.5t3.5 -11t3.5 -12.5t3.5 -12q21 17 43 17q18 0 37 -11q7 -4 12 -10t8.5 -11t6 -14.5t4 -14t2 -17t0.5 -15.5v-17v-15q-7 -14 -7 -29q8 -17 8 -32q0 -6 -1 -13q-20 -41 -58 -41h-987zM803 883q0 11 3 24t11 32.5t27.5 37.5t48.5 29q12 6 27 9t24 4t29 2t24 1 q13 4 47.5 7.5t40.5 6.5q7 31 25.5 54.5t42.5 23.5q27 0 47.5 -22t20.5 -56v-6q0 -49 -22.5 -86.5t-65.5 -52.5q-23 -9 -69 -17t-54 -10q-60 0 -72 -6q-21 -57 -66 -57q-32 0 -50.5 22.5t-18.5 59.5z" />
<glyph unicode="j" d="M174 551q0 31 17.5 49t48.5 18q13 0 25 -3.5t23 -13t17 -15.5t18.5 -21t16.5 -20h6q25 42 38.5 62.5t41.5 47.5t57 35q15 5 33 5q54 0 127 -50q4 -5 29 -20q6 12 6 39q1 4 5 22.5t5.5 24t6 21t9 22.5t11 18t15.5 18t20 13q8 4 12 4v104h-410v166h191l-2 2q-9 20 -9 45 q0 4 -1.5 7t-2.5 3l-2 1q-8 9 -23 26.5t-28 32.5t-24 29q-20 38 -20 75q0 45 28 88q61 45 78 52.5t57 7.5q-9 16 -9 40t9 54q16 29 45 39q10 4 21 4q19 0 38 -12q23 -9 33 -29.5t4 -44.5q7 -7 37 -22h205v-267h-266v56q-12 4 -21 10q-8 2 -22 7t-26 9t-24.5 7.5t-21 3.5 t-10.5 -5q0 -4 3 -9.5t8.5 -11.5t10 -11t12 -12t9.5 -9q37 -31 55 -60q15 -24 15 -53q0 -7 -1 -14q-1 -3 -4 -10t-6.5 -15t-7.5 -14h248v-270q12 -34 12 -37q8 -11 17 -29.5t12 -23.5q8 -36 -1.5 -62t-27.5 -37q-4 -4 -12 -8v-252q30 17 55 11q-15 24 4 51q8 11 25 16t35 -2 q12 -5 18 -15t2 -22q10 0 10 -4q43 -19 47 -45q2 -5 2 -10q0 -20 -26 -41q-31 -24 -58 -24q-9 0 -18 3h-6q0 -6 -3.5 -14t-4.5 -12q-3 -11 -15 -18t-26 -7l-6 2l-13 2q-15 3 -22 17v-252v-4v-6q0 -164 -90 -277q-13 -22 -13 -31q0 -43 -22 -65q-25 -25 -58 -25h-12 q-10 2 -28 11q-130 -68 -308 -68h-176v166h176q111 0 185 26q-23 8 -39 21q-27 19 -40.5 54.5t-15.5 63.5t-2 77v57q-13 20 -13 42t13 48q20 26 51 34q11 3 21 3q21 0 43 -12q14 -10 23.5 -23.5t14 -24t7 -30t3 -28.5t0 -34t-0.5 -32v-39q4 0 8.5 1.5t6.5 2.5l2 2 q65 31 96 33q2 14 2 47v6v4v524q-21 -21 -47 -26q-14 -5 -30 -5q-52 0 -116 52q-8 3 -26 13.5t-25 10.5q-25 -15 -61 -84q-18 -30 -27.5 -44t-27.5 -30t-37 -20q-6 -6 -19 -6q-58 0 -113 86q-3 4 -9.5 14.5t-8.5 12.5q-17 6 -29 23t-12 36z" />
<glyph unicode="k" d="M133 270q0 46 37 64v938q-37 22 -37 51q0 38 37 57v95h166v-138q9 -11 20 -37q7 -16 11.5 -35.5t8 -44.5t7.5 -40q0 -60 4 -72q57 -20 57 -66q0 -32 -21 -50.5t-58 -18.5q-17 0 -29 4v-469l346 346q-13 0 -25 4q-80 3 -100 88q0 59 6 88q-4 22 4 45q-36 19 -36 54 q0 6 1 12q10 29 36.5 44t52.5 7q90 -7 90 -101v-8q17 33 30 53t35 44t54 34q23 8 50 8q10 0 21 -1h5q26 0 60 -21q37 -23 52 -76q6 -27 6 -51h121l-125 -125q4 -33 10 -41q25 -5 42 -23.5t13 -43.5q-14 -49 -59 -62l-10 -2l-12 2q-74 5 -103 54l-256 -254l39 -43q2 0 5 1 t5 1q20 8 38 8.5t35.5 -7t29 -14.5t28.5 -20q0 86 49 110q15 6 33 6q46 0 111 -42q0 -4 8 -4v40q0 32 18.5 53.5t42.5 30.5q26 5 53 -13t31 -44q0 -33 -6 -47v-16v-16v-19t-0.5 -18.5t-2.5 -20.5t-4.5 -18.5t-7 -20t-10 -16.5t-14 -16t-18.5 -13q-18 -7 -38 -7 q-45 0 -105 36q0 -108 -70 -134q-2 -1 -6 -2t-6 -2l282 -315h-221l-57 63q-14 -46 -60 -59q-15 -4 -22 0q-16 2 -26 3.5t-27.5 8t-29 15.5t-22 27t-14.5 42q-11 51 -11 102q0 12 1 23q3 33 3 54q0 11 -1 18l-8 10q-12 -12 -39 -80q-25 -52 -43 -94q-18 -24 -38.5 -38 t-38.5 -16.5t-30 -2t-22 3.5q-82 6 -101 88q0 54 7 88q-3 15 2 47h-2l-29 -29v-274h-166v209q-37 19 -37 61zM483 420q17 -17 25 -23q3 -7 6.5 -12.5t8.5 -12t9 -12.5q21 34 29 52l6 10l-39 43zM825 997l54 52q0 16 -5 41q-20 -11 -45 -84z" />
<glyph unicode="l" d="M68 1326q6 34 36 52q34 14 62 11v86h575v-398l17 -2l35 -26q6 -15 6 -29q0 -37 -49 -57h-9v-15q7 -31 60 -108q49 -55 67 -117q7 -20 8 -37.5t-2.5 -29.5t-12.5 -24.5t-16 -18.5t-19 -16.5t-17 -14.5q-35 -27 -68 -33v-227q22 -12 31 -54q8 -28 -0.5 -53.5t-30.5 -40.5 v-8h412v-166h-987v166l145 -2q-3 26 5.5 50.5t25.5 37.5q36 28 66 28q25 0 47 -18q25 -21 32 -35v52q0 78 56 118q9 9 32 23v176q-13 8 -31.5 21.5t-25.5 17.5l-10 -6q-27 -11 -55 -11h-11q-34 2 -100 21l-90 18q-11 -1 -21 -1q-44 0 -61 28q-19 22 -14 47t30 39q10 2 23 6 t21.5 6t15.5 2h35q6 -4 13.5 -6t20 -4t21.5 -4q10 9 21 16t22.5 11.5t19.5 7t20 5t15 3.5q66 0 141 -47v168q-4 33 0 47v16q-3 -28 -20 -47q-35 -35 -72 -35q-10 0 -26.5 9t-22.5 10q-52 42 -76 82q-22 36 -23 68q1 2 1 6q2 34 12 58t31 52l-8 17q-18 16 -37 16 q-17 -6 -33 -16q-4 -2 -14 -8t-14 -8t-13.5 -6t-17 -6t-18 -3.5t-21.5 -1.5q-85 0 -119 76q-17 25 -17 52q0 7 1 14zM516 1098l2 -8q7 -10 27 -19q27 -27 30 -63v301h-57q44 -53 44 -106t-46 -105zM836 1227v45q-11 14 -11 31t11 36q14 19 39 25q8 2 16 3q16 0 31 -9 q11 -7 18.5 -17t11 -18.5t5.5 -23t2 -22.5t-0.5 -25.5t-0.5 -24.5v-31q4 0 7 1.5l5 2.5l1 2q48 25 84 25q31 0 53 -19q18 -16 25 -34q4 -10 4 -22q-1 -10 -3 -20q-6 -24 -10 -35t-16 -36q-12 -28 -12 -33q0 -31 -17 -51q-22 -19 -45 -19t-45 19q-18 21 -18 51q0 17 6 37 q-20 -6 -49 -5t-49 19q-20 14 -30 42t-11.5 48.5t-1.5 57.5z" />
<glyph unicode="m" d="M109 244v45q-10 14 -9.5 30.5t9.5 36.5q22 28 52 28q5 0 11 -1v217v10v8q0 128 10 199h-4q-28 0 -45 25q-6 10 -6 30.5t6 32.5q0 3 -2 15t-2 14q0 9 -2 24t-2 23q0 61 39 76q20 11 38 -1t42 -42q4 -5 6 -8q6 -6 6 -11h2v4q2 5 10 23.5t11 26t11 22t14 21.5t15 14.5 t19 9.5q9 3 18 3q35 0 70 -46q6 0 17.5 -1t17.5 -1q16 2 57 2q39 0 62 -26q49 -17 86 -54q3 3 9 9.5t9 9.5q-17 27 -14 61q8 31 35 51q23 17 50 18q5 0 11 -1q52 -10 80 -68q8 -2 24 -2q16 2 58 2q38 0 59 -24q26 13 53 10q33 37 76 43q32 0 57 -21.5t31 -58.5 q0 -75 -47 -84q-5 -5 -14 -23v-38q0 -2 -1 -7.5t-1 -7.5q7 -30 10 -53q0 -3 1 -8.5t1 -9.5q4 -50 4 -78q36 -8 60 -32t24 -54q2 -11 2 -21q1 -30 -17 -54q-24 -32 -67 -36v-223q27 -24 27 -64v-4v-10q-3 -49 -27 -84v-133h-166v65q-3 -1 -9 -2t-9 -2q-58 0 -72 -6 q-21 -57 -65 -57q-17 0 -29 6h-2q-29 0 -59 12v-16h-166v125q-39 -49 -91 -49q-15 0 -32 4q-40 0 -64 24l-12 -24q-2 -5 -6 -11.5t-6 -11.5t-2 -10q0 -34 -17 -51q-19 -19 -43 -19h-10q-19 3 -35 19l-4 4h-88v86q-9 3 -18 12q-21 14 -31.5 42t-12 48.5t-1.5 57.5zM338 244 q15 0 27 -6v6l2 39q0 -4 -1 -12l1 -1q-12 6 -29 27v-53zM338 629h2q35 25 70 25l30 -5q-12 33 -12 63q0 42 23 79q13 35 48 48q15 5 28 5q19 0 36 -10q-12 33 -35.5 49t-66.5 22q-81 -10 -102 -64t-21 -212zM508 356q6 -24 6 -49q27 56 53 84q-22 0 -43 6h-10v-10 q-1 -6 -6 -31zM748 526q15 -4 46.5 19.5t88 65.5t110.5 67q0 12 -1 32.5t-1 30.5q-41 6 -61 45q-24 -10 -46 -10q-14 0 -28 4q-49 11 -84 68q-16 -30 -20 -79.5t-4 -150.5v-92zM823 182l8 4q12 9 27 15q12 5 27 8t25 3.5t28.5 1.5t24.5 1q12 6 30 6v127q-46 -52 -139 -63 q-15 -6 -29 -6q0 -9 -1 -26.5t-1 -25.5v-45z" />
<glyph unicode="n" d="M66 104q-5 14 -6 28q0 15 6 30q25 32 65 45q8 12 12 20q-12 18 -12 43q0 46 37 64v268q0 55 8 94q-18 11 -29 19q-33 30 -33 75q0 47 36 82q20 28 51.5 35t60.5 -10q4 2 10 8q8 10 27 29q16 20 25 29q29 35 47.5 53.5t49.5 37.5t62 21q11 2 23 2q25 0 49 -12 q58 10 107 10q119 0 225 -47q2 3 7 9.5t7 9.5q7 1 21 22v5q0 29 30 50q13 6 26 6l18 -3q22 -7 34 -29q10 -16 10 -33q0 -19 -12 -39q57 -4 72 -35q12 -25 10.5 -39t-10.5 -43q9 2 18 2q35 0 53 -34q6 -9 7 -20t0.5 -19t-6 -21t-8 -18t-11 -19.5t-10.5 -17.5q-8 -8 -10 -12 q12 -46 14 -68q19 -16 22 -37q0 -33 -6 -49v-14q0 -74 -10 -103v-92q41 -14 41 -49q1 -5 1 -10q0 -18 -9 -33q-11 -20 -33 -27v-268h-166v129q-11 -4 -37 -8q-16 -4 -37 -4q-99 0 -157 100q-37 11 -54 37q-9 25 0 50t33 40q30 10 56 4q-12 10 -29 27q-9 4 -20 16.5t-15 20.5 q-10 -10 -29 -40t-20 -32q-45 -71 -68 -92q-31 -27 -65 -31q-33 -3 -56 8q6 -16 11 -41v-16q19 -14 80 -23q34 0 54 -24.5t15 -59.5q0 -27 -26 -46t-60 -19q-122 16 -171.5 58.5t-49.5 107.5l-6 10h-2v-172h-166v49q-30 -3 -62 8q-30 17 -40 47zM352 322l8 -3l25 -4 q-4 4 -10 10.5t-8 8.5q-11 -5 -15 -12zM477 612q9 -2 23.5 5t37 21t27.5 17q22 15 38 25t38 20t40.5 14t40 2.5t42.5 -9.5q3 -3 16.5 -13.5t23 -19.5t19 -27t11.5 -39q4 -20 4 -24q11 19 34 32q16 8 35 8q34 0 80 -24v2v12q-3 98 -52 166.5t-119.5 98.5t-153.5 30 q-21 0 -31 -2q-3 -17 -13 -49q-30 -68 -71 -104q-6 -13 -29 -48q-24 -36 -36 -61q-8 -16 -8 -25q0 -5 3 -8zM508 389q2 -6 10.5 -15t11.5 -14q19 27 29 50q-7 -3 -18.5 -9t-14.5 -8zM817 510l4 -4v10q-1 -1 -2 -3t-2 -3zM850 317q19 -23 27 -36q13 -29 19.5 -34t31.5 -5l6 6 q-6 0 0 6v-4q0 2 2 12q14 56 51 86v90q-4 2 -12 6.5t-12 6.5q0 -108 -70 -132q-21 -9 -43 -2z" />
<glyph unicode="o" d="M132 352q0 36 30 64q6 9 12 12q-2 14 -2 45v133v4q0 54 14 119q-36 24 -36 57q0 34 22.5 58.5t48.5 34.5q26 17 51 22q12 15 52 55q3 28 24 54q12 26 50 36q15 4 29 3q21 0 40 -9q90 37 197 37q115 0 221 -47q24 5 51 5q37 0 78 -9q41 28 83 28l15 -1q40 -11 62 -49 q15 -26 15 -56q0 -13 -3 -26q-25 -67 -82 -93q53 -101 53 -223v-133q0 -28 -4 -74q6 -17 7 -33.5t-3.5 -32t-7.5 -25t-13 -24t-12 -17.5t-12 -15q0 -10 29 -25q27 -27 31 -59q1 -4 1 -9q0 -28 -22 -53q-30 -34 -72 -34q-8 0 -16 3t-18 8t-15 7q-11 11 -31 27 q-138 -117 -335 -117q-93 0 -181 31q-2 -2 -10 -6q-25 -5 -47 -5q-80 0 -133 64q-35 85 -37 111q-20 29 -39 65q-27 8 -57 27q-28 28 -28 65zM338 528q54 54 98 56q18 1 25.5 2t21 -4.5t19 -9t18.5 -11.5q14 -10 25 -29t16 -52q1 -8 1 -17q0 -26 -11 -57q-28 -58 -62 -87 q-5 -10 -22.5 -37.5t-24.5 -41.5q14 -14 29 -23l16.5 11t18.5 12q21 13 32.5 20t31 16t34 12t32.5 2.5t34 -7.5q2 -2 13.5 -11.5t19 -17t15.5 -22.5t9 -33q1 -3 3.5 -12.5t2.5 -14.5q142 25 213 135q8 19 15 29q8 16 10 26q-4 4 -4 11q-18 16 -37 16l-33 -16q-2 -1 -9 -5.5 t-9 -5.5t-8.5 -4.5t-10 -5t-10 -4t-11.5 -3.5t-11.5 -2.5t-13.5 -2t-15 -0.5q-76 0 -109 55q-13 16 -20 39q-11 28 -3 55.5t31 42.5q37 59 37 86l-14 15q-16 19 -24 29t-21 38t-14.5 52.5t8 62.5t35.5 78l6 16q-14 2 -47 2q-34 0 -50 -2q23 -27 25 -49q3 -11 3 -22 q0 -45 -56 -84q-34 -30 -78 -42q-23 -6 -45 -6q-19 0 -37 5h-14v-11q-2 -9 -9.5 -24t-9.5 -21q-6 -37 -55 -47v-6v-74zM872 802q-2 -5 -2 -11q0 -10 7 -19q37 -50 53 -98q8 -23 8 -50q0 -28 -8 -61q30 0 61 -8v47q0 134 -90 221q-23 -6 -29 -21z" />
<glyph unicode="p" d="M92 -184q0 87 53 108q11 8 27 8v779h-2q-16 9 -27.5 21t-17 29t-8.5 29.5t-2.5 35t1.5 30.5t3 31q8 8 8 41q-11 20 -11 43t11 49q14 25 45 35v22h166v-106q4 2 10 2q134 104 320 104q150 0 272 -73q21 9 38 9q24 0 42 -16q6 -3 12 -7.5t11 -10.5t8 -10t7.5 -12.5t6 -11.5 t5.5 -13.5t5 -11.5q0 -1 6 -7q42 0 56 -61q4 -13 4 -26q0 -24 -13 -46q31 -82 31 -178v-129q0 -24 -4 -74q31 -27 41 -67q4 -19 4 -58q0 -26 -2 -61q-2 -23 -2 -41q0 -42 10 -57q27 -5 44 -23q15 -16 15 -36q0 -4 -1 -9q-6 -22 -22 -38.5t-38 -22.5l-10 -2l-12 2 q-16 2 -26 3.5t-27.5 8t-29 15.5t-22 27t-14.5 42q-10 45 -10 86q-110 -127 -287 -160q-7 -17 -18 -31q-30 -34 -72 -34l-10 2q-8 1 -21.5 8t-17.5 8q-35 31 -47 45q-136 22 -242 105v-154q28 44 61 51q14 5 29 5q60 0 117 -97q11 -22 22 -33q45 -13 51 -59q2 -12 2 -23 q0 -22 -8 -42q-13 -29 -37 -35q-14 -6 -27.5 -6.5t-25 5.5t-20.5 13t-18.5 19t-15.5 21l-14 21q-3 5 -5 8q-12 15 -21 27q-6 -15 -13 -33t-9 -24q-11 -35 -18 -54t-20 -39.5t-30 -31.5v-121h-166v53h-4q-47 0 -62 33q-10 19 -10 46t10 46q0 4 -4 21t-4 20q0 14 -3 35t-3 33z M338 473q0 -21 4 -57h7q35 0 54 -27q23 14 39 22t48 17t59.5 6t64.5 -20.5t72 -51.5l25 -26v12q11 29 35.5 43.5t52.5 7.5q90 -7 90 -100v-8q47 96 100 123q4 36 4 59v129v12q0 24 -8 64q-16 -39 -53 -66q-38 -24 -70 -24q-19 0 -43 16q-37 26 -49 78h-6h4q-2 -1 -12 -4 q-19 -9 -40 0.5t-34 36.5q-7 20 -7 41q0 13 3 26q7 33 29 54q34 28 64 28q25 0 48 -20q23 -16 33 -35v51v4q-83 47 -184 47q-72 0 -142 -26q25 0 52 -17q10 -6 18 -14.5t13 -15.5t8.5 -20.5t5.5 -20t3 -24t1 -22v-24.5v-22q-11 -15 -11 -39q13 -25 13 -47q0 -10 -2 -19 q-26 -59 -84 -59h-11l-12 6q-44 18 -67 90q-29 -22 -67 -22q-22 0 -48 8v-21v-129zM463 225q45 -29 82 -39q18 31 26 41l-4 6l-4 11q-18 16 -37 16l-32 -16q-5 -3 -15.5 -9.5t-15.5 -9.5zM780 -55q18 19 50 25q11 2 21 2q21 0 40 -9q12 -6 20.5 -13.5t14 -18t8.5 -17 t4.5 -20.5t2 -19.5t0 -22t-0.5 -20.5v-31l16 4q65 26 111 26q37 0 63 -17q36 -24 36 -61q0 -23 -14 -51q-5 -10 -22 -38q-2 -4 -6.5 -10.5t-7 -11.5t-2.5 -9q0 -34 -20 -51q-23 -18 -58 -18q-34 0 -55 18q-27 20 -27 49q0 18 11 39q-30 -4 -54 -4q-48 0 -75 17 q-26 14 -39 41.5t-15 49t-2 58.5v45q-14 13 -14 30t14 38z" />
<glyph unicode="q" d="M176 473v129q0 115 43 209q-19 8 -39 35q-7 15 -7 32q0 14 5 30q9 34 37 50q19 9 42 9q30 0 67 -17q52 47 135 86q24 28 49 37q17 5 34 5q20 0 38 -7q44 6 88 6q193 0 327 -110v110h166v-925q2 -1 5 -4.5t5 -4.5q23 -20 32 -45q5 -14 5 -30q0 -11 -2 -24 q-7 -30 -13.5 -47t-21.5 -48q-2 -4 -5.5 -10.5t-4.5 -8.5v-401h-166v346q-5 15 -5 32t5 36v12q-27 -7 -63 -5.5t-62 21.5q-30 24 -41 54q-80 -25 -161 -25h-21q-24 -44 -78 -66q-10 -10 -34 -10h-11q-49 6 -73 53q-6 15 -6 31q0 18 8 37q-125 54 -201 163.5t-76 264.5z M342 461q6 -155 117 -232q-1 5 -4 12t-4 9q-42 192 -45 217q-1 10 -1 19q0 130 119 188q27 17 60 24q11 3 24 3q26 0 59 -11q49 -15 91 -61q17 -16 34.5 -40t28 -41t30 -52t26.5 -47t24 -42.5t30.5 -51.5t24.5 -33q12 18 13 20q-7 39 -39 115q-34 104 -45 164q-1 9 -1 18 q0 83 62 133q-69 108 -207 133q6 -10 9 -20q4 -12 4 -23q0 -21 -13 -39l-6 -10q-12 -21 -43 -27q-11 -2 -22 -2q-47 0 -84 45q-25 -84 -80 -102q-21 -12 -48 -12q-38 0 -87 24q-27 -66 -27 -137v-129v-12zM588 467q0 -20 7 -45.5t18.5 -60.5t17.5 -56q26 -86 33 -139h4 q76 0 145 29v12q-43 58 -90 151q-75 152 -117 164v-10l-1 7q-1 0 -5 -9q-12 -4 -12 -43z" />
<glyph unicode="r" d="M197 0v1077h165v-110q134 110 326 110q107 0 197 -41h10q-14 22 -14 43q0 25 20 49q14 22 45 30q11 3 23 3l39 -8q42 -16 42 -55q0 -7 -1 -15l14 -4q81 -35 88 -82q3 -9 3 -18q0 -38 -50 -76q-10 -7 -43 -26q65 -114 65 -273h-165q0 115 -41 184q-22 -16 -52 -16 q-2 0 -12 4t-20 4q-29 7 -40.5 32t1.5 48v6h-9q-2 1 -13 8.5t-20 15.5t-14 17q-20 4 -34 4q8 -15 7.5 -33t-7.5 -38q-28 -52 -65 -52q-8 0 -17 3q-9 -3 -19 -9.5t-16.5 -11.5t-16.5 -14.5t-12 -10.5q-74 -60 -129 -60q-19 0 -35 7l-6 2l-8 6l-6 5q-15 -58 -15 -103v-602 h-165zM541 250q0 84 53 110q12 6 23.5 7t23 -4.5t20.5 -11t21 -18.5t19 -21.5t20 -24.5q7 -13 14 -19v8q2 4 10 25t11 27.5t11.5 25t13.5 26l14 21t16.5 20.5t17.5 13.5t21 9.5q13 5 26 5q59 0 119 -99q8 -18 21 -31q45 -17 53 -59q1 -8 1 -17q0 -26 -10 -48 q-13 -29 -36 -37q-10 -4 -19.5 -5.5t-19 1.5t-16.5 5.5t-15.5 10.5t-13 11.5t-12.5 15t-11 15t-11 16t-9 14.5q-4 4 -10 13t-10 13q-8 -27 -23 -57q-17 -60 -35 -92.5t-49 -44.5q-20 -10 -43.5 -2t-38.5 30q-7 -32 -39 -77q-16 -9 -33 -9q-43 0 -61 33q-11 19 -11 47t11 45 q0 5 -3 22t-3 19q0 15 -4 36t-4 32z" />
<glyph unicode="s" d="M161 968q11 30 40 46q24 8 46 8q44 0 81 -31q12 -12 18 -20q61 52 149 79t173 27q82 0 163 -23t151.5 -78.5t92.5 -133.5q56 -23 74 -88q4 -19 4 -58q0 -26 -2 -61q-2 -23 -2 -41q0 -42 10 -57q27 -5 45 -23q14 -15 14 -34q0 -4 -1 -9q-13 -50 -60 -63q-15 -4 -22 0 q6 -30 6 -64v-14q-5 -139 -99 -219q-2 -6 -2 -13q12 -28 7 -47q-21 -41 -58 -41q-12 0 -16 6q-19 7 -35 31q-114 -47 -272 -47q-26 0 -57.5 2.5t-79 11.5t-91 23.5t-89.5 41t-79.5 61t-55 87.5t-21.5 117h77q-7 18 -26 90q-6 6 -11.5 21t-5.5 22q-57 15 -57 76q-6 32 16 59 t58 35q10 0 16 -2q-12 37 -12 80v2v39v2q0 28 6 55q-15 17 -29 41q-41 13 -63 45q-6 15 -6 30t5 29zM383 264q24 -33 67 -55t92 -30t75.5 -10.5t48.5 -2.5q16 0 32 -2q-8 18 -8 45q0 19 4 43q4 6 4 29q-15 27 0 61q12 21 36 26t44 -8q35 -17 35 -61q30 13 52 13q16 0 28 -7 q13 -7 21.5 -19.5t11 -21.5t8.5 -31q41 44 41 111q0 36 -34.5 72.5t-106.5 36.5h-242h-8q-34 0 -64 6q2 -16 2 -30q0 -21 -4 -38q-9 -102 -98 -127h-31h-6zM414 721q4 -17 12 -27q4 0 12 4q30 6 57.5 -12.5t39.5 -54.5l2 -6q28 -7 55 -7h96q5 35 6 41q-2 17 2 48 q-33 16 -33 50q0 6 1 13q11 29 35.5 43.5t52.5 7.5q90 -7 90 -100v-8q30 65 65 98q-28 43 -99.5 71.5t-139.5 28.5q-36 0 -70 -6l-4 -2v-16q0 -1 -2.5 -12.5t-3.5 -15t-4.5 -15t-6.5 -17t-9.5 -16.5t-13 -16.5t-16.5 -14t-22 -13t-27.5 -9t-33.5 -6.5q-19 -7 -41 -7v-18v-2 v-4zM946 602q37 -11 60 -24v10v41q2 32 2 53.5t-2 32.5q-22 -12 -45 -84q-2 -5 -7.5 -14.5t-7.5 -14.5z" />
<glyph unicode="t" d="M90 1020q0 75 74 121q40 31 85 31q13 0 27 -3q-14 33 -14 63q0 41 25 77q14 35 50 47q14 4 27 4q22 0 44 -12q30 -18 43 -50v177h165v-398h93q-10 17 -13 37q-2 13 -2 24q0 29 11 53q15 33 47 40q32 8 54.5 0t38.5 -32.5t23.5 -45.5t10.5 -39q0 -16 26 -25q27 -10 32 6 q1 2 1 5q0 41 6.5 72t24.5 62.5t55.5 53t93.5 31.5h6q26 0 46.5 -25.5t25.5 -62.5q1 -7 1 -14q0 -28 -13 -54q-16 -32 -43 -41q-16 -3 -29.5 -8t-20 -7.5t-8.5 -2.5v-21q0 -153 -127 -194q-26 -7 -49 -7q-46 0 -82 29h-209v-213q30 -3 46 -6q45 28 87 28q7 0 13 -1 q22 -6 39 -23q14 73 86 103q12 5 27 8t24.5 3.5t29 1.5t25.5 1q13 4 47 7.5t41 6.5q5 30 24 54t44 24q26 0 45.5 -21.5t19.5 -56.5v-6q0 -48 -22 -85t-66 -54q-17 -7 -36.5 -11.5t-44 -8t-39.5 -7.5q-60 0 -72 -4q-24 -57 -68 -57q-16 0 -28 6q0 -2 -1 -6t-1 -6 q-38 -90 -131 -109q-14 -1 -28 -1q-33 0 -59 7h-2v-30q0 -66 1 -104.5t8 -75.5t18 -54.5t32.5 -32t50 -18.5t71.5 -4h6h6q89 0 126.5 25t47.5 96q-29 -7 -49 22q-8 -26 -29 -53q-8 -6 -22 -6q-30 0 -43 24q-8 11 -8 32.5t8 31.5q0 3 -2 15t-2 14q0 9 -3.5 24.5t-3.5 24.5 q0 56 39 73q7 4 14 4q29 0 70 -51l4 -4q6 -6 9 -12v8q1 3 10.5 26t15.5 34v45h33q12 8 20 10q28 11 56 -10h57v-72l4 -4q35 -15 37 -43q3 -27 -5.5 -46.5t-25.5 -23.5q-2 -1 -6 -2t-6 -2q-3 -69 -11.5 -118t-31 -95t-60 -73.5t-98.5 -43.5t-145 -16h-6h-6q-201 0 -277 94 q-8 -16 -14 -24q-30 -34 -70 -43q-11 -3 -22 -3q-27 0 -49 17q-39 25 -47 67q-2 8 -2 16q0 32 24 60q45 69 45 101q-8 8 -16 14q-39 49 -50 78q-10 27 -10 55q0 60 43 127q10 28 27 45l10 10q27 31 62 52v245h-37q-15 -3 -37 0l-27 -2q-2 -23 -18 -67q-6 -29 -30 -47.5 t-54 -18.5q-4 0 -15.5 4t-21.5 4q-33 12 -47 50q-7 18 -7 37q0 18 7 36v8h-8q-1 1 -11.5 10t-15 13.5t-13.5 15t-13.5 19t-8.5 21.5t-4 26z" />
<glyph unicode="u" d="M84 370q5 58 39 107q34 26 49 35v563h166v-356q26 27 62 32q7 1 14 1q30 0 59 -17q33 -13 47.5 -41t5.5 -61q10 -9 23.5 -16.5t31 -15.5t23.5 -11q67 -27 107 -62q9 15 26 25q27 13 58 10t47 -26q75 46 135 46q7 0 14 -1v102l-6 -6q-37 -25 -72 -25q-24 0 -41 17 q-40 26 -51 78h-4q-20 -15 -45 -7t-39 39q-7 19 -7 39q0 13 3 27q8 34 31 53q34 29 64 29q25 0 48 -19q1 -1 9.5 -8.5t13 -13.5t8.5 -13v52q0 78 55 121q11 11 33 20v8h27q7 2 13 1.5t11 -1.5h115v-104q23 -19 33 -53q8 -30 -1 -57t-32 -42v-344q36 -49 36 -97t-36 -95v-25 q5 -5 19 -12q28 -28 32 -60q1 -5 0 -10q0 -27 -20 -51q-11 -11 -31 -23v-104h-166v111q-135 -111 -327 -111q-114 0 -220 45q-20 -28 -49 -37q-7 -3 -17.5 -9t-18 -8.5t-17.5 -2.5q-28 0 -56 16t-44 47q-3 26 -21 57.5t-35 52.5t-44 51t-33 38q-26 55 -26 106q0 8 1 16z M358 350q37 -91 121 -138.5t185 -47.5q123 0 210.5 66.5t110.5 175.5q-8 2 -18 2q-17 -7 -35 -17q-2 -1 -9 -5t-9 -5.5t-8.5 -5t-10 -5t-9.5 -4t-11 -3.5t-11.5 -2.5t-13.5 -2t-14 -0.5q-44 0 -76 19q0 -7 -4 -15q-10 -33 -55 -62q-38 -25 -98 -25q-10 0 -21 1q-7 2 -31 8 t-34.5 9.5t-27 10.5t-28.5 15q-13 3 -49 15t-54 16zM397 936v43q-10 14 -9.5 31t9.5 37q14 19 39 25q8 2 16 2q17 0 33 -9q9 -6 15.5 -13.5t10.5 -17.5t6.5 -16.5t3.5 -20.5t1 -19v-21.5v-20.5v-33l13 6q26 13 44.5 20t45.5 6.5t47 -17.5q18 -16 25 -35q4 -11 3 -23 q0 -10 -2 -20q-6 -24 -10.5 -35.5t-15.5 -36.5q-2 -5 -6 -11.5t-6.5 -11.5t-2.5 -10q0 -35 -16 -51q-18 -18 -43 -18q-27 0 -45 18q-20 22 -20 50q0 18 8 38q-22 -6 -51 -5t-48 19q-21 14 -31.5 42t-12 48.5t-1.5 59.5z" />
<glyph unicode="v" d="M86 904q10 34 37 50q22 11 49 11v112h166v-129q12 96 78 121q17 6 34 6q52 0 101 -59q8 -10 35 -47q3 -5 7.5 -13t8.5 -13t10 -9q37 -19 43 -53q12 -34 -6 -60q-18 -34 -51 -37q-12 -4 -24 -4q-43 0 -82 45q-7 -25 -14.5 -42t-24 -35t-39.5 -25q-19 -8 -31 -10l68 -113 q20 19 48 22t54 -12q48 -26 48 -76q0 -12 -3 -26l18 -10q61 -30 91 -80q34 10 59 -4l121 202q-13 8 -27 25q-6 -29 -39 -78q-14 -6 -33 -6q-44 0 -61 33q-11 19 -11 46t11 46q0 6 -3 22t-3 19q0 14 -4 35t-4 33q0 87 53 108q12 7 23.5 8t23 -4t20.5 -11t21 -19.5t19 -22.5 t20 -25q6 -8 14 -18v10q3 6 16.5 40t20.5 47.5t21 34.5t28 32v106h166v-174q1 -2 4 -6t4 -6q5 -12 21 -33q45 -13 53 -57q1 -9 1 -18q0 -27 -10 -49q-12 -28 -36 -36q-12 -5 -24 -5q-20 0 -39 14l-175 -289q35 -22 52 -39q28 -27 41.5 -54.5t15 -46.5t-7 -41t-14.5 -30.5 t-17 -22.5q0 -3 2 -5.5t4.5 -4t8 -5t8.5 -5.5q23 -23 26 -48.5t-18 -49.5q-26 -29 -55 -29q-9 0 -41 16q-42 34 -62 66t-19 60t9 47.5t24 41.5q0 3 -2 7t-2 8q-16 12 -24 12l-158 -264q-22 -25 -51 -31h-5h3h-3h-1h-6h-2h-7h2h-6h3h-5q-31 6 -53 31l-86 145l-6 2h-10 q0 -19 -19 -74q-6 -29 -30 -47t-54 -18q-4 0 -15.5 4t-21.5 4q-34 13 -48 51q-6 18 -7 34q0 19 8 38v8h-8l-14 12q-14 12 -19.5 18t-15.5 19t-14.5 26.5t-4.5 29.5q0 73 76 120q29 21 51 27l-172 291q-18 19 -18 48q0 9 2 19v9l-4 2h-6q-44 0 -74 43q-7 15 -7 32q1 15 5 30z " />
<glyph unicode="w" d="M82 278q8 34 31 54q34 28 65 28q23 0 45 -16l-43 70q-17 26 -10 57v606h166v-78q2 -11 2 -69v-33l12 6q50 26 87 26q30 0 50 -18q9 -8 15 -18t9.5 -18t2.5 -20.5t-1 -18.5t-5 -20.5t-6 -18t-8 -19t-7 -16.5q-2 -5 -6 -11.5t-6 -11.5t-2 -10q0 -32 -16 -51 q-19 -19 -43 -19q-26 0 -45 19q-21 22 -21 51q0 17 8 37q-3 0 -10 -1t-10 -1v-268q31 14 53.5 12t34.5 -14q14 -7 26.5 -23t16.5 -25t14 -30l6 -6q39 0 54 -58l39 66v20q-26 40 -26 84t26 90v244h166v-141q21 0 40 -4q24 18 58 18h10q26 -8 40.5 -35t8.5 -59 q-24 -65 -88 -80q-31 -3 -57 4l-12 4v-149l16 -29l12 -6q9 7 25 25t18 20q21 25 33 38t33.5 26.5t42.5 15.5q9 -1 12 0.5t11 -1t10 -2t8.5 -3.5t7.5 -4.5t7 -4.5t7 -4v592h166v-606q7 -31 -10 -57l-98 -164q18 6 35.5 6t33.5 -6l12 -8q11 -8 16.5 -14t12.5 -18.5t8 -27.5 q4 -36 4 -39q-5 -18 -21 -33.5t-38 -19.5q-15 -4 -43 4q-4 1 -6 -1t-2 -5v-2q-21 -7 -57.5 -25.5t-47.5 -23.5q-14 -4 -39 -4q-12 -16 -24 -23q-2 -1 -5.5 -2t-4.5 -2q-15 -6 -31 -6h-2h-10q-4 1 -11.5 3t-11.5 3l-8 4q-17 10 -25 21q-1 2 -3 5t-3 5l-114 190l-107 -178 q-12 -28 -37 -43q-20 -10 -33 -10h-10h-10q-16 3 -33 10q-24 17 -33 41l-45 74q-6 -10 -16 -16q-42 -25 -72 -25q-23 0 -41 18q-18 12 -32 33.5t-19 42.5h-4q-20 -15 -45 -5.5t-39 40.5q-7 19 -7 38q0 13 3 27zM694 956q0 28 35 45q30 17 55 11q-14 22 4 51q10 13 26 17 q6 2 13 1q10 0 21 -4q12 -5 18.5 -15t3.5 -22q9 0 9 -4q45 -20 49 -45q1 -4 1 -8q0 -23 -28 -43q-28 -22 -58 -22q-9 0 -18 2h-6q0 -7 -8 -27q-3 -11 -15 -18t-26 -7l-6 2l-12 2q-16 3 -22 16.5t-1 26.5v5h-2q-1 1 -5 3t-6 3.5t-6 4t-6.5 5t-5 5.5t-3.5 7t-1 8z" />
<glyph unicode="x" d="M154 799q-8 23 -8 42q0 25 14 42l-2 6q-5 30 -5 56q0 72 40 106l-19 26h72l6 2q21 5 40 5q23 0 44 -7h43l72 -100q19 0 41 10q24 3 50.5 -12.5t39.5 -42.5q11 -32 7 -60t-24 -38l-6 -5l-4 -2l96 -135q9 48 19.5 66.5t40.5 48.5l10 10q-56 12 -96 94q-4 16 -4 31 q0 28 14 53q22 40 70 52q32 13 62.5 3.5t47.5 -38.5q13 1 27.5 5.5t31.5 11.5t25 9l39 13l18 26h205l-28 -41q7 -6 12.5 -13.5t13 -22.5l8.5 -17q10 -20 10 -48q0 -26 -16 -63q-17 -39 -55 -71q-78 -50 -117 -56q-12 -7 -50 -26.5t-54 -30.5l-23 -33q8 -4 24 -5t40.5 0 t29.5 1q21 1 41 1q47 0 79 -6q48 -10 77 -48q1 -4 7.5 -20.5t10.5 -29.5t3.5 -33.5t-9.5 -39.5q-4 -8 -7 -19t-6 -18t-9 -14q-36 -33 -79 -33q-18 0 -38 6q-17 8 -51 37q-4 4 -8 4t-7 -2l-2 -2q-5 0 -129 6l156 -217q-14 33 -4 56q9 44 61 57q22 6 39 6t31 -6q28 -16 45 -68 v-8q18 5 35 -6.5t20 -32.5q1 -5 1 -10q-1 -12 -9 -22q-12 -15 -35 -19q-15 -3 -27 -3q-43 0 -63 36v-8q-7 -37 -37 -54l101 -141h-205l-92 131q-22 -25 -48 -25q-9 0 -18 3q-8 -3 -17.5 -9.5t-16 -12t-15.5 -14t-12 -10.5q-74 -60 -129 -60q-19 0 -35 7l-6 2 q-25 14 -34.5 44t-2.5 57q21 53 72 57q29 22 47 33q66 55 114 69l-77 109l-271 -381h-204l155 219q-25 10 -29 14q-39 25 -51 78h-4q-20 -14 -44.5 -5.5t-39.5 38.5q-7 19 -7 39q0 13 3 27q8 34 31 55q33 27 63 27q25 0 49 -19q23 -18 31 -35v51q0 81 56 121q36 31 69 31h8 l-190 270l-2 -4q2 -18 2 -30q5 -14 7.5 -33t1.5 -43t-15 -42.5t-41 -23.5q-27 -7 -52.5 11t-39.5 53z" />
<glyph unicode="y" d="M104 -86q0 79 54 109q12 6 23 7.5t23.5 -5t20 -11t22 -20t19.5 -20.5t21 -25q5 -12 12 -19v9q38 96 60 126q25 33 55 41q13 5 26 5q59 0 119 -99q5 -12 23 -30v12v67l-58 97q-25 -5 -49 -5q-38 0 -73 13q-56 20 -95 65q-38 98 -41 129q-1 5 -1 11q0 28 14 73 q-15 -4 -30 -4q-48 0 -102 39q-33 30 -33 75q0 47 36 83q23 34 67 37l-29 47q-18 19 -18 48q0 9 2 19v289h166v-286l16 -29q2 4 8 8.5t7 5.5l-7 6q-10 18 -10 37q0 14 6 28q12 34 43 48l7 8q-1 0 -9 4q0 4 -3 22.5t-4 31t4 30.5t16 31q36 41 101 41q13 0 28 -2q63 -6 96 -51 q22 72 90 92q16 8 32 8q17 0 33 -8q35 -14 48 -49q9 -20 9 -38q0 -35 -34 -63l6 -20q1 -3 4 -9.5t4 -9.5l2 5q12 21 35.5 25t44.5 -9q16 -7 25.5 -25t9.5 -37q31 13 45 15v190h166v-274q6 -6 10 -14.5t6.5 -15t3.5 -19.5t1 -17.5v-20.5v-18q-7 -12 -7 -26q13 -31 7 -47 q-16 -41 -58 -41h-8l-8 6q-16 5 -29 22l-174 -295l4 -2q8 12 8 15q3 3 13.5 15t14.5 16l14 14t15.5 14t15 10.5t17.5 9t18.5 4.5t20.5 1q9 0 23 -3.5t20 -4.5q23 35 43 47q23 13 51.5 3t37.5 -34q8 -16 8 -31q0 -24 -19 -45q-10 -39 -12 -55q1 -15 -1.5 -35.5t-2.5 -24.5 q-10 -38 -31 -55.5t-43 -17.5q-20 -5 -44 9t-36 46q-2 5 -10 37q4 6 -2 8l-6 -10q-4 -4 -12.5 -13t-16 -17t-14.5 -13v-9q0 -49 -31 -94q-38 -42 -65 -57q-42 -27 -48 -37.5t-6 -50.5q0 -15 13 -12l8 2q44 -5 75.5 -16.5t66 -39.5t61 -82.5t45.5 -136.5v-10q0 -40 -21 -72 q-24 -37 -61 -41q-12 -2 -23 -2q-31 0 -57 17q-34 25 -37 71q-18 84 -39 101q-12 2 -20 0q-64 5 -103 26q-23 -112 -97.5 -167.5t-234.5 -55.5h-82v166h82h13q79 2 113 25.5t46 87.5q-6 -4 -15 -1.5t-14.5 2.5t-13.5 5.5t-12.5 8t-11 10t-10.5 11.5t-10 12.5t-9 13t-8.5 13 t-7.5 11.5q-20 25 -21 26q-9 -32 -22 -57q-18 -60 -35.5 -92.5t-48.5 -44.5q-20 -10 -43.5 -2t-38.5 30q-6 -27 -39 -77q-16 -9 -33 -9q-43 0 -59 35q-12 17 -12 45t12 47q0 5 -4 21t-4 18q0 15 -4.5 36.5t-4.5 33.5zM530 492q19 -22 27 -70l4 -4l4 2q22 15 38.5 25t38 19.5 t40 13.5t40 2.5t42.5 -9.5q4 -4 24 -20l158 264v2q-27 -16 -41.5 -19t-44.5 7q-37 18 -37 71q-37 -48 -118 -57q-51 0 -74 8q1 -11 1 -23q0 -38 -14 -81q-31 -70 -71 -105q-2 -4 -8 -13t-9 -13z" />
<glyph unicode="z" d="M174 0v117l51 55l78 86q10 17 23 25l348 387q11 21 24 32q3 2 9.5 6.5t9.5 6.5l176 196h-55q-28 -8 -39 -8h-35q-9 4 -27 8h-32q-31 -24 -95 -37q-53 0 -125 37h-102q2 -2 5 -7t5 -7q21 -31 30.5 -46t24 -42.5t19 -45t4.5 -40t-10 -41.5q-13 -41 -90 -76h-37l-47 6 l-35 25q-7 16 -7 30q0 38 50 58h8q5 12 -15 51t-44 72q-29 32 -45 63h-25v60q-7 20 -7 36.5t7 30.5v39h29q18 15 33 27q34 28 70 36q15 3 29 3q21 0 43 -7q36 -11 60 -24.5t54 -34.5h669v-116l-84 -91l-35 -39q6 -8 15 -25.5t10 -19.5l4 -6q41 0 55 -61q10 -32 -1.5 -60.5 t-39.5 -42.5q-20 -14 -40 -10t-33.5 14.5t-28.5 30.5q8 -16 8 -43q0 -74 -67 -129q-40 -24 -72 -24l-10 2q-17 3 -31 14q-25 20 -43 55l-270 -301q1 -1 2 -4t2 -4q12 -23 65 -43q-1 0 0 2l6 10q0 64 50 107t172 59q34 0 60 -19t26 -46q4 -35 -16 -59.5t-54 -24.5 q-61 -9 -80 -23v-14h215q-4 18 2 37q14 45 64 57q20 6 37.5 6t31.5 -6q29 -18 45 -65v-11q16 5 34.5 -6t21.5 -33v-5q0 -21 -21 -36v-104h-987z" />
<glyph unicode="}" horiz-adv-x="1239" />
<glyph unicode="~" d="M112 711q22 81 78 134t140 83q63 24 123 27t116 -14.5t101.5 -65.5t72.5 -123q49 -134 201 -78q73 27 99 77.5t4 110.5l155 58q39 -102 17 -183.5t-78 -134.5t-140 -82q-63 -24 -123 -27t-116 14.5t-101.5 65.5t-72.5 123q-49 134 -201 78q-73 -27 -98.5 -77.5 t-3.5 -110.5l-156 -58q-39 102 -17 183z" />
<glyph unicode="&#xa0;" />
<glyph unicode="&#xa1;" horiz-adv-x="1024" />
<glyph unicode="&#xa2;" d="M172 578v2v202q0 196 118.5 319t291.5 150v183h166v-181q193 -20 301 -129t108 -280h-166q0 42 -12.5 79.5t-39.5 71t-76 57.5t-115 33v-813q122 17 182.5 80t60.5 164h166q0 -171 -108 -280.5t-301 -129.5v-219h-166v222q-146 21 -254 112q-156 132 -156 357zM338 578 q0 -125 69 -201.5t175 -100.5v807q-107 -24 -175.5 -100t-68.5 -201v-202v-2z" />
<glyph unicode="&#xa3;" d="M168 0v166h82l123 33q35 9 60 43.5t9 101.5l-63 240h-174v166h129l-17 61q-61 220 18.5 368.5t262.5 194.5q184 54 326 -35t204 -309l-163 -43q-78 294 -324 232q-119 -31 -163 -122t-3 -241l29 -106h373v-166h-328l49 -183q0 -2 1 -6t1 -6q38 -126 -12 -223h565v-166 h-985z" />
<glyph unicode="&#xa5;" d="M158 1360h184l320 -522l319 522h184l-321 -524h289v-148h-388v-184h388v-148h-388v-356h-165v356h-383v148h383v184h-383v148h282z" />
<glyph unicode="&#xad;" d="M418 573v166h497v-166h-497z" />
<glyph unicode="&#xb1;" d="M197 211v166h387v334h-387v166h387v421h166v-421h385v-166h-385v-334h385v-166h-938z" />
<glyph unicode="&#xb4;" />
<glyph unicode="&#xbc;" d="M178 745q0 15 12 27t27 12h219v516h-219q-15 0 -27 12t-12 29t12 29t27 12h262q17 0 29 -12t12 -29v-557h103l317 576h203l-752 -1360h-203l390 702h-361q-15 0 -27 12.5t-12 30.5zM668 211l10 10l405 447q12 12 30 13t30 -11q18 -18 12 -39v-588q0 -18 -12 -30.5 t-27 -12.5q-19 0 -31 12t-12 31v107h-368l-11 2q2 -2 3 -2l-5 2q-12 4 -16 8q-22 22 -8 51zM797 231h276v304z" />
<glyph unicode="&#xbd;" d="M176 745q0 15 12 27t29 12h219v516h-219q-17 0 -29 12t-12 29t12 29t29 12h262q17 0 29 -12t12 -29v-557h103l317 576h203l-402 -725q67 45 152 45q99 0 172.5 -61t73.5 -164q6 -21 -11 -41l-337 -330h266v109q0 15 12 26.5t29 11.5t29 -11.5t12 -26.5v-150 q0 -19 -12 -31t-29 -12h-410l-10 2q-6 0 -10 4q-10 5 -11 6q-12 12 -11.5 30t11.5 30l400 389q-6 58 -49 98q-45 39 -115 39q-67 0 -115.5 -40.5t-48.5 -115.5q0 -17 -12 -29t-29 -12t-29 12t-12 29v23l-256 -465h-203l390 702h-361q-17 0 -29 12t-12 31z" />
<glyph unicode="&#xbe;" d="M178 903q0 17 12 29t27 12q19 0 31 -12t12 -29q0 -58 49 -88.5t115 -30.5q65 0 113.5 30.5t48.5 86.5q-3 41 -42.5 70.5t-109.5 29.5h-67q-17 0 -29 12t-12 29t12 29t29 12h67q72 0 112 33t40 74q-3 49 -45 78q-50 32 -119 32q-65 0 -113.5 -30t-48.5 -86q0 -19 -12 -31 t-31 -12q-15 0 -27 12.5t-12 30.5q0 93 73 145.5t171 52.5h10h2q109 0 172.5 -57t63.5 -133v-4v-4v-4q-6 -85 -84 -138q77 -50 84 -135v-4v-4v-4q0 -19 -2 -29l272 494h203l-752 -1360h-203l422 764q-65 -62 -176 -62h-2h-8q-96 0 -166 48q-80 53 -80 153zM668 211l10 10 l405 447q12 12 30 13t30 -11q18 -18 12 -39v-588q0 -18 -12 -30.5t-27 -12.5q-19 0 -31 12t-12 31v107h-368l-11 2q2 -2 3 -2l-5 2q-12 4 -16 8q-22 22 -8 51zM797 231h276v304z" />
<glyph unicode="&#xc4;" d="M143 0l41 119l404 1181l20 60h117l20 -60l404 -1181l41 -119h-168l-35 102l-41 121h-559l-41 -121l-35 -102h-168zM365 1499v215h219v-215h-219zM444 389h445l-221 635zM750 1499v215h219v-215h-219z" />
<glyph unicode="&#xd6;" d="M172 680q0 123 18 224t47.5 170t71.5 122t85 83t94 49t92.5 25.5t85.5 6.5q43 0 84.5 -6.5t92 -25.5t93.5 -49t85 -83t71 -122t47 -170t18 -224t-18 -224t-47 -170t-71 -122t-85 -83t-93.5 -49t-92 -25.5t-84.5 -6.5q-44 0 -85.5 6.5t-92.5 25.5t-94 49t-85 83t-71.5 122 t-47.5 170t-18 224zM338 680q0 -290 100 -414q78 -100 228 -100q147 0 225 100q100 124 100 414t-100 416q-79 98 -225 98q-149 0 -228 -98q-100 -126 -100 -416zM365 1499v215h217v-215h-217zM750 1499v215h219v-215h-219z" />
<glyph unicode="&#xd7;" d="M250 412l299 299l-299 297l117 118l299 -299l299 299l116 -118l-297 -297l297 -299l-116 -119l-299 299l-299 -299z" />
<glyph unicode="&#xdc;" d="M174 444v11v905h166v-885q0 -77 28 -137.5t74.5 -97t103.5 -55.5t120 -19t120.5 19t104.5 55.5t74.5 97t27.5 137.5v885h166v-1360h-166v111q-135 -111 -327 -111h-11q-187 3 -325 119q-144 123 -156 325zM365 1499v215h219v-215h-219zM750 1499v215h219v-215h-219z" />
<glyph unicode="&#xe0;" horiz-adv-x="1024" />
<glyph unicode="&#xed;" horiz-adv-x="1239" />
<glyph unicode="&#xf6;" d="M172 473v133v4q1 110 44 201t112.5 148t156 87.5t179.5 30.5q94 0 181.5 -31t157.5 -88.5t112 -149t42 -202.5v-133q0 -113 -42 -204.5t-112 -149t-157 -88.5t-182 -31q-94 0 -181 31t-157 88.5t-112 149t-42 204.5zM338 473q0 -76 28 -136.5t74.5 -96.5t103.5 -55 t120 -19q142 0 234.5 85.5t92.5 221.5v129q0 136 -92.5 222.5t-234.5 86.5q-63 0 -120 -19t-103.5 -55.5t-74.5 -97t-28 -137.5v-129zM365 1145v215h217v-215h-217zM750 1145v215h219v-215h-219z" />
<glyph unicode="&#xf7;" d="M197 612v166h938v-166h-938zM510 301q0 64 47 109t109 45q65 0 110 -45t45 -109q0 -63 -45.5 -109.5t-109.5 -46.5q-62 0 -109 46.5t-47 109.5zM510 1083q0 64 47 109t109 45q65 0 110 -45t45 -109q0 -62 -45.5 -108.5t-109.5 -46.5q-62 0 -109 47t-47 108z" />
<glyph unicode="&#xfc;" d="M174 473v604h166v-604q0 -76 28 -136.5t74.5 -96.5t103.5 -55t120 -19q142 0 234.5 85.5t92.5 221.5v604h166v-1077h-166v111q-135 -111 -327 -111q-94 0 -181 31t-157 88.5t-112 149t-42 204.5zM365 1145v215h219v-215h-219zM750 1145v215h219v-215h-219z" />
<glyph unicode="&#xff;" d="M172 737v289h166v-287l328 -546l325 546v287h166v-307q0 -26 -14 -43l-2 -6l-393 -660v-125v-8q-1 -79 -8.5 -132.5t-28.5 -106t-58 -83t-100 -49t-152 -18.5h-82v166h82q43 0 71.5 4t50 18.5t32.5 32t17.5 54.5t8 75.5t1.5 104.5v67l-394 660q-23 25 -16 67zM365 1094 v215h217v-215h-217zM750 1094v215h219v-215h-219z" />
<glyph unicode="&#x2000;" horiz-adv-x="857" />
<glyph unicode="&#x2001;" horiz-adv-x="1714" />
<glyph unicode="&#x2002;" horiz-adv-x="857" />
<glyph unicode="&#x2003;" horiz-adv-x="1714" />
<glyph unicode="&#x2004;" horiz-adv-x="571" />
<glyph unicode="&#x2005;" horiz-adv-x="428" />
<glyph unicode="&#x2006;" horiz-adv-x="285" />
<glyph unicode="&#x2007;" horiz-adv-x="285" />
<glyph unicode="&#x2008;" horiz-adv-x="214" />
<glyph unicode="&#x2009;" horiz-adv-x="342" />
<glyph unicode="&#x200a;" horiz-adv-x="95" />
<glyph unicode="&#x2010;" d="M418 573v166h497v-166h-497z" />
<glyph unicode="&#x2011;" d="M418 573v166h497v-166h-497z" />
<glyph unicode="&#x2012;" d="M418 573v166h497v-166h-497z" />
<glyph unicode="&#x2013;" horiz-adv-x="1858" d="M418 573v166h1024v-166h-1024z" />
<glyph unicode="&#x2014;" d="M172 573v166h985v-166h-985z" />
<glyph unicode="&#x2018;" d="M524 1325v283h281v-283h-281z" />
<glyph unicode="&#x2019;" d="M524 1325v283h281v-283h-281z" />
<glyph unicode="&#x202f;" horiz-adv-x="342" />
<glyph unicode="&#x205f;" horiz-adv-x="428" />
<glyph unicode="&#x25fc;" horiz-adv-x="1085" d="M0 0v1085h1085v-1085h-1085z" />
<glyph unicode="&#xfb02;" d="M150 911v166l133 4q1 112 37.5 202t99 147t143.5 87.5t174 30.5q192 0 313 -122.5t121 -348.5v-1077h-165v1077q0 142 -66.5 223.5t-202.5 81.5q-128 0 -208 -77.5t-80 -227.5h364v-166h-364v-911h-166v911h-133z" />
</font>
</defs>
</svg>
