<?xml version="1.0" standalone="no"?>
<!DOCTYPE svg PUBLIC "-//W3C//DTD SVG 1.1//EN" "http://www.w3.org/Graphics/SVG/1.1/DTD/svg11.dtd" >
<svg xmlns="http://www.w3.org/2000/svg">
<metadata></metadata>
<defs>
<font id="zxxbold" horiz-adv-x="1331" >
<font-face units-per-em="2048" ascent="1577" descent="-471" />
<missing-glyph horiz-adv-x="500" />
<glyph horiz-adv-x="0" />
<glyph horiz-adv-x="682" />
<glyph unicode=" " />
<glyph unicode="!" d="M496 0v342h340v-342h-340zM549 483v992h233v-992h-233z" />
<glyph unicode="&#x22;" d="M229 1149l82 465h326l-84 -465h-324zM690 1149l84 465h326l-82 -465h-328z" />
<glyph unicode="#" d="M125 309l29 234h118l33 268h-155l28 233h156l39 312h233l-39 -312h287l39 312h233l-39 -312h121l-28 -233h-119l-33 -268h156l-29 -234h-156l-38 -309h-234l39 309h-287l-39 -309h-233l39 309h-121zM508 543h285l32 268h-284z" />
<glyph unicode="$" d="M164 397v117h231v-117q0 -68 46 -107t108 -57v318q-160 25 -262 119q-109 98 -121 229q-2 8 -2 25v16q0 151 106 260t279 133v148h231v-152q151 -28 256 -119q129 -114 129 -286v-117h-231v117q0 78 -70 129h-2q-36 25 -82 37v-320q152 -21 260 -117q109 -95 121 -233 q4 -12 4 -23v-16q0 -152 -108 -260q-110 -110 -277 -131v-154h-231v158q-123 18 -217 84q-168 117 -168 319zM395 932q3 -48 47 -92q45 -38 107 -52v304q-147 -48 -154 -160zM780 233q60 18 104.5 54.5t47.5 99.5q-3 50 -47 94q-35 35 -105 51v-299z" />
<glyph unicode="%" d="M106 174l494 590q-62 -33 -139 -33q-127 0 -219 92q-92 95 -92 224q0 126 92 217.5t219 91.5q130 0 221.5 -91t91.5 -218q0 -47 -12 -91l188 226h275l-494 -588q74 31 137 31q129 0 222 -93q90 -90 90 -221q0 -132 -90 -219q-92 -92 -222 -92q-126 0 -219 90 q-96 93 -96 221q0 37 10 82l-182 -219h-275zM319 1047q0 -60 43.5 -103t98.5 -43q59 0 102 42t43 104q0 54 -43 97.5t-102 43.5q-57 0 -99.5 -42t-42.5 -99zM723 311q0 -53 45 -97t100 -44q59 0 100.5 41.5t41.5 99.5q0 60 -42.5 103t-99.5 43q-56 0 -100.5 -44t-44.5 -102z " />
<glyph unicode="&#x26;" d="M127 485q0 124 56.5 225.5t156.5 161.5q-37 78 -37 193q0 130 68 213q76 98 227 98q145 0 227 -98q68 -84 68 -213q0 -126 -51 -217q-39 -70 -103 -107l158 -239v274h233v-291q0 -139 -59 -243l39 -60l2 -2l66 -92l-93 -63q0 -5 -2 -5l-2 -2h-2l-90 -65l-63 86q-1 2 -3 5 t-3 5l-17 23q-119 -72 -274 -72q-203 0 -342 121q-160 135 -160 364zM360 485q0 -67 24.5 -118.5t64.5 -79.5t85.5 -42t94.5 -14q83 0 145 35l-278 420q-55 -19 -95.5 -67t-40.5 -134zM537 1047q-3 -59 8.5 -83.5t52.5 -27.5q41 3 52.5 27.5t8.5 83.5v18q0 78 -61 78 q-33 0 -47 -21.5t-14 -74.5z" />
<glyph unicode="(" d="M356 377v579q0 120 43 224q40 92 113 172q70 70 160 108.5t184 38.5h119v-233h-119q-105 0 -185.5 -93t-80.5 -245v-525q0 -151 80.5 -244t185.5 -93h119v-234h-119q-104 3 -190 47q-90 44 -160 117q-147 159 -150 381z" />
<glyph unicode=")" d="M356 66h119q105 0 185.5 93t80.5 244v525q0 152 -80.5 245t-185.5 93h-119v233h119q94 0 184 -38.5t160 -108.5q73 -80 113 -172q43 -104 43 -224v-579q-3 -222 -150 -381q-71 -74 -159 -117q-86 -44 -191 -47h-119v234z" />
<glyph unicode="*" d="M168 823v232h219l-154 153l164 164l154 -153v217h231v-217l154 153l162 -164l-154 -153h219v-232h-219l154 -153l-162 -164l-154 151v-215h-231v217l-154 -153l-164 164l154 153h-219z" />
<glyph unicode="+" d="M186 584v231h365v397h231v-397h363v-231h-363v-398h-231v398h-365z" />
<glyph unicode="," d="M272 -78h125q86 0 115 23q19 19 27 55h-52v371h373v-371h-69q-16 -151 -84 -227q-49 -52 -125 -76q-80 -25 -185 -25h-125v250z" />
<glyph unicode="-" d="M393 539v233h545v-233h-545z" />
<glyph unicode="." d="M481 0v371h371v-371h-371z" />
<glyph unicode="/" d="M152 0l749 1356h279l-750 -1356h-278z" />
<glyph unicode="0" d="M162 543v276q0 142 37 252q39 115 108 184q97 94 223 105h269q128 -12 221 -105q71 -68 110 -184q37 -110 37 -252v-276q-3 -229 -100 -377q-102 -148 -268 -166h-269q-166 18 -268 166q-100 145 -100 377zM395 569q0 -87 11 -151t27.5 -99t41 -56t45.5 -26.5t47 -5.5 h193q26 0 47 5.5t46 26.5t41.5 56t28 99t11.5 151v222q0 87 -11.5 151t-28 99t-41.5 55.5t-46 26t-47 5.5h-193q-26 0 -47 -5.5t-45.5 -26t-41 -55.5t-27.5 -99t-11 -151v-222z" />
<glyph unicode="1" d="M164 0v233h489v881l-395 -108v235l428 119h201v-1127h280v-233h-1003z" />
<glyph unicode="2" d="M164 0v166l766 754q-12 87 -74 143q-69 63 -190 63q-49 0 -94.5 -13.5t-85.5 -42t-64.5 -79t-24.5 -117.5v-116h-233v116q0 226 158 363q145 123 344 123q197 0 338 -119q154 -127 163 -348q0 -67 -30 -102l-572 -558h369v281h233v-514h-1003z" />
<glyph unicode="3" d="M164 414h233q0 -83 78 -133q79 -48 191 -48q107 0 187.5 48t80.5 122q0 70 -72.5 116t-177.5 46h-137v234h137q104 0 177 46.5t73 108.5q0 77 -77 124.5t-193 47.5q-112 0 -189 -47q-78 -50 -78 -133h-233q0 98 45 180q42 76 115 131q140 103 340 103h20q115 0 208.5 -34 t152.5 -90.5t90.5 -126.5t31.5 -146q0 -78 -34 -152t-99 -127q39 -33 57 -51.5t39 -52t29 -77t8 -106.5q0 -108 -64 -199.5t-175 -144.5t-244 -53h-18q-194 0 -332 96q-83 55 -126.5 137t-43.5 181z" />
<glyph unicode="4" d="M172 455l821 905h168v-1360h-233v281h-678zM541 514h387v430z" />
<glyph unicode="5" d="M164 485v117h233v-117q0 -67 24 -117.5t64 -79t85.5 -42t95.5 -13.5q123 0 198 72q70 73 70 197q0 111 -64.5 190.5t-185.5 79.5h-520v588h1003v-234h-770v-120h318q213 -12 338 -168q114 -139 114 -336v-17q0 -223 -155 -362q-132 -123 -328 -123h-18q-199 0 -342 121 q-160 135 -160 364z" />
<glyph unicode="6" d="M164 457v452l2 6q15 207 168 332q137 113 332 113q86 0 184 -29q93 -36 160 -92q157 -141 157 -365v-116h-59q57 -102 57 -238v-14q2 -8 2 -21q0 -119 -47 -215q-42 -89 -123 -157q-131 -113 -315 -113h-27q-187 3 -331 121q-151 126 -160 336zM395 506q2 -8 2 -21 q0 -66 24 -116.5t64 -79t86 -42.5t95 -14q106 0 184 60q82 76 82 209q0 126 -68 200q-9 6 -12 15q-77 59 -188 59q-48 0 -92.5 -13.5t-84.5 -41t-65 -76.5t-27 -113v-26zM403 946q125 64 279 64h10q127 0 232 -60q-15 69 -68 113q-72 63 -190 63q-57 0 -108.5 -16.5 t-95.5 -58.5t-59 -105z" />
<glyph unicode="7" d="M154 0l792 932v194h-772v234h1006v-457q0 -49 -31 -92l-690 -811h-305z" />
<glyph unicode="8" d="M164 397v17q0 16 2 22q19 151 131 246q-44 36 -80 90q-42 74 -51 148q-2 8 -2 26v17q0 75 31.5 145.5t90.5 127t152.5 90.5t208.5 34h37q115 0 208.5 -34t152.5 -90.5t90.5 -127t31.5 -145.5v-17q0 -18 -2 -26q-13 -83 -53 -148q-29 -50 -78 -90q112 -95 131 -246 q2 -6 2 -22v-17q0 -157 -125 -276q-140 -121 -358 -121h-37q-221 0 -358 121q-125 119 -125 276zM397 403q0 -56 42 -96t101 -57t126 -17q111 0 189.5 47t78.5 123q0 65 -72.5 111.5t-177.5 46.5h-37q-107 0 -178.5 -46.5t-71.5 -111.5zM397 952q0 -63 71.5 -108t178.5 -45 h37q104 0 177 46.5t73 108.5q0 77 -77 124.5t-193 47.5q-108 0 -187.5 -48t-79.5 -126z" />
<glyph unicode="9" d="M164 840v34q0 205 135 340q137 146 348 146h19q196 0 335 -117q154 -126 166 -336v-438q0 -108 -34 -195q-39 -89 -111 -149q-146 -125 -393 -125h-115v233h115q277 0 303 189q-118 -68 -266 -68h-19q-188 0 -315 115l-8 4q-160 142 -160 367zM397 856q0 -121 70 -194 q74 -74 199 -74q50 0 95.5 13.5t85 42t63.5 79t24 117.5v34q0 123 -78 189q-72 63 -190 63q-120 0 -195 -69q-74 -74 -74 -201z" />
<glyph unicode=":" d="M465 82v399h401v-399h-401zM465 899v399h401v-399h-401z" />
<glyph unicode=";" d="M264 10h125q81 0 113 21q13 10 24 43h-61v401h401v-401h-84q-17 -143 -88 -217q-47 -47 -123 -72q-80 -25 -182 -25h-125v250zM465 891v399h401v-399h-401z" />
<glyph unicode="=" d="M186 436v234h959v-234h-959zM186 791v233h959v-233h-959z" />
<glyph unicode="?" d="M319 1114q0 135 74 236q38 51 106 88t167 37q176 0 274 -125q72 -98 72 -236q0 -137 -94 -231q-104 -99 -252 -99q-76 0 -76 -61q0 -78 61 -78q62 0 62 78h233q0 -128 -67 -211q-66 -83 -189 -96v-2h-78v2q-122 12 -188 96q-57 69 -66 172l-2 39q0 147 99 227 q84 68 211 68q36 0 69 16q45 26 45 80q0 57 -31.5 92t-82.5 35t-82 -35t-31 -92h-234zM481 172q0 69 49 121q49 49 121 49q75 0 121 -49q49 -49 49 -121q0 -71 -50 -121.5t-120 -50.5q-69 0 -119.5 51t-50.5 121z" />
<glyph unicode="@" d="M150 700q0 132 36 244q39 125 107 213q85 105 178 150q115 59 244 59h6q109 -2 205 -48.5t168 -133.5q65 -71 102 -172q37 -90 37 -189q0 -98 -31.5 -197.5t-87.5 -179.5v-210h-233v36q-59 -20 -131 -20h-11q-141 3 -247 106q-61 61 -86 140q26 -110 75 -179 q97 -155 273 -155h116v-234h-155v2q-110 6 -221 64q-109 57 -191 172q-153 213 -153 532zM381 700q0 -30 4 -88v4q0 151 107 258q110 107 258 107q138 0 245 -96q-22 103 -102 175.5t-176 72.5q-146 0 -241 -122t-95 -311zM623 616q0 -52 38 -89.5t89 -37.5q54 0 91.5 37 t37.5 90q0 52 -39 91q-41 38 -90 38q-52 0 -89.5 -38t-37.5 -91z" />
<glyph unicode="A" d="M123 0q115 339 465 1360h162q286 -832 464 -1360h-239l-70 209h-473l-70 -209h-239zM516 442h305l-151 443z" />
<glyph unicode="B" d="M172 0v1360h549q129 -1 234 -55.5t163 -145t58 -196.5q0 -78 -35.5 -153.5t-98.5 -127.5q63 -52 98.5 -127.5t35.5 -153.5q0 -76 -34.5 -148.5t-94 -128.5t-145.5 -90t-181 -34h-549zM406 238h286q104 0 177 47.5t73 115.5q0 66 -65 115t-185 49h-286v-327zM406 799h286 q106 0 178 48.5t72 115.5q0 71 -72 117t-178 46h-286v-327z" />
<glyph unicode="C" d="M164 455v454q6 103 48.5 189.5t117.5 146.5q139 115 334 115q201 0 344 -121q157 -139 157 -365v-38h-231v38q0 115 -75 183.5t-195 68.5q-49 0 -94.5 -13.5t-85.5 -42t-64.5 -79t-24.5 -117.5v-389q0 -66 24.5 -116.5t64.5 -79t85.5 -42.5t94.5 -14t94.5 14t86 42.5 t65 79t24.5 116.5v39h231v-39q0 -227 -157 -362q-145 -123 -344 -123q-194 0 -340 121q-151 129 -160 334z" />
<glyph unicode="D" d="M172 0v1360h537q103 0 199 -63t159 -171q107 -182 107 -446q0 -265 -107 -444q-66 -111 -158.5 -173.5t-199.5 -62.5h-537zM401 233h289q106 0 176 117q76 136 76 330q0 185 -70 315q-69 131 -182 131h-289v-893z" />
<glyph unicode="E" d="M172 0v1356h1004v-234h-770v-327h489v-234h-489v-328h770v-233h-1004z" />
<glyph unicode="F" d="M172 0v1356h1004v-234h-770v-256h628v-233h-628v-633h-234z" />
<glyph unicode="G" d="M164 455v454q0 127 70.5 232t184.5 162t245 57q138 0 253 -62.5t182.5 -174.5t67.5 -249h-233q0 114 -75 183t-195 69q-49 0 -94 -13.5t-85 -42t-64 -79t-24 -117.5v-389q0 -66 24 -116.5t64 -79t85 -42.5t94 -14t95 14t86.5 42.5t64.5 79t24 116.5v9h-350v231h583v-270 q-1 -127 -69.5 -232t-183.5 -164t-250 -59q-131 0 -246 57.5t-186 162.5q-68 103 -68 228v7z" />
<glyph unicode="H" d="M172 0v1360h234v-490h536v490h234v-1360h-234v637h-536v-637h-234z" />
<glyph unicode="I" d="M172 0v233h385v893h-385v234h1004v-234h-385v-893h385v-233h-1004z" />
<glyph unicode="J" d="M166 485v117h233v-117q0 -66 24 -116.5t64 -79t85 -42.5t94 -14q50 0 96 14t86 42.5t64 79t24 116.5v641h-490v234h723v-875q0 -137 -67.5 -248.5t-182.5 -174t-253 -62.5q-134 0 -248.5 62t-183 174t-68.5 249z" />
<glyph unicode="K" d="M172 0v1360h234v-561h14l489 561h314l-592 -678l592 -682h-314l-489 565h-14v-565h-234z" />
<glyph unicode="L" d="M172 2v1360h234v-1126h770v-234h-1004z" />
<glyph unicode="M" d="M164 0v1360h223l277 -922l282 922h221v-1360h-233v541l-162 -541h-211l-164 541v-541h-233z" />
<glyph unicode="N" d="M164 0v1360h215l555 -891v891h233v-1360h-217l-553 893v-893h-233z" />
<glyph unicode="O" d="M164 680q0 388 178 557q130 123 324 123q193 0 323 -123q178 -172 178 -557q0 -384 -178 -559q-128 -121 -323 -121q-196 0 -324 121q-178 172 -178 559zM397 680q0 -261 86 -367q63 -80 183 -80q119 0 182 80q86 106 86 367q0 257 -86 369q-62 77 -182 77 q-121 0 -183 -77q-86 -112 -86 -369z" />
<glyph unicode="P" d="M164 0v1360h551q129 0 234 -71.5t161.5 -186.5t56.5 -246q0 -132 -58.5 -247t-163 -185t-230.5 -70h-318v-354h-233zM397 588h287q82 0 140.5 40t84 99t25.5 129q0 50 -13.5 95.5t-42 86t-78.5 64.5t-116 24h-287v-538z" />
<glyph unicode="Q" d="M141 211v940q0 88 60.5 148.5t148.5 60.5h584q89 0 150 -60.5t61 -148.5v-682q0 -62 -49 -96l-72 -49q71 -98 166 -234l-186 -135q-84 114 -168 233l-254 -188h-232q-82 0 -145.5 63.5t-63.5 147.5zM375 233h127l198 144l-116 164l-70 94l84 59l12 11q2 2 8.5 5.5 t8.5 4.5l80 55l88 -125l94 -133l22 16v600h-536v-895z" />
<glyph unicode="R" d="M160 0v1360h551q128 0 232.5 -70t162 -186t57.5 -250q0 -137 -64 -255.5t-169 -182.5l241 -416h-272l-201 350h-305v-350h-233zM393 584h287q82 0 140.5 40.5t84 100t25.5 129.5q0 50 -13.5 96.5t-42 87t-78.5 64.5t-116 24h-287v-542z" />
<glyph unicode="S" d="M164 414v35h233v-35q0 -78 78 -129.5t189 -51.5q52 0 96.5 7.5t85.5 25.5t64.5 53t23.5 84q0 81 -69.5 121.5t-180.5 40.5h-84q-190 0 -313 111.5t-123 277.5q0 76 31 147.5t89 130t152.5 93.5t210.5 35h17q208 0 355.5 -119t147.5 -295v-37h-233v37q0 80 -75 130 t-195 50q-73 0 -130.5 -16t-97 -56t-39.5 -100q1 -75 69.5 -115t180.5 -40h37q134 0 242.5 -44.5t174 -132t66.5 -204.5q0 -190 -132 -304t-351 -114h-20q-213 0 -356.5 119.5t-143.5 294.5z" />
<glyph unicode="T" d="M164 823v537h1003v-537h-233v303h-152v-1126h-233v1126h-152v-303h-233z" />
<glyph unicode="U" d="M164 455v907h233v-875q0 -67 24 -117.5t64 -78.5t85 -41.5t94 -13.5q50 0 96 13.5t86 41.5t64 78.5t24 117.5v875h233v-1360h-233v70q-124 -70 -270 -70q-130 0 -241 56.5t-181 161t-78 235.5z" />
<glyph unicode="V" d="M164 973v389h233v-371l269 -637l270 641v367h233v-389q0 -11 -103.5 -254.5t-206.5 -480.5l-103 -238h-181q-411 942 -411 973z" />
<glyph unicode="W" d="M164 991v369h233v-387l97 -404l55 209v125h233v-125l54 -209q98 400 98 404v387h233v-369q0 -12 -52.5 -260.5t-105.5 -491.5l-53 -243h-233l-57 338l-60 -338h-233q-209 968 -209 995z" />
<glyph unicode="X" d="M115 0l417 682l-417 678h272l281 -459l282 459h269l-416 -678l416 -682h-269l-282 461l-281 -461h-272z" />
<glyph unicode="Y" d="M164 842v518h233v-414l267 -196l270 196v414h233v-514l-385 -295v-551h-233v551z" />
<glyph unicode="Z" d="M164 0v104v10q0 39 20 68l645 944h-432v-280h-233v514h1003v-105v-10q0 -38 -20 -67l-645 -945h432v281h233v-514h-1003z" />
<glyph unicode="[" d="M305 -168v1667h723v-233h-489v-1200h489v-234h-723z" />
<glyph unicode="\" d="M152 1356h278l750 -1356h-279z" />
<glyph unicode="]" d="M305 66h490v1200h-490v233h723v-1667h-723v234z" />
<glyph unicode="_" d="M164 0v233h1003v-233h-1003z" />
<glyph unicode="a" d="M164 393q0 191 125.5 293t357.5 102q129 0 207 -43t82 -88q-3 84 -67 135.5t-136 51.5h-430v233h430q198 0 314 -125q55 -58 90 -147q30 -98 30 -207v-598h-233v70q-157 -70 -268 -70h-19q-233 0 -356 102q-68 55 -96 127q-31 76 -31 164zM397 393q0 -89 52 -121 q56 -39 198 -39h19q140 0 196 39q56 31 56 121q0 60 -17 88t-47 43q-50 31 -188 31h-19q-138 0 -190 -31q-17 -10 -28 -21t-21.5 -39.5t-10.5 -70.5z" />
<glyph unicode="b" d="M164 0v1475h233v-455q121 70 267 70q201 0 344 -121q156 -134 159 -357v-145q0 -1 -1 -5.5t-1 -6.5q-12 -211 -166 -340q-140 -115 -335 -115q-146 0 -267 70v-70h-233zM397 485q0 -67 24 -117.5t64 -79t85 -42t94 -13.5q50 0 95.5 13.5t86 42t64.5 79t24 117.5v119 q0 112 -75.5 182t-194.5 70q-49 0 -94 -13.5t-85 -42t-64 -79t-24 -117.5v-119z" />
<glyph unicode="c" d="M164 465v147q0 108 41 200.5t117 156.5q73 64 159 90q88 31 183 31q93 0 184 -31q89 -30 160 -92q159 -137 159 -363v-39h-233v39q0 112 -75.5 182t-194.5 70q-50 0 -95 -13.5t-85 -42t-63.5 -79t-23.5 -117.5v-121q0 -1 -1 -4t-1 -4q0 -2 1 -5t1 -5q0 -19 0.5 -31.5 t6.5 -39t16.5 -45.5t33 -42.5t53.5 -38t81 -25t112 -10.5h467v-233h-467q-245 0 -391 125h-2q-69 60 -108 149q-35 90 -35 191z" />
<glyph unicode="d" d="M164 455v157q3 224 160 357q68 59 159 90q88 31 181 31q146 0 270 -70v455h233v-1475h-233v70q-124 -70 -268 -70q-194 0 -334 115q-156 128 -168 340zM397 485q0 -67 24 -117.5t64 -79t85.5 -42t95.5 -13.5t95.5 13.5t85 42t63.5 79t24 117.5v119q0 112 -75.5 182 t-194.5 70q-49 0 -94 -13.5t-85 -42t-64 -79t-24 -117.5v-119z" />
<glyph unicode="e" d="M164 467v147q2 107 43 199t117 158q79 66 159 90q88 31 181 31q96 0 184 -31q91 -30 162 -92q157 -138 157 -363v-239h-753q30 -65 94 -95q65 -36 192 -36h467v-234h-467q-245 0 -391 125q-71 59 -110 149q-35 90 -35 191zM397 598h537v8q0 112 -75.5 182t-194.5 70 q-49 0 -94 -13.5t-85 -42t-64 -79t-24 -117.5v-8z" />
<glyph unicode="f" d="M164 0v233h264v611h-264v233h266q0 192 84 295t277 103h376v-232h-376q-36 0 -61 -7.5t-38 -16t-20 -29t-8 -32t-1 -41t-1 -40.5h342v-233h-342v-611h505v-233h-1003z" />
<glyph unicode="g" d="M164 471v121q0 228 155 362q73 64 162 93q74 30 183 30q147 0 270 -69v69h233v-1067q0 -114 -37 -209q-39 -89 -108 -149h-2q-146 -125 -391 -125h-115v233h115q63 0 113 11.5t81 27.5t54 42t33.5 46.5t16.5 48.5t6.5 41.5t0.5 32.5v47q-123 -69 -270 -69 q-95 0 -183.5 31.5t-160 90.5t-114 152.5t-42.5 208.5zM397 471q0 -121 79 -185.5t188 -64.5q118 0 194 70.5t76 179.5v121q0 112 -75.5 183t-194.5 71q-50 0 -95 -14t-85 -42t-63.5 -79.5t-23.5 -118.5v-121z" />
<glyph unicode="h" d="M164 0v1475h233v-457q119 72 267 72q84 0 186 -31q83 -28 160 -92q157 -139 157 -363v-604h-233v604q0 112 -75 182t-195 70q-49 0 -94 -14t-85 -42.5t-64 -79t-24 -116.5v-604h-233z" />
<glyph unicode="i" d="M164 0v233h385v611h-307v233h540v-844h385v-233h-1003zM502 1149v326h327v-326h-327z" />
<glyph unicode="j" d="M217 -238h203q303 0 303 232v852h-385v231h618v-1083q0 -207 -149 -336t-387 -129h-203v233zM676 1147v328h328v-328h-328z" />
<glyph unicode="k" d="M135 0v1475h234v-867l481 469h332l-510 -495l524 -582h-311l-377 420l-139 -141v-279h-234z" />
<glyph unicode="l" d="M164 0v233h385v1010h-385v232h618v-1242h385v-233h-1003z" />
<glyph unicode="m" d="M164 0v623q0 187 24 266q25 84 106 141t177 57q112 0 193 -61q89 61 194 61q100 0 179 -55.5t106 -140.5q24 -79 24 -268v-623h-233v623q0 102 -6.5 148t-21 62t-48.5 19q-34 -3 -48.5 -19t-21 -62t-6.5 -148v-623h-233v623q0 100 -7 146.5t-22 63t-49 19.5 q-33 -3 -47 -19.5t-20.5 -62.5t-6.5 -147v-623h-233z" />
<glyph unicode="n" d="M164 0v604q0 228 158 365q79 66 161 90q88 31 183 31q93 0 184 -31q87 -30 160 -90q157 -139 157 -365v-604h-233v604q0 67 -24 117.5t-63.5 79t-85 42t-95.5 13.5q-119 0 -194 -70t-75 -182v-604h-233z" />
<glyph unicode="o" d="M164 483v129q3 224 160 359q74 61 159 90q92 29 181 29q200 0 344 -119q156 -135 159 -359v-129q0 -109 -40.5 -201.5t-116.5 -158.5q-145 -123 -346 -123q-95 0 -183 32t-159.5 91t-114.5 152.5t-43 207.5zM397 483q0 -121 79.5 -185.5t187.5 -64.5q118 0 194 70.5 t76 179.5v121q0 112 -75.5 182t-194.5 70q-49 0 -94 -13.5t-85 -42t-64 -79t-24 -117.5v-121z" />
<glyph unicode="p" d="M164 -471v1548h233v-69q117 69 269 69q205 0 346 -123q155 -136 155 -362v-121q0 -115 -42.5 -208.5t-113.5 -152.5t-160 -90.5t-185 -31.5q-146 0 -269 69v-528h-233zM397 471q0 -109 75.5 -179.5t193.5 -70.5q111 0 189.5 64.5t78.5 185.5v121q0 67 -24 118.5 t-63.5 79.5t-85 42t-95.5 14q-119 0 -194 -71t-75 -183v-121z" />
<glyph unicode="q" d="M164 471v121q0 225 158 362q73 64 159 93q86 30 183 30q149 0 270 -71v71h233v-1548h-233v528q-117 -69 -270 -69q-95 0 -183 31.5t-159.5 90.5t-114.5 152.5t-43 208.5zM397 471q0 -121 79.5 -185.5t187.5 -64.5q119 0 194.5 70t75.5 180v121q0 112 -75.5 183t-194.5 71 q-49 0 -94 -14t-85 -42.5t-64 -79.5t-24 -118v-121z" />
<glyph unicode="r" d="M195 0v1077h233v-59q119 72 268 72q85 0 176 -31q83 -30 144 -94q131 -125 131 -359v-39h-232v39q0 38 -5.5 70.5t-20 66.5t-38.5 58t-63.5 39.5t-91.5 15.5q-49 0 -95 -14t-85.5 -42.5t-63.5 -79t-24 -116.5v-604h-233z" />
<glyph unicode="s" d="M180 362h234q0 -75 104 -110q71 -21 158 -21h26q213 0 213 131q0 6 -4 15.5t-13.5 21t-29.5 19.5t-47 8h-227q-139 0 -236 63q-127 82 -127 232v39q0 83 45 153q43 62 111 101q123 76 279 76q154 0 274 -76q72 -39 111 -101q45 -65 45 -153h-232q0 34 -64.5 65t-133.5 31 q-73 0 -137 -28.5t-64 -67.5v-39q4 -17 41 -40.5t88 -23.5h227q63 0 120 -18t104.5 -53t75.5 -93t28 -131q0 -226 -213 -313q-115 -49 -272 -49q-149 0 -275 53q-209 93 -209 309z" />
<glyph unicode="t" d="M164 844v233h264v398h234v-398h342v-233h-342v-379q0 -47 0.5 -69t4 -55.5t11.5 -48t22 -31t36.5 -22.5t54.5 -6h12q22 0 39 3.5t30 8t23 15.5t16.5 19.5t11 27t6.5 30.5t3.5 38t1.5 41.5v48.5v119h233v-119q0 -120 -10 -197t-43 -133q-78 -135 -311 -135h-12 q-234 0 -312 135q-32 57 -41.5 134.5t-9.5 195.5v379h-264z" />
<glyph unicode="u" d="M164 483v594h233v-594q0 -83 40.5 -141.5t99 -83.5t127.5 -25q119 0 194.5 70.5t75.5 179.5v594h233v-1077h-233v70q-124 -70 -270 -70q-95 0 -183 32t-159.5 91t-114.5 152.5t-43 207.5z" />
<glyph unicode="v" d="M164 793v297h233v-297l269 -492l270 494v295h233v-297q0 -12 -103.5 -210.5t-206.5 -390.5l-103 -192h-181q-411 760 -411 793z" />
<glyph unicode="w" d="M164 487v590h233v-579l92 -197l60 141v441h233v-445l58 -139l94 199v579h233v-590q0 -12 -56.5 -133.5t-112.5 -237.5l-56 -116h-203l-75 182l-66 -182h-215q-219 460 -219 487z" />
<glyph unicode="x" d="M129 1077h287l250 -354l249 354h289l-393 -557l375 -520h-287l-233 332l-232 -332h-289l379 520z" />
<glyph unicode="y" d="M166 756v321h233v-313l269 -449l268 449v313h233v-323l-385 -695v-116q-3 -207 -61 -295q-85 -119 -303 -119h-115v233h115q94 0 110 33q21 41 21 199v65z" />
<glyph unicode="z" d="M164 0v164l627 680h-627v233h1003v-164l-626 -680h626v-233h-1003z" />
<glyph unicode="}" horiz-adv-x="1239" />
<glyph unicode="~" d="M125 528q-51 139 2 248q56 121 209 178q82 29 149 29q99 0 170 -51q77 -57 121 -166q21 -64 76 -64q24 0 61 13q53 18 74 55q15 31 0 72l-14 37l221 82l12 -37q50 -140 -4 -252q-57 -120 -207 -174q-85 -29 -149 -29q-102 0 -170 51q-79 53 -121 166q-23 64 -76 64 q-11 0 -61 -13q-57 -22 -74 -57q-18 -30 0 -70l12 -37l-219 -81z" />
<glyph unicode="&#xa0;" />
<glyph unicode="&#xa1;" horiz-adv-x="1024" />
<glyph unicode="&#xa2;" d="M172 578v2v202q0 196 118.5 319t291.5 150v183h166v-181q193 -20 301 -129t108 -280h-166q0 42 -12.5 79.5t-39.5 71t-76 57.5t-115 33v-813q122 17 182.5 80t60.5 164h166q0 -171 -108 -280.5t-301 -129.5v-219h-166v222q-146 21 -254 112q-156 132 -156 357zM338 578 q0 -125 69 -201.5t175 -100.5v807q-107 -24 -175.5 -100t-68.5 -201v-202v-2z" />
<glyph unicode="&#xa3;" d="M164 0v231h108l111 31q15 0 33 21q15 24 6 69l-53 197h-170v231h108l-2 4q0 5 -4 13q-58 230 33 385q83 138 260 186q71 18 135 18q145 0 252 -96q110 -93 160 -272l10 -39l-229 -59l-11 36q-16 63 -39.5 106t-51 62t-50.5 26t-49 7q-24 0 -66 -10q-89 -24 -123 -84 q-43 -73 -8 -207q2 -2 2 -4l21 -72h358v-231h-297l33 -123q4 -8 4 -12q26 -92 4 -183h516v-231h-1001z" />
<glyph unicode="&#xa5;" d="M123 1356h264l277 -457l278 457h264l-301 -494h240v-215h-365v-96h365v-215h-365v-336h-231v336h-361v215h361v96h-361v215h236z" />
<glyph unicode="&#xad;" d="M393 539v233h545v-233h-545z" />
<glyph unicode="&#xb1;" d="M186 203v233h365v236h-365v233h365v398h231v-398h363v-233h-363v-236h363v-233h-959z" />
<glyph unicode="&#xb4;" />
<glyph unicode="&#xbc;" d="M178 745q0 15 12 27t27 12h219v516h-219q-15 0 -27 12t-12 29t12 29t27 12h262q17 0 29 -12t12 -29v-557h103l317 576h203l-752 -1360h-203l390 702h-361q-15 0 -27 12.5t-12 30.5zM668 211l10 10l405 447q12 12 30 13t30 -11q18 -18 12 -39v-588q0 -18 -12 -30.5 t-27 -12.5q-19 0 -31 12t-12 31v107h-368l-11 2q2 -2 3 -2l-5 2q-12 4 -16 8q-22 22 -8 51zM797 231h276v304z" />
<glyph unicode="&#xbd;" d="M176 745q0 15 12 27t29 12h219v516h-219q-17 0 -29 12t-12 29t12 29t29 12h262q17 0 29 -12t12 -29v-557h103l317 576h203l-402 -725q67 45 152 45q99 0 172.5 -61t73.5 -164q6 -21 -11 -41l-337 -330h266v109q0 15 12 26.5t29 11.5t29 -11.5t12 -26.5v-150 q0 -19 -12 -31t-29 -12h-410l-10 2q-6 0 -10 4q-10 5 -11 6q-12 12 -11.5 30t11.5 30l400 389q-6 58 -49 98q-45 39 -115 39q-67 0 -115.5 -40.5t-48.5 -115.5q0 -17 -12 -29t-29 -12t-29 12t-12 29v23l-256 -465h-203l390 702h-361q-17 0 -29 12t-12 31z" />
<glyph unicode="&#xbe;" d="M178 903q0 17 12 29t27 12q19 0 31 -12t12 -29q0 -58 49 -88.5t115 -30.5q65 0 113.5 30.5t48.5 86.5q-3 41 -42.5 70.5t-109.5 29.5h-67q-17 0 -29 12t-12 29t12 29t29 12h67q72 0 112 33t40 74q-3 49 -45 78q-50 32 -119 32q-65 0 -113.5 -30t-48.5 -86q0 -19 -12 -31 t-31 -12q-15 0 -27 12.5t-12 30.5q0 93 73 145.5t171 52.5h10h2q109 0 172.5 -57t63.5 -133v-4v-4v-4q-6 -85 -84 -138q77 -50 84 -135v-4v-4v-4q0 -19 -2 -29l272 494h203l-752 -1360h-203l422 764q-65 -62 -176 -62h-2h-8q-96 0 -166 48q-80 53 -80 153zM668 211l10 10 l405 447q12 12 30 13t30 -11q18 -18 12 -39v-588q0 -18 -12 -30.5t-27 -12.5q-19 0 -31 12t-12 31v107h-368l-11 2q2 -2 3 -2l-5 2q-12 4 -16 8q-22 22 -8 51zM797 231h276v304z" />
<glyph unicode="&#xc4;" d="M86 0l37 104q0 9 4 13l4 16l449 1313l22 65h129l23 -65l448 -1313l45 -133h-186l-37 113l-47 135h-621l-47 -135l-37 -113h-186zM332 1665v240h241v-240h-241zM422 432h491l-245 709zM760 1665v240h241v-240h-241z" />
<glyph unicode="&#xd6;" d="M172 680q0 123 18 224t47.5 170t71.5 122t85 83t94 49t92.5 25.5t85.5 6.5q43 0 84.5 -6.5t92 -25.5t93.5 -49t85 -83t71 -122t47 -170t18 -224t-18 -224t-47 -170t-71 -122t-85 -83t-93.5 -49t-92 -25.5t-84.5 -6.5q-44 0 -85.5 6.5t-92.5 25.5t-94 49t-85 83t-71.5 122 t-47.5 170t-18 224zM338 680q0 -290 100 -414q78 -100 228 -100q147 0 225 100q100 124 100 414t-100 416q-79 98 -225 98q-149 0 -228 -98q-100 -126 -100 -416zM365 1499v215h217v-215h-217zM750 1499v215h219v-215h-219z" />
<glyph unicode="&#xd7;" d="M219 430l281 281l-281 278l164 166l281 -281l282 281l164 -166l-281 -278l281 -281l-164 -166l-282 281l-281 -281z" />
<glyph unicode="&#xdc;" d="M174 444v11v905h166v-885q0 -77 28 -137.5t74.5 -97t103.5 -55.5t120 -19t120.5 19t104.5 55.5t74.5 97t27.5 137.5v885h166v-1360h-166v111q-135 -111 -327 -111h-11q-187 3 -325 119q-144 123 -156 325zM365 1499v215h219v-215h-219zM750 1499v215h219v-215h-219z" />
<glyph unicode="&#xe0;" horiz-adv-x="1024" />
<glyph unicode="&#xed;" horiz-adv-x="1239" />
<glyph unicode="&#xf6;" d="M172 473v133v4q1 110 44 201t112.5 148t156 87.5t179.5 30.5q94 0 181.5 -31t157.5 -88.5t112 -149t42 -202.5v-133q0 -113 -42 -204.5t-112 -149t-157 -88.5t-182 -31q-94 0 -181 31t-157 88.5t-112 149t-42 204.5zM338 473q0 -76 28 -136.5t74.5 -96.5t103.5 -55 t120 -19q142 0 234.5 85.5t92.5 221.5v129q0 136 -92.5 222.5t-234.5 86.5q-63 0 -120 -19t-103.5 -55.5t-74.5 -97t-28 -137.5v-129zM365 1145v215h217v-215h-217zM750 1145v215h219v-215h-219z" />
<glyph unicode="&#xf7;" d="M186 578v231h959v-231h-959zM481 322q0 78 56 131t129 53t129 -53q55 -52 55 -131q0 -76 -53 -129q-59 -56 -131 -56q-70 0 -129 56q-56 53 -56 129zM481 1059q0 79 56 129q56 53 129 53t129 -53q55 -49 55 -129q0 -75 -54.5 -131t-129.5 -56q-73 0 -129 56.5t-56 130.5z " />
<glyph unicode="&#xfc;" d="M174 473v604h166v-604q0 -76 28 -136.5t74.5 -96.5t103.5 -55t120 -19q142 0 234.5 85.5t92.5 221.5v604h166v-1077h-166v111q-135 -111 -327 -111q-94 0 -181 31t-157 88.5t-112 149t-42 204.5zM365 1145v215h219v-215h-219zM750 1145v215h219v-215h-219z" />
<glyph unicode="&#xff;" d="M172 788v289h166v-286l328 -547l325 547v286h166v-307q0 -26 -14 -43l-2 -6l-393 -660v-124v-5q-1 -83 -7.5 -137.5t-27.5 -109.5t-57.5 -86t-100 -50.5t-154.5 -19.5h-82v166h82q43 0 71.5 4t50 18.5t32.5 32t17.5 54.5t8 75.5t1.5 104.5v77l-394 660q-23 25 -16 67z M365 1145v215h217v-215h-217zM750 1145v215h219v-215h-219z" />
<glyph unicode="&#x2000;" horiz-adv-x="952" />
<glyph unicode="&#x2001;" horiz-adv-x="1905" />
<glyph unicode="&#x2002;" horiz-adv-x="952" />
<glyph unicode="&#x2003;" horiz-adv-x="1905" />
<glyph unicode="&#x2004;" horiz-adv-x="635" />
<glyph unicode="&#x2005;" horiz-adv-x="476" />
<glyph unicode="&#x2006;" horiz-adv-x="317" />
<glyph unicode="&#x2007;" horiz-adv-x="317" />
<glyph unicode="&#x2008;" horiz-adv-x="238" />
<glyph unicode="&#x2009;" horiz-adv-x="381" />
<glyph unicode="&#x200a;" horiz-adv-x="105" />
<glyph unicode="&#x2010;" d="M393 539v233h545v-233h-545z" />
<glyph unicode="&#x2011;" d="M393 539v233h545v-233h-545z" />
<glyph unicode="&#x2012;" d="M393 539v233h545v-233h-545z" />
<glyph unicode="&#x2013;" horiz-adv-x="1810" d="M393 539v233h1024v-233h-1024z" />
<glyph unicode="&#x2014;" d="M166 541v231h1001v-231h-1001z" />
<glyph unicode="&#x2018;" d="M524 1325v283h281v-283h-281z" />
<glyph unicode="&#x2019;" d="M524 1325v283h281v-283h-281z" />
<glyph unicode="&#x202f;" horiz-adv-x="381" />
<glyph unicode="&#x205f;" horiz-adv-x="476" />
<glyph unicode="&#x25fc;" horiz-adv-x="1075" d="M0 0v1075h1075v-1075h-1075z" />
<glyph unicode="&#xfb01;" d="M150 911v166h133q1 67 6 114t17.5 96t36.5 80.5t61.5 57.5t93.5 38t131 12h542v-166h-542q-113 0 -145 -43.5t-35 -188.5h364v-166h-364v-911h-166v911h-133zM1006 0v1077h165v-1077h-165z" />
<glyph unicode="&#xfb02;" d="M150 911v166l133 4q1 112 37.5 202t99 147t143.5 87.5t174 30.5q192 0 313 -122.5t121 -348.5v-1077h-165v1077q0 142 -66.5 223.5t-202.5 81.5q-128 0 -208 -77.5t-80 -227.5h364v-166h-364v-911h-166v911h-133z" />
</font>
</defs>
</svg>
